<?xml version="1.0" encoding="utf-8"?>
<!-- Generator: Adobe Illustrator 16.0.0, SVG Export Plug-In . SVG Version: 6.00 Build 0)  -->
<!DOCTYPE svg PUBLIC "-//W3C//DTD SVG 1.0//EN" "http://www.w3.org/TR/2001/REC-SVG-20010904/DTD/svg10.dtd">
<svg version="1.0" id="Layer_1" xmlns="http://www.w3.org/2000/svg" xmlns:xlink="http://www.w3.org/1999/xlink" x="0px" y="0px"
	 width="100px" height="100px" viewBox="0 0 100 100" enable-background="new 0 0 100 100" xml:space="preserve">
<g>
	<path fill-rule="evenodd" clip-rule="evenodd" fill="#FFFFFF" d="M63.717,69.638c0.264,0.422,0.512,0.96,0.882,1.394
		c1.129,1.325,1.267,2.7,0.56,4.297c-0.439,0.993-1.145,1.67-1.935,2.315c-0.493,0.403-0.967,0.801-0.896,1.522
		c0.021,0.201,0.043,0.412,0.119,0.596c0.357,0.855,0.731,1.703,1.104,2.552c0.649,1.483,0.228,2.773-0.811,3.875
		c-0.675,0.716-1.388,1.43-2.442,1.637c-0.228,0.045-0.404,0.342-0.525,0.452c0.138,0.753,0.315,1.415,0.365,2.086
		c0.062,0.827-0.064,1.616-0.591,2.338c-0.536,0.737-0.874,1.579-1.577,2.244c-0.863,0.816-2.271,0.938-3.47,0.068
		c-0.306-0.221-0.616-0.437-0.938-0.632c-1.013-0.612-1.259-0.597-2.224,0.113c-0.276,0.203-0.586,0.379-0.815,0.63
		c-0.823,0.899-1.908,1.184-3.047,1.328c-0.29,0.037-0.645,0.012-0.89-0.127c-1.752-0.986-2.851-2.448-3.045-4.488
		c-0.067-0.714-0.029-1.44-0.019-2.16c0.01-0.749-0.146-1.005-0.862-1.193c-0.463-0.122-0.949-0.156-1.414-0.27
		c-0.565-0.139-1.149-0.257-1.672-0.498c-0.638-0.296-1.14-0.726-1.083-1.583c0.036-0.539-0.189-1.092-0.18-1.636
		c0.01-0.609,0.118-1.223,0.249-1.821c0.154-0.703,0.423-1.384,0.552-2.09c0.064-0.351,0.028-0.792-0.138-1.098
		c-0.433-0.802-0.906-1.558-1.799-2.017c-1.41-0.724-2.278-2.118-1.887-4.321c0.204-1.144,0.899-2.069,1.053-3.193
		c0.083-0.611,0.243-1.238,0.173-1.835c-0.045-0.389-0.405-0.77-0.689-1.098c-0.579-0.67-1.236-1.243-1.715-2.031
		c-0.843-1.386-0.942-2.822-0.803-4.361c0.115-1.264,0.64-2.17,1.819-2.711c0.592-0.272,0.756-1.14,0.337-1.899
		c-0.447-0.807-1.002-1.554-1.502-2.333c-0.145-0.228-0.28-0.465-0.388-0.713c-0.706-1.625-0.832-3.354-0.651-5.068
		c0.135-1.268,0.759-2.405,1.646-3.371c0.319-0.348,0.627-0.729,0.843-1.146c0.292-0.562,0.237-1.125-0.236-1.615
		c-0.729-0.756-1.125-1.701-1.418-2.686c-0.299-1-0.071-1.984,0.28-2.922c0.262-0.703,0.625-1.37,0.98-2.033
		c0.121-0.228,0.328-0.429,0.541-0.583c0.828-0.603,1.042-1.205,0.627-2.193c-0.265-0.63-0.614-1.233-0.984-1.811
		c-0.725-1.133-0.63-2.318-0.168-3.464c0.534-1.322,1.463-2.404,2.508-3.358c0.976-0.893,1.494-2.697,0.957-3.925
		c-0.364-0.833-0.563-1.68-0.689-2.574c-0.11-0.768,0.052-1.457,0.433-2.066c0.6-0.96,1.306-1.858,2.503-2.127
		c0.941-0.211,1.891-0.39,2.838-0.571c1.171-0.223,1.678-0.72,1.887-1.879c0.46-2.56,2.191-3.985,4.499-4.697
		c1.103-0.339,2.238,0.067,3.012,1.065c0.21,0.271,0.358,0.588,0.562,0.865c0.116,0.158,0.294,0.401,0.431,0.393
		c0.843-0.051,1.731,0.117,2.498-0.401c1.429-0.963,2.938-0.78,4.215,0.329c1.251,1.086,1.271,2.406,1.034,3.844
		c-0.112,0.679-0.194,1.363-0.32,2.04c-0.146,0.792,0.122,1.185,1.029,1.689c0.389,0.216,0.804,0.393,1.168,0.643
		c0.628,0.431,0.912,1.033,1.017,1.815c0.208,1.564,0.078,3.076-0.266,4.604c-0.165,0.727-0.137,1.5-0.165,2.254
		c-0.022,0.595,0.456,0.92,0.828,1.245c1.104,0.964,1.22,2.159,0.878,3.457c-0.297,1.128-0.649,2.243-1.001,3.356
		c-0.198,0.631-0.135,1.23,0.142,1.808c0.579,1.208,1.167,2.412,1.771,3.609c0.521,1.034,0.566,2.08,0.277,3.197
		c-0.252,0.981-0.675,1.847-1.188,2.718c-0.767,1.301-0.727,2.74-0.194,4.139c0.216,0.569,0.502,1.121,0.818,1.644
		c0.761,1.254,0.833,2.52,0.13,3.806c-0.392,0.719-0.826,1.416-1.26,2.112c-0.282,0.452-0.447,0.903-0.375,1.46
		c0.047,0.365-0.021,0.759-0.104,1.125c-0.268,1.173,0.119,2.104,1.049,2.798c0.771,0.574,1.311,1.198,1.041,2.246
		c-0.084,0.329-0.113,0.691-0.074,1.027c0.109,0.925-0.325,1.645-0.941,2.192c-0.827,0.736-1.261,1.694-1.769,2.619
		C64.046,68.884,63.919,69.203,63.717,69.638z M59.796,9.288c-0.204-0.259-0.397-0.595-0.679-0.824
		c-0.182-0.149-0.535-0.26-0.736-0.184c-0.951,0.364-1.981,0.499-2.85,1.134c-0.597,0.437-1.424,0.423-2.043,0.069
		c-1.121-0.641-2.307-1.271-2.81-2.61c-0.108-0.288-0.376-0.497-0.65-0.312c-0.474,0.317-1.034,0.642-1.292,1.11
		c-0.387,0.704-0.916,1.338-1.089,2.182c-0.134,0.658-0.51,1.268-0.792,1.893c-0.081,0.18-0.18,0.373-0.324,0.502
		c-1.125,1.008-2.452,1.587-3.941,1.818c-0.339,0.052-0.684,0.112-1,0.235c-0.692,0.267-1.094,0.753-1.18,1.533
		c-0.084,0.763-0.093,1.492,0.132,2.24c0.564,1.889,0.104,3.648-0.821,5.312c-0.155,0.28-0.463,0.494-0.736,0.689
		c-1.122,0.799-1.915,2.81-1.593,4.103c0.297,1.191,0.588,2.385,0.905,3.571c0.323,1.211-0.036,2.211-0.813,3.149
		c-0.587,0.708-1.146,1.452-1.606,2.245c-0.472,0.817-0.256,2.196,0.488,2.754c1.153,0.866,1.529,2.045,1.668,3.369
		c0.121,1.139-0.093,2.16-0.972,3c-0.807,0.771-1.268,1.787-1.75,2.772c-0.389,0.798-0.383,1.675,0.131,2.366
		c0.98,1.315,1.568,2.814,2.138,4.31c0.283,0.742,0.308,1.61,0.3,2.42c-0.003,0.334-0.377,0.685-0.629,0.988
		c-0.147,0.178-0.389,0.276-0.583,0.417c-1.353,0.976-1.651,2.349-1.001,3.897c0.397,0.949,1.04,1.689,1.707,2.411
		c1.519,1.643,1.901,3.554,0.701,5.633c-0.207,0.358-0.366,0.748-0.602,1.084c-0.352,0.503-0.29,1.022,0.01,1.455
		c0.658,0.947,1.127,2.013,2.09,2.771c1.188,0.935,1.861,2.211,1.58,3.795c-0.129,0.726-0.335,1.444-0.58,2.142
		c-0.56,1.603-0.073,2.727,1.505,3.352c0.031,0.013,0.067,0.016,0.099,0.029c0.689,0.298,1.408,0.542,2.059,0.909
		c0.885,0.499,1.608,1.161,1.695,2.285c0.057,0.718,0.103,1.442,0.244,2.146c0.126,0.638,0.312,1.353,0.949,1.641
		c1.05,0.475,2.175,0.521,3.102-0.26c0.652-0.549,1.384-0.872,2.134-1.213c0.84-0.382,1.644-0.399,2.471,0.021
		c0.396,0.2,0.813,0.373,1.24,0.493c0.742,0.209,1.292-0.086,1.718-0.751c0.451-0.703,0.46-1.409,0.212-2.172
		c-0.34-1.047-0.161-1.985,0.718-2.704c0.61-0.499,1.254-0.955,1.885-1.426c0.618-0.462,0.851-1.088,0.677-1.816
		c-0.143-0.597-0.361-1.18-0.591-1.751c-0.442-1.098-0.877-2.194-0.309-3.373c0.479-0.992,0.962-1.991,1.877-2.678
		c0.604-0.455,0.903-1.105,1.113-1.788c0.267-0.867-0.16-1.562-0.745-2.128c-0.688-0.665-0.83-1.488-0.799-2.359
		c0.03-0.857,0.165-1.723,0.699-2.426c0.521-0.685,1.112-1.315,1.693-1.949c1.109-1.209,1.092-2.555-0.202-3.562
		c-1.495-1.166-1.588-2.818-1.391-4.379c0.157-1.241,0.896-2.413,1.403-3.604c0.517-1.218,0.902-2.444,0.39-3.758
		c-0.236-0.607-0.547-1.186-0.792-1.789c-0.657-1.623-0.838-3.241,0.09-4.842c0.137-0.236,0.216-0.507,0.3-0.769
		c0.189-0.583,0.377-1.167,0.541-1.758c0.355-1.274,0.396-2.554-0.448-3.644c-1.206-1.559-1.566-3.26-1.078-5.137
		c0.223-0.856,0.627-1.667,0.837-2.527c0.151-0.621,0.222-1.305,0.121-1.928c-0.05-0.308-0.597-0.512-0.863-0.813
		c-0.259-0.294-0.53-0.625-0.646-0.988c-0.348-1.09-0.502-2.194-0.133-3.337c0.242-0.75,0.361-1.54,0.521-2.314
		c0.278-1.34,0.09-2.546-1.106-3.399c-0.358-0.254-0.77-0.443-1.177-0.618c-1.371-0.594-1.853-1.379-1.845-2.874
		C58.747,11.526,59.243,10.451,59.796,9.288z"/>
	<path fill-rule="evenodd" clip-rule="evenodd" fill="#FFFFFF" d="M35.349,14.91c0.266,1.486,1.22,2.669,1.219,4.206
		c-0.001,1.175-0.381,2.062-1.167,2.889c-1.445,1.522-2.476,3.272-2.722,5.41c-0.102,0.883,0.204,1.701,0.45,2.503
		c0.331,1.085,0.256,2.075-0.236,3.07c-0.44,0.893-0.837,1.81-1.309,2.687c-0.77,1.433-0.426,2.837,0.032,4.246
		c0.514,1.582,0.629,3.201-0.062,4.714c-0.565,1.238-0.926,2.505-1.1,3.826c-0.135,1.028,0.109,2.019,0.468,3.012
		c0.624,1.729,1.304,3.483,0.744,5.389c-0.153,0.521-0.277,1.055-0.488,1.552c-0.448,1.061-0.349,2.115-0.222,3.229
		c0.127,1.125,0.433,2.205,0.977,3.113c0.523,0.874,0.701,1.779,0.887,2.708c0.176,0.877,0.104,1.746-0.148,2.642
		c-0.319,1.138-0.644,2.31-0.386,3.536c0.073,0.352-0.108,0.764-0.013,1.103c0.239,0.854,0.474,1.734,0.893,2.505
		c0.329,0.607,0.946,1.052,1.408,1.593c0.94,1.101,1.423,2.32,0.869,3.769c-0.38,0.992-0.424,1.983-0.035,2.983
		c0.494,1.268,1.123,2.422,2.446,3.019c0.187,0.084,0.376,0.173,0.541,0.292c0.367,0.267,0.386,0.639,0.226,1.018
		c-0.153,0.367-0.475,0.495-0.847,0.436c-0.234-0.038-0.487-0.104-0.679-0.232c-1.342-0.899-2.451-1.999-2.931-3.603
		c-0.129-0.429-0.246-0.86-0.367-1.291c-0.298-1.059-0.26-2.139,0.078-3.152c0.319-0.955-0.016-1.625-0.659-2.206
		c-0.893-0.805-1.459-1.8-1.934-2.883c-0.687-1.567-0.804-3.186-0.557-4.851c0.109-0.746,0.227-1.494,0.391-2.23
		c0.322-1.458,0.208-2.816-0.533-4.167c-0.521-0.95-0.968-1.999-1.159-3.057c-0.222-1.23-0.209-2.522-0.137-3.777
		c0.037-0.659,0.356-1.328,0.655-1.94c0.637-1.303,0.404-2.555-0.15-3.778c-0.457-1.012-0.864-2.019-0.91-3.147
		c-0.066-1.619-0.045-3.198,0.665-4.734c0.539-1.164,1.191-2.36,0.84-3.744c-0.143-0.565-0.249-1.157-0.501-1.674
		c-0.553-1.135-0.43-2.311-0.125-3.416c0.346-1.247,0.887-2.453,1.46-3.618c0.544-1.106,0.636-2.19,0.114-3.273
		c-0.436-0.904-0.397-1.823-0.178-2.716c0.485-1.984,1.268-3.835,2.592-5.444c0.493-0.6,0.809-1.356,1.146-2.07
		c0.099-0.21,0.034-0.526-0.024-0.777C34.456,16.799,34.498,16.394,35.349,14.91z"/>
	<path fill-rule="evenodd" clip-rule="evenodd" fill="#FFFFFF" d="M66.453,15.689c0.519-0.185,0.865-0.063,1.078,0.377
		c0.428,0.883,0.703,1.786,0.431,2.79c-0.217,0.796-0.344,1.616-0.564,2.411c-0.177,0.64,0.041,1.118,0.42,1.611
		c0.577,0.752,1.216,1.489,1.623,2.332c0.469,0.967,0.457,2.061,0.201,3.116c-0.226,0.932-0.558,1.819-0.983,2.689
		c-0.582,1.19-0.638,2.375,0.168,3.593c0.693,1.05,1.35,2.195,1.691,3.392c0.44,1.547,0.602,3.233-0.573,4.596
		c-0.726,0.843-0.911,1.774-0.768,2.769c0.078,0.541,0.396,1.099,0.746,1.538c1.502,1.892,1.939,3.887,0.779,6.104
		c-0.381,0.73-0.753,1.465-1.123,2.2c-0.432,0.854-0.383,1.753-0.092,2.605c0.331,0.972,0.861,1.877,1.179,2.852
		c0.378,1.159,0.235,2.344,0.004,3.541c-0.216,1.11-0.872,2.006-1.272,3.021c-0.297,0.749-0.275,1.371,0.136,2.049
		c1.024,1.687,1.32,3.436,0.368,5.272c-0.141,0.271-0.255,0.576-0.294,0.876c-0.074,0.582-0.233,1.053-0.847,1.293
		c-0.194,0.076-0.354,0.334-0.452,0.546c-0.436,0.952-1.009,1.83-1.11,2.944c-0.049,0.534-0.026,0.951,0.277,1.328
		c0.605,0.747,0.693,1.639,0.74,2.528c0.036,0.7-0.476,1.18-0.867,1.699c-0.289,0.382-0.528,0.802-0.911,1.39
		c0.125-0.053,0.023,0.032-0.062,0.019c-0.359-0.056-0.716-0.142-1.073-0.216c0.085-0.348,0.109-0.725,0.267-1.037
		c0.215-0.427,0.479-0.852,0.81-1.191c0.751-0.771,0.63-1.602,0.124-2.356c-1.03-1.539-0.739-3.011,0.106-4.457
		c0.5-0.857,1.164-1.618,1.664-2.476c0.85-1.458,1.399-3.248,0.323-4.944c-0.786-1.24-1.08-2.604-0.439-4.015
		c0.31-0.685,0.72-1.322,1.075-1.987c0.609-1.144,0.431-2.333,0.082-3.48c-0.27-0.883-0.718-1.708-1.064-2.568
		c-0.484-1.203-0.467-2.402,0.047-3.603c0.508-1.187,0.969-2.394,1.484-3.576c0.234-0.54,0.263-1.066,0.079-1.603
		c-0.255-0.744-0.524-1.457-1.12-2.048c-0.556-0.55-1.009-1.23-0.862-2.111c0.017-0.101,0.02-0.214-0.009-0.31
		c-0.357-1.25,0.17-2.306,0.804-3.289c1.04-1.617,0.847-3.197,0.004-4.783c-0.383-0.723-0.857-1.397-1.244-2.118
		c-0.375-0.697-0.458-1.432-0.472-2.252c-0.023-1.385,0.618-2.489,1.062-3.695c0.233-0.633,0.308-1.328,0.422-2
		c0.117-0.69-0.134-1.281-0.566-1.809c-0.457-0.554-0.874-1.145-1.366-1.664c-0.703-0.74-0.725-1.592-0.516-2.495
		c0.139-0.598,0.27-1.208,0.506-1.771c0.416-0.984,0.338-1.944,0.047-2.928C66.483,16.172,66.484,15.935,66.453,15.689z"/>
	<path fill-rule="evenodd" clip-rule="evenodd" fill="#FFFFFF" d="M28.269,23.296c0.197,0.885-0.2,1.456-0.392,2.058
		c-0.177,0.552-0.197,1.022,0.053,1.58c0.375,0.835,0.603,1.737,0.909,2.604c0.388,1.098,0.004,2.108-0.364,3.104
		c-0.175,0.475-0.487,0.904-0.76,1.339c-1.021,1.622-0.904,3.287-0.259,5.003c0.526,1.399,0.731,2.81,0.113,4.273
		c-0.616,1.459-1.025,2.975-1.055,4.589c-0.019,1.097,0.21,2.102,0.685,3.072c0.135,0.276,0.25,0.563,0.362,0.85
		c0.798,2.025,0.39,3.999-0.381,5.9c-0.853,2.104-1.091,4.133,0.002,6.233c0.419,0.808,0.642,1.725,0.904,2.606
		c0.092,0.312,0.092,0.675,0.041,1.001c-0.234,1.479-0.427,2.973-0.787,4.423c-0.192,0.769-0.378,1.517-0.421,2.31
		c-0.063,1.193,0.349,2.246,0.968,3.206c0.409,0.633,0.981,1.162,1.561,1.83c-0.514,0.318-0.935,0.58-1.417,0.878
		c-0.276-0.311-0.508-0.552-0.718-0.811c-0.932-1.152-1.336-2.551-1.709-3.936c-0.183-0.676-0.184-1.443-0.083-2.143
		c0.147-1.018,0.474-2.008,0.701-3.017c0.165-0.735,0.356-1.474,0.42-2.221c0.095-1.113-0.083-2.194-0.698-3.167
		c-0.202-0.319-0.403-0.646-0.547-0.992c-0.63-1.506-0.392-3.049-0.285-4.62c0.097-1.423,0.931-2.553,1.19-3.902
		c0.282-1.476,0.035-2.82-0.685-4.051c-0.557-0.95-0.634-1.976-0.646-2.966c-0.017-1.542,0.126-3.119,0.772-4.55
		c0.345-0.765,0.54-1.527,0.562-2.337c0.014-0.507,0.044-1.084-0.168-1.514c-0.706-1.426-0.687-2.895-0.547-4.416
		c0.116-1.259,0.747-2.264,1.401-3.271c0.463-0.715,0.708-1.482,0.556-2.327c-0.109-0.608-0.293-1.203-0.445-1.803
		c-0.181-0.708-0.187-1.341,0.214-2.045c0.376-0.659,0.463-1.481,0.688-2.229C28.042,23.704,28.126,23.582,28.269,23.296z"/>
	<path fill-rule="evenodd" clip-rule="evenodd" fill="#FFFFFF" d="M70.76,20.67c-0.008,0.803,0.521,1.274,0.979,1.751
		c1.302,1.352,1.366,3.027,1.211,4.722c-0.068,0.739-0.379,1.46-0.613,2.178c-0.453,1.393-0.569,2.732,0.257,4.064
		c0.488,0.786,0.83,1.662,1.229,2.501c0.501,1.055,0.582,2.169,0.522,3.323c-0.083,1.599-0.384,3.135-1.016,4.609
		c-0.373,0.873-0.23,1.695,0.177,2.561c0.581,1.237,1.165,2.505,1.485,3.823c0.253,1.04,0.129,2.155-0.545,3.146
		c-0.461,0.677-0.771,1.46-1.108,2.212c-0.091,0.2-0.097,0.48-0.04,0.695c0.246,0.926,0.502,1.851,0.805,2.76
		c0.853,2.56,0.915,5.051-0.548,7.433c-0.659,1.072-0.78,2.25-0.271,3.349c0.491,1.062,0.545,2.104,0.452,3.215
		c-0.132,1.587-1.238,2.717-1.883,4.062c-0.066,0.138-0.489,0.191-0.717,0.144c-0.301-0.064-0.434-0.347-0.301-0.653
		c0.149-0.345,0.34-0.672,0.516-1.006c0.558-1.06,1.279-2.069,1.127-3.359c-0.071-0.605-0.104-1.243-0.324-1.798
		c-0.618-1.555-0.53-3.056,0.341-4.439c1.502-2.39,1.2-4.798,0.14-7.183c-0.769-1.728-0.647-3.322,0.223-4.94
		c0.308-0.57,0.558-1.176,0.805-1.776c0.089-0.217,0.184-0.493,0.125-0.698c-0.369-1.282-0.553-2.692-1.233-3.789
		c-0.9-1.453-0.939-2.78-0.451-4.308c0.414-1.291,1.053-2.537,0.951-3.96c-0.075-1.039-0.05-2.067-0.6-3.042
		c-0.479-0.851-0.677-1.831-1.329-2.63c-0.8-0.982-0.658-2.22-0.479-3.364c0.131-0.829,0.525-1.618,0.798-2.426
		c0.086-0.258,0.213-0.519,0.225-0.783c0.062-1.412,0.019-2.788-0.895-4.009C70.229,22.328,70.312,21.486,70.76,20.67z"/>
	<path fill-rule="evenodd" clip-rule="evenodd" fill="#FFFFFF" d="M72.542,18.771c-0.405-0.021-0.734-0.04-1.063-0.055
		c-0.784-0.035-1.273-0.495-1.304-1.26c-0.006-0.158,0.049-0.337,0.13-0.477c0.197-0.341,1.144-0.572,1.589-0.41
		c0.525,0.191,0.719,0.575,0.653,1.219C72.518,18.082,72.542,18.38,72.542,18.771z"/>
	<path fill-rule="evenodd" clip-rule="evenodd" fill="#FFFFFF" d="M28.493,21.324c-0.256-0.708-0.096-1.262,0.164-1.776
		c0.342-0.676,1.009-0.685,1.412-0.039c0.141,0.227,0.286,0.474,0.338,0.729c0.165,0.81-0.143,1.134-0.963,1.088
		C29.149,21.31,28.854,21.324,28.493,21.324z"/>
	<path fill-rule="evenodd" clip-rule="evenodd" fill="#FFFFFF" d="M36.205,11.132c0.143-0.376,0.258-0.765,0.434-1.124
		c0.158-0.324,0.461-0.349,0.796-0.28c0.373,0.077,0.511,0.321,0.517,0.658c0.014,0.731-0.389,1.293-0.848,1.788
		c-0.273,0.295-0.654,0.115-0.77-0.296c-0.018-0.064-0.023-0.135-0.023-0.202c-0.003-0.17-0.001-0.341-0.001-0.511
		C36.275,11.153,36.24,11.143,36.205,11.132z"/>
	<path fill-rule="evenodd" clip-rule="evenodd" fill="#FFFFFF" d="M65.278,10.479c0.36,0.022,0.55,0.275,0.564,0.659
		c0.016,0.405-0.211,0.648-0.609,0.66c-0.386,0.012-0.646-0.217-0.72-0.59C64.45,10.89,64.861,10.494,65.278,10.479z"/>
	<path fill-rule="evenodd" clip-rule="evenodd" fill="#FFFFFF" d="M62.308,90.688c-0.09-0.154-0.323-0.385-0.341-0.632
		c-0.031-0.402,0.275-0.601,0.672-0.611c0.408-0.009,0.699,0.263,0.67,0.606C63.281,90.381,62.866,90.703,62.308,90.688z"/>
	<path fill-rule="evenodd" clip-rule="evenodd" fill="#FFFFFF" d="M70.016,80.557c-0.083-0.841,0.019-1.095,0.431-1.038
		c0.207,0.028,0.551,0.276,0.548,0.416C70.977,80.501,70.563,80.616,70.016,80.557z"/>
	<path fill-rule="evenodd" clip-rule="evenodd" fill="#FFFFFF" d="M39.641,92.167c0.194-0.146,0.358-0.334,0.419-0.305
		c0.148,0.07,0.248,0.242,0.367,0.374c-0.124,0.084-0.25,0.233-0.375,0.232C39.937,92.469,39.822,92.309,39.641,92.167z"/>
	<path fill-rule="evenodd" clip-rule="evenodd" fill="#FFFFFF" d="M29.07,82.944c0.167,0.207,0.274,0.339,0.382,0.472
		c-0.125,0.089-0.254,0.254-0.373,0.246c-0.116-0.008-0.282-0.177-0.31-0.301C28.75,83.271,28.921,83.14,29.07,82.944z"/>
	<path fill-rule="evenodd" clip-rule="evenodd" fill="#FFFFFF" d="M56.443,38.748c0.05-0.217,0.048-0.404,0.131-0.537
		c0.475-0.754,0.503-1.633,0.726-2.458c0.228-0.841-0.118-1.529-0.637-2.069c-0.283-0.296-0.86-0.455-1.289-0.429
		c-0.444,0.028-0.577,0.52-0.595,0.966c-0.011,0.274-0.042,0.551-0.096,0.819c-0.323,1.594-2.198,2.264-3.414,1.185
		c-0.358-0.318-0.595-0.797-0.825-1.235c-0.847-1.598-0.383-3.556,0.966-4.777c0.461-0.417,1.075-0.603,1.821-0.338
		c0.679,0.242,1.182,0.637,1.699,1.073c0.626,0.528,0.868,0.536,1.436,0.106c0.48-0.363,0.782-1.106,0.474-1.526
		c-0.395-0.536-0.233-1.027,0.021-1.443c0.541-0.881,0.688-1.859,0.857-2.835c0.042-0.236,0.006-0.572-0.139-0.741
		c-0.415-0.486-0.88-0.938-1.368-1.353c-0.692-0.587-0.806-1.306-0.65-2.145c0.159-0.872,0.339-1.748,0.385-2.629
		c0.101-1.886-0.57-2.864-2.206-3.304c-1.786-0.48-3.82,0.563-4.188,2.614c-0.131,0.731-0.13,1.489-0.148,2.236
		c-0.024,0.948-0.587,1.487-1.534,1.522c-0.502,0.019-1.05,0.072-1.483,0.292c-0.946,0.479-1.614,1.224-1.945,2.292
		c-0.312,1-0.049,1.773,0.549,2.572c0.492,0.659,0.354,1.239-0.258,1.832c-0.174,0.167-0.35,0.335-0.545,0.474
		c-1.202,0.855-1.95,1.992-2.165,3.462c-0.023,0.162-0.078,0.348-0.027,0.491c0.504,1.43,1.134,2.816,2.239,3.872
		c1.023,0.979,0.749,2.578,0.269,3.657c-0.305,0.682-0.827,1.263-1.237,1.898c-0.594,0.923-0.737,2.914,0.168,3.758
		c0.527,0.492,1.021,1.022,1.501,1.561c1.11,1.244,1.051,2.765-0.132,3.945c-0.146,0.146-0.289,0.294-0.438,0.438
		c-0.858,0.825-1.271,1.895-1.37,3.022c-0.115,1.315,0.171,2.545,1.569,3.174c0.18,0.081,0.331,0.24,0.481,0.379
		c0.121,0.11,0.26,0.228,0.321,0.371c0.501,1.167,0.16,2.147-0.938,2.796c-0.97,0.571-1.589,1.459-1.772,2.521
		c-0.164,0.946-0.027,1.955,0.591,2.764c0.453,0.593,1.005,1.113,1.538,1.64c0.913,0.901,1.653,1.795,1.05,3.24
		c-0.304,0.726-0.604,1.489-0.5,2.372c0.084,0.698,0.179,1.32,0.582,1.921c0.452,0.673,1.059,0.878,1.81,0.974
		c0.999,0.128,1.267,0.506,1.292,1.518c0.018,0.683,0.012,1.371,0.105,2.045c0.069,0.501,0.158,1.077,0.45,1.456
		c1.48,1.916,3.914,1.347,5.053,0.106c0.486-0.528,0.691-1.318,1.004-1.998c0.519-1.132,0.213-2.234-0.264-3.265
		c-0.235-0.508-0.455-0.962-0.385-1.489c0.55-0.282,1.124-0.47,1.562-0.826c0.642-0.521,1.102-1.229,1.299-2.044
		c0.263-1.091,0.332-2.159-0.441-3.14c-0.51-0.646-1.054-1.231-1.686-1.764c-0.674-0.569-0.571-1.471,0.1-2.015
		c0.505-0.408,0.963-0.876,1.477-1.271c0.863-0.664,1.048-1.666,1.307-2.611c0.076-0.275-0.079-0.704-0.274-0.943
		c-0.453-0.554-0.943-1.103-1.513-1.529c-0.772-0.575-1.065-1.311-1.069-2.223c-0.003-0.964,0.416-1.721,1.136-2.332
		c0.854-0.724,1.472-1.626,1.978-2.612c0.075-0.148,0.198-0.315,0.184-0.462c-0.1-0.977-0.073-2-1.034-2.658
		c-0.336-0.229-0.6-0.561-0.911-0.829c-1.187-1.024-1.198-1.854-0.027-2.908c0.103-0.092,0.221-0.166,0.318-0.263
		c1.032-1.004,1.881-2.086,1.866-3.646c-0.007-0.76-0.211-1.363-0.879-1.738C57.778,39.392,57.157,39.107,56.443,38.748z"/>
	<path fill-rule="evenodd" clip-rule="evenodd" fill="#FFFFFF" d="M56.443,38.748c0.714,0.359,1.335,0.644,1.93,0.979
		c0.668,0.375,0.872,0.979,0.879,1.738c0.015,1.56-0.834,2.642-1.866,3.646c-0.098,0.097-0.216,0.171-0.318,0.263
		c-1.171,1.054-1.159,1.884,0.027,2.908c0.312,0.269,0.575,0.6,0.911,0.829c0.961,0.658,0.935,1.682,1.034,2.658
		c0.015,0.146-0.108,0.313-0.184,0.462c-0.506,0.986-1.124,1.889-1.978,2.612c-0.72,0.611-1.139,1.368-1.136,2.332
		c0.004,0.912,0.297,1.647,1.069,2.223c0.569,0.427,1.06,0.976,1.513,1.529c0.195,0.239,0.351,0.668,0.274,0.943
		c-0.259,0.945-0.443,1.947-1.307,2.611c-0.514,0.395-0.972,0.862-1.477,1.271c-0.671,0.544-0.773,1.445-0.1,2.015
		c0.632,0.532,1.176,1.118,1.686,1.764c0.773,0.98,0.704,2.049,0.441,3.14c-0.197,0.815-0.657,1.522-1.299,2.044
		c-0.438,0.356-1.012,0.544-1.562,0.826c-0.07,0.527,0.149,0.981,0.385,1.489c0.477,1.03,0.782,2.133,0.264,3.265
		c-0.312,0.68-0.518,1.47-1.004,1.998c-1.139,1.24-3.572,1.81-5.053-0.106c-0.292-0.379-0.381-0.955-0.45-1.456
		c-0.094-0.674-0.088-1.362-0.105-2.045c-0.025-1.012-0.293-1.39-1.292-1.518c-0.751-0.096-1.357-0.301-1.81-0.974
		c-0.403-0.601-0.498-1.223-0.582-1.921c-0.104-0.883,0.196-1.646,0.5-2.372c0.604-1.445-0.137-2.339-1.05-3.24
		c-0.533-0.526-1.085-1.047-1.538-1.64c-0.618-0.809-0.755-1.817-0.591-2.764c0.184-1.062,0.803-1.95,1.772-2.521
		c1.098-0.648,1.438-1.629,0.938-2.796c-0.062-0.144-0.2-0.261-0.321-0.371c-0.15-0.139-0.302-0.298-0.481-0.379
		c-1.398-0.629-1.685-1.858-1.569-3.174c0.099-1.128,0.512-2.197,1.37-3.022c0.148-0.144,0.291-0.292,0.438-0.438
		c1.183-1.181,1.242-2.701,0.132-3.945c-0.48-0.538-0.974-1.068-1.501-1.561c-0.905-0.844-0.762-2.835-0.168-3.758
		c0.41-0.636,0.933-1.217,1.237-1.898c0.48-1.079,0.755-2.678-0.269-3.657c-1.105-1.055-1.735-2.441-2.239-3.872
		c-0.051-0.143,0.004-0.329,0.027-0.491c0.215-1.471,0.963-2.607,2.165-3.462c0.195-0.139,0.371-0.308,0.545-0.474
		c0.612-0.593,0.75-1.173,0.258-1.832c-0.598-0.798-0.86-1.571-0.549-2.572c0.331-1.069,0.999-1.813,1.945-2.292
		c0.434-0.22,0.981-0.273,1.483-0.292c0.947-0.035,1.51-0.574,1.534-1.522c0.019-0.747,0.018-1.505,0.148-2.236
		c0.367-2.051,2.401-3.094,4.188-2.614c1.636,0.439,2.307,1.417,2.206,3.304c-0.046,0.881-0.226,1.758-0.385,2.629
		c-0.155,0.839-0.042,1.558,0.65,2.145c0.488,0.415,0.953,0.867,1.368,1.353c0.145,0.168,0.181,0.504,0.139,0.741
		c-0.169,0.976-0.316,1.954-0.857,2.835c-0.255,0.416-0.416,0.907-0.021,1.443c0.309,0.42,0.007,1.163-0.474,1.526
		c-0.567,0.429-0.81,0.422-1.436-0.106c-0.518-0.436-1.021-0.831-1.699-1.073c-0.746-0.265-1.36-0.079-1.821,0.338
		c-1.349,1.221-1.812,3.179-0.966,4.777c0.23,0.438,0.467,0.917,0.825,1.235c1.216,1.079,3.091,0.409,3.414-1.185
		c0.054-0.269,0.085-0.545,0.096-0.819c0.018-0.446,0.15-0.938,0.595-0.966c0.429-0.026,1.006,0.132,1.289,0.429
		c0.519,0.541,0.864,1.229,0.637,2.069c-0.223,0.825-0.251,1.704-0.726,2.458C56.491,38.344,56.493,38.531,56.443,38.748z"/>
</g>
</svg>
