<?xml version="1.0" encoding="utf-8"?>
<!-- Generator: Adobe Illustrator 16.0.0, SVG Export Plug-In . SVG Version: 6.00 Build 0)  -->
<!DOCTYPE svg PUBLIC "-//W3C//DTD SVG 1.0//EN" "http://www.w3.org/TR/2001/REC-SVG-20010904/DTD/svg10.dtd">
<svg version="1.0" id="Layer_1" xmlns="http://www.w3.org/2000/svg" xmlns:xlink="http://www.w3.org/1999/xlink" x="0px" y="0px"
	 width="100px" height="100px" viewBox="0 0 100 100" enable-background="new 0 0 100 100" xml:space="preserve">
<g>
	<path fill-rule="evenodd" clip-rule="evenodd" fill="#FFFFFF" d="M73.059,28.701c0.396-0.283,0.855-0.533,1.217-0.883
		c1.877-1.822,4.621-1.236,5.635,1.193c0.633,1.514,0.611,2.918-0.373,4.299c-0.652,0.914-0.527,1.252,0.482,1.754
		c1.404,0.695,2.469,1.684,3.014,3.201c0.332,0.928,0.303,1.799-0.207,2.619c-0.396,0.641-0.867,1.234-1.316,1.842
		c-0.756,1.018-0.766,2.227-0.176,3.35c0.496,0.943,0.932,1.936,1.244,2.953c0.404,1.311,0.105,1.967-1.016,2.773
		c-0.355,0.258-0.73,0.488-1.078,0.754c-0.945,0.721-1.086,1.691-0.445,2.703c0.299,0.471,0.562,0.918,1.094,1.207
		c1.422,0.775,1.707,1.686,0.67,3.527c-0.662,1.176-1.676,2.004-2.887,2.508c-0.217,0.924,0.154,1.547,0.723,2.107
		c0.771,0.758,1.502,1.557,1.875,2.594c0.113,0.316,0.166,0.695,0.111,1.021c-0.08,0.467-0.262,0.92-0.439,1.365
		c-0.771,1.943-3.562,3.094-5.51,2.334c-0.734-0.287-1.52-0.457-2.295-0.615c-1.01-0.205-1.289-0.016-1.822,0.889
		c-0.709,1.205-1.656,2.102-3.119,2.354c-0.514,0.088-0.949,0.055-1.354-0.254c-0.666-0.508-1.346-1.002-1.977-1.551
		c-1.234-1.074-2.52-0.92-3.77,0.066c-0.807,0.639-1.65,1.232-2.496,1.822c-0.188,0.129-0.473,0.26-0.67,0.213
		c-1.496-0.363-3.205-0.191-4.164-1.867c-0.568-0.994-1.428-1.02-2.283-0.203c-0.396,0.379-0.768,0.797-1.086,1.244
		c-1.594,2.232-4.221,2.475-6.112,1.213c-0.516-0.344-0.907-0.877-1.348-1.332C43.1,73.82,43.067,73.691,43,73.594
		c-1.1-1.58-2.112-1.719-3.554-0.461c-0.298,0.26-0.515,0.609-0.801,0.885c-0.687,0.66-1.333,1.385-2.104,1.93
		c-1.072,0.762-3.337,0.734-4.568-0.76c-0.38-0.461-0.823-0.867-1.229-1.307c-0.492-0.535-1.188-0.391-1.793-0.52
		c-0.167-0.035-0.428,0.186-0.589,0.346c-1.049,1.041-2.345,1.709-3.721,2.086c-1.812,0.496-3.625-0.207-3.887-2.365
		c-0.081-0.674-0.168-1.35-0.202-2.027c-0.037-0.709-0.345-1.166-0.982-1.51c-0.698-0.377-1.374-0.828-1.977-1.344
		c-0.908-0.775-0.966-1.902-0.905-2.975c0.037-0.654,0.281-1.332,0.569-1.932c0.552-1.15,1.21-2.248,1.805-3.377
		c0.591-1.121,0.439-1.799-0.553-2.59c-0.25-0.199-0.538-0.355-0.767-0.574c-0.573-0.549-0.857-1.172-0.729-2.025
		c0.168-1.123,0.664-2.02,1.462-2.789c0.229-0.221,0.435-0.469,0.646-0.707c0.9-1.014,0.921-1.406,0.059-2.492
		c-0.42-0.531-0.899-1.014-1.343-1.525c-1.081-1.252-0.929-2.777-0.021-3.971c0.592-0.775,1.409-1.379,2.114-2.07
		c0.283-0.277,0.57-0.561,0.795-0.885c0.64-0.918,0.434-1.492-0.58-1.947c-0.378-0.17-0.719-0.467-1.011-0.768
		c-0.214-0.223-0.344-0.537-0.47-0.828c-0.929-2.133-0.771-2.648,1.106-4.002c0.517-0.371,1.048-0.723,1.582-1.066
		c0.914-0.59,1.016-1.047,0.213-1.783c-0.779-0.715-1.166-1.594-1.438-2.568c-0.266-0.957,0.042-1.764,0.726-2.391
		c0.989-0.91,2.605-1.467,4.098-0.709c0.958,0.486,1.887,0.906,2.634,1.752c0.85,0.963,1.502,0.934,2.498,0.139
		c0.465-0.371,0.902-0.791,1.286-1.244c0.631-0.746,1.367-1.307,2.291-1.635c1.556-0.551,3.199-0.064,4.095,1.305
		c0.475,0.727,0.998,1.359,1.848,1.613c0.631,0.188,1.229,0.195,1.777-0.324c0.688-0.652,1.495-1.18,2.161-1.85
		c0.951-0.959,2.111-1.084,3.324-0.945c1.035,0.119,2.008,0.439,2.645,1.398c0.215,0.322,0.561,0.562,0.863,0.82
		c0.498,0.426,1.055,0.49,1.676,0.275C53.1,25.52,54,24.91,54.729,24.119c0.893-0.969,1.875-1.449,3.191-1.131
		c0.656,0.16,1.354,0.203,1.973,0.449c0.879,0.35,1.559,0.965,1.797,1.951c0.076,0.307,0.143,0.629,0.287,0.906
		c0.549,1.061,1.061,1.072,2.041,0.391c1.424-0.994,2.762-2.186,4.656-2.283c1.367-0.07,2.52,0.607,2.955,1.895
		C71.992,27.369,72.391,28.057,73.059,28.701z M22.455,71.598c0,0.508-0.019,0.828,0.003,1.146c0.092,1.375,0.874,1.855,2.109,1.229
		c1.057-0.535,2.151-1.008,3.014-1.893c0.293-0.301,0.871-0.508,1.292-0.469c1.631,0.15,3.097,0.729,4.168,2.053
		c1.23,1.52,1.992,1.279,3.279,0.162c0.93-0.807,1.797-1.682,2.713-2.506c1.347-1.211,2.645-1.271,4.127,0.039
		c0.675,0.6,1.261,1.311,1.821,2.021c0.613,0.777,2.109,1.234,2.894,0.723c0.52-0.34,0.945-0.826,1.396-1.264
		c0.682-0.662,1.32-1.375,2.039-1.992c0.277-0.236,0.721-0.342,1.102-0.379c1.299-0.133,2.301,0.383,3.107,1.422
		c0.926,1.193,2.314,1.451,3.332,0.703c0.508-0.373,1.045-0.725,1.484-1.172c1.211-1.23,2.602-1.385,4.186-0.91
		c0.701,0.211,1.355,0.408,1.84,1.01c0.246,0.307,0.596,0.529,0.91,0.777c0.797,0.627,1.709,0.49,2.242-0.357
		c0.23-0.371,0.383-0.789,0.594-1.172c0.545-0.992,1.65-1.658,2.523-1.455c1.125,0.264,2.252,0.541,3.344,0.914
		c1.703,0.58,3.291-0.129,3.777-1.859c0.127-0.451,0.039-1.053-0.168-1.482c-0.25-0.523-0.664-1.021-1.123-1.383
		c-0.836-0.66-1.07-1.58-1.244-2.514c-0.174-0.943,0.232-1.836,0.994-2.088c0.832-0.275,1.299-0.893,1.799-1.504
		c0.885-1.08,0.672-1.811-0.635-2.223c-0.111-0.037-0.24-0.025-0.354-0.059c-0.68-0.205-1.098-0.607-1.084-1.373
		c0.01-0.639-0.002-1.277-0.039-1.914c-0.07-1.217,0.498-2.035,1.518-2.633c1.979-1.162,1.52-1.508,1.025-3.111
		c-0.092-0.295-0.285-0.572-0.477-0.822c-1.059-1.371-1.08-2.832-0.521-4.414c0.303-0.854,0.762-1.576,1.355-2.221
		c0.596-0.648,0.648-1.34,0.291-2.098c-0.471-1.004-1.1-1.793-2.227-2.189c-1.619-0.566-2.016-1.836-1.164-3.338
		c0.1-0.172,0.236-0.326,0.316-0.506c0.471-1.031,0.572-2.1,0.041-3.117c-0.178-0.338-0.615-0.576-0.98-0.773
		c-0.416-0.227-0.715,0.008-1.018,0.344c-0.342,0.377-0.762,0.695-1.189,0.977c-1.596,1.061-2.889,1.135-3.824-0.566
		c-0.385-0.697-0.75-1.408-1.055-2.143c-0.412-0.996-0.635-1.117-1.715-0.812c-1.381,0.389-2.486,1.238-3.531,2.158
		c-0.57,0.502-1.158,0.641-1.871,0.525c-0.834-0.137-1.516-0.51-1.955-1.238c-0.328-0.543-0.668-1.094-0.896-1.682
		c-0.615-1.578-2.252-2.094-3.656-1.09c-0.842,0.604-1.605,1.332-2.5,1.836c-1.645,0.93-3.365,1.523-5.227-0.658
		c-0.18-0.211-0.387-0.402-0.598-0.582c-1.018-0.863-2.203-0.885-3.238-0.041c-0.429,0.35-0.872,0.701-1.224,1.123
		c-1.775,2.127-5.688,1.881-6.914-0.424c-0.857-1.611-2.059-1.664-3.429-0.471c-0.147,0.129-0.25,0.309-0.391,0.447
		c-0.536,0.535-1.037,1.117-1.63,1.582c-1.386,1.08-2.976,1.492-4.608-0.129c-0.567-0.562-1.11-1.148-1.691-1.695
		c-0.879-0.824-2.058-0.791-2.86,0.053c-0.7,0.736-0.56,1.564,0.354,2.494c0.472,0.48,0.921,1,1.285,1.564
		c0.619,0.955,0.306,2.182-0.662,2.766c-0.612,0.369-1.267,0.672-1.873,1.049c-1.618,1.008-1.824,2.189-0.03,3.221
		c0.104,0.061,0.216,0.104,0.324,0.154c0.62,0.289,0.964,0.82,1.214,1.422c0.559,1.344,0.009,2.42-0.895,3.357
		c-0.635,0.66-1.367,1.227-2.033,1.857c-1.182,1.123-1.176,2.049,0.029,3.09c0.544,0.471,0.993,0.988,1.342,1.627
		c0.639,1.172,0.868,2.277-0.398,3.682c-0.506,0.559-0.943,1.182-1.398,1.787c-0.848,1.127-0.785,1.467,0.335,2.32
		c0.399,0.305,0.839,0.615,1.11,1.021c0.854,1.283,0.646,2.525-0.177,3.789c-0.736,1.131-1.396,2.322-1.965,3.547
		c-0.353,0.76-0.478,1.678,0.153,2.375c0.441,0.488,1.022,0.922,1.626,1.176C21.933,69.062,22.611,70.146,22.455,71.598z"/>
	<path fill-rule="evenodd" clip-rule="evenodd" fill="#FFFFFF" d="M36.01,48.107c0.252,0.365,0.737,0.424,1.286,0.402
		c1.314-0.049,2.401,0.654,2.916,1.832c0.518,1.182,0.831,2.406,0.798,3.707c-0.081,3.146-0.126,6.295-0.257,9.438
		c-0.031,0.74-0.286,1.49-0.543,2.195c-0.541,1.486-1.812,2.049-3.234,2.307c-1.566,0.281-3.145,0.516-4.725,0.717
		c-0.585,0.074-1.192,0.023-1.785-0.029c-0.872-0.076-1.741-0.193-2.608-0.316c-0.899-0.127-1.595-0.484-1.698-1.529
		c-0.026-0.262-0.198-0.51-0.122-0.742c0.151-0.762,0.421-1.52,0.436-2.285c0.066-3.549,0.05-7.1,0.09-10.648
		c0.016-1.436,0.187-2.873,0.134-4.305c-0.084-2.264,0.129-4.514,0.257-6.764c0.14-2.461,0.508-4.908,0.804-7.359
		c0.061-0.506,0.351-0.893,0.929-0.936c1.548-0.111,3.098-0.324,4.644-0.299c0.924,0.016,1.925,0.244,2.743,0.664
		c1.038,0.531,1.37,1.662,1.354,2.773c-0.034,2.27-0.308,4.52-0.736,6.752c-0.143,0.742-0.183,1.502-0.296,2.252
		C36.292,46.621,36.154,47.303,36.01,48.107z M28.513,50.145c-0.07,1.691-0.178,3.316-0.195,4.943
		c-0.021,2.109,0.076,4.221,0.035,6.33c-0.033,1.701-0.213,3.4,0.256,5.092c1.756,0.475,3.492,0.924,5.297,0.299
		c0.146-0.051,0.316-0.023,0.471-0.055c0.972-0.193,1.955-0.342,2.908-0.604c0.857-0.236,1.282-0.982,1.448-1.77
		c0.187-0.887,0.216-1.811,0.252-2.719c0.039-0.955,0.029-1.912-0.001-2.867c-0.062-2.029-0.097-4.062-0.248-6.086
		c-0.138-1.846-0.575-2.229-2.432-2.449c-0.554-0.064-1.125-0.002-1.67-0.1C32.607,49.799,30.593,50.021,28.513,50.145z
		 M28.595,47.986c1.309,0.115,2.488,0.064,3.681-0.385c1.337-0.504,1.876-1.084,1.982-2.467c0.021-0.275,0.094-0.545,0.145-0.818
		c0.446-2.35,0.97-4.688,0.848-7.109c-0.063-1.27-0.373-1.732-1.662-1.822c-1.388-0.096-2.789-0.119-4.236,0.326
		C28.948,39.727,28.391,43.73,28.595,47.986z"/>
	<path fill-rule="evenodd" clip-rule="evenodd" fill="#FFFFFF" d="M70.244,50.412c0,0.518-0.047,0.955,0.008,1.381
		c0.361,2.838,0.744,5.674,1.123,8.51c0.178,1.336,0.359,2.67,0.543,4.006c0.088,0.641-0.129,1.062-0.645,1.236
		c-0.561,0.189-0.922-0.119-1.203-0.533c-0.217-0.32-0.375-0.682-0.605-1.109c0.551-0.666,0.395-1.549,0.293-2.404
		c-0.32-2.682-0.656-5.363-1.016-8.041c-0.178-1.33-0.125-2.682-0.576-3.994c-0.219-0.631-0.02-1.4-0.037-2.107
		c-0.098-3.818-0.205-7.639-0.301-11.459c-0.008-0.273-0.004-0.572,0.098-0.818c0.174-0.42,0.564-0.684,0.949-0.354
		c0.676,0.576,1.422,0.369,2.158,0.352c0.553-0.014,1.104-0.082,1.656-0.088c1.098-0.012,1.631,0.426,1.779,1.508
		c0.355,2.615,0.328,5.24,0.076,7.861c-0.115,1.189-0.301,2.373-0.494,3.553c-0.32,1.959-1.123,2.594-3.088,2.504
		C70.764,50.404,70.564,50.412,70.244,50.412z M69.992,48.428c1.559,0.271,1.668,0.252,2.033-1.012
		c0.275-0.951,0.498-1.934,0.586-2.918c0.15-1.662,0.264-3.338,0.24-5.006c-0.043-2.977,0.15-3.135-3.072-2.797
		c-0.07,0.006-0.131,0.082-0.363,0.24C69.543,40.68,69.568,44.533,69.992,48.428z"/>
	<path fill-rule="evenodd" clip-rule="evenodd" fill="#FFFFFF" d="M50.68,36.248c-0.719,0.307-1.332,0.352-2.039,0.158
		c-0.877-0.238-1.809-0.285-2.723-0.367c-0.545-0.051-1.097-0.01-1.762-0.01c0.401,4.025,0.794,7.953,1.194,11.957
		c0.65-0.117,1.395-0.191,2.102-0.398c0.566-0.166,1.031-0.137,1.42,0.293c0.387,0.426,0.207,0.879-0.002,1.389
		c-1.197,0-2.377,0-3.646,0c0,0.381-0.025,0.688,0.004,0.99c0.23,2.383,0.461,4.764,0.713,7.143c0.193,1.822,0.35,3.652,0.65,5.455
		c0.176,1.049,0.469,1.156,1.506,1.006c0.867-0.125,1.729-0.285,2.594-0.418c0.834-0.127,1.275,0.111,1.391,0.729
		c0.104,0.549-0.293,1.246-0.951,1.312c-1.582,0.16-3.176,0.266-4.764,0.25c-0.859-0.008-1.448-0.801-1.539-1.697
		c-0.248-2.455-0.547-4.906-0.732-7.365c-0.307-4.053-0.521-8.111-0.813-12.164c-0.135-1.869-0.351-3.732-0.552-5.596
		c-0.103-0.949-0.267-1.891-0.381-2.84c-0.114-0.955,0.491-1.619,1.461-1.613c1.712,0.01,3.425,0.014,5.138,0.055
		C50.324,34.549,50.506,34.75,50.68,36.248z"/>
	<path fill-rule="evenodd" clip-rule="evenodd" fill="#FFFFFF" d="M62.965,63.27c0.084,0.275,0.188,0.611,0.279,0.912
		c-0.387,0.758-1.004,1.064-1.764,1.131c-1.064,0.09-2.131,0.219-3.197,0.246c-0.92,0.025-1.559-0.514-1.768-1.414
		c-0.117-0.496-0.16-1.012-0.203-1.521c-0.246-2.932-0.484-5.861-0.719-8.793c-0.09-1.109-0.24-2.221-0.23-3.33
		c0.035-4.07,0.131-8.139,0.193-12.207c0.014-0.877-0.059-1.758-0.012-2.633c0.057-1.039,0.367-1.182,1.285-0.744
		c0.266,0.127,0.586,0.232,0.871,0.211c0.951-0.066,1.896-0.26,2.846-0.273c0.516-0.008,1.076,0.174,1.533,0.422
		c0.24,0.131,0.486,0.674,0.395,0.885c-0.125,0.293-0.559,0.611-0.877,0.631c-0.912,0.053-1.832-0.047-2.75-0.07
		c-0.58-0.016-1.162-0.004-1.781-0.004c0,4.035,0,7.891,0,11.928c0.539-0.104,0.904-0.186,1.273-0.246
		c0.547-0.088,1.096-0.229,1.645-0.225c0.617,0.006,0.969,0.389,0.947,0.855c-0.021,0.494-0.5,0.955-1.07,0.895
		c-0.893-0.098-1.736,0.016-2.604,0.33c0,0.699-0.047,1.375,0.008,2.041c0.252,3.018,0.504,6.035,0.814,9.049
		c0.248,2.4,0.805,2.727,3.227,2.029C61.834,63.223,62.332,62.861,62.965,63.27z"/>
</g>
</svg>
