<?xml version="1.0" encoding="utf-8"?>
<!-- Generator: Adobe Illustrator 16.0.0, SVG Export Plug-In . SVG Version: 6.00 Build 0)  -->
<!DOCTYPE svg PUBLIC "-//W3C//DTD SVG 1.0//EN" "http://www.w3.org/TR/2001/REC-SVG-20010904/DTD/svg10.dtd">
<svg version="1.0" id="Layer_1" xmlns="http://www.w3.org/2000/svg" xmlns:xlink="http://www.w3.org/1999/xlink" x="0px" y="0px"
	 width="100px" height="100px" viewBox="0 0 100 100" enable-background="new 0 0 100 100" xml:space="preserve">
<g>
	<path fill-rule="evenodd" clip-rule="evenodd" fill="#FFFFFF" d="M46.305,55.795c-0.108,1.01-0.234,1.926-0.299,2.844
		c-0.114,1.629-1.49,2.186-2.729,2.107c-0.451-0.027-0.909-0.068-1.353-0.014c-0.194,0.025-0.426,0.246-0.523,0.438
		c-0.498,0.973-0.291,1.836,0.587,2.523c0.47,0.365,0.762,0.795,0.71,1.42c-0.018,0.213,0.024,0.434,0.066,0.645
		c0.219,1.113-0.092,1.801-1.085,2.355c-0.108,0.061-0.229,0.1-0.334,0.162c-0.542,0.314-0.696,0.699-0.365,1.225
		c0.326,0.518,0.719,1.012,1.159,1.434c0.618,0.594,0.767,1.348,0.786,2.111c0.018,0.762-0.687,1.131-1.165,1.584
		c-0.308,0.291-0.72,0.477-1.098,0.688c-0.807,0.449-0.997,1.133-0.52,1.922c0.778,1.283,0.353,3.484-0.765,4.506
		c-1.063,0.969-2.369,1.252-3.692,1.535c-0.151,0.031-0.312,0.016-0.462,0.043c-0.64,0.117-0.735,0.342-0.372,0.855
		c0.598,0.844,0.564,1.264-0.208,1.887c-0.479,0.387-0.949,0.893-1.506,1.049c-0.782,0.223-1.641,0.297-2.467,0.023
		c-1.271-0.416-2.271,0.164-2.528,1.465c-0.03,0.146,0.013,0.344-0.068,0.443c-0.632,0.773-1.378,1.504-2.363,1.668
		c-1.026,0.172-2.087,0.061-3.005-0.617c-0.72-0.533-1.514-0.969-2.233-1.502c-0.429-0.316-0.775-0.396-1.255-0.104
		c-2.049,1.252-4.599,0.311-5.848-1.186c-0.213-0.254-0.388-0.566-0.487-0.883c-0.157-0.496-0.278-1.014-0.338-1.529
		c-0.156-1.336-0.936-2.176-2.071-2.768c-0.384-0.201-0.739-0.459-1.133-0.637c-1.262-0.572-1.613-1.629-1.555-2.891
		c0.043-0.936,0.275-1.826,0.815-2.613c0.087-0.127,0.16-0.266,0.225-0.406c0.512-1.107,0.327-1.471-0.868-1.725
		c-0.971-0.205-1.559-0.721-1.527-1.463c0.03-0.65,0.232-1.299,0.729-1.752c0.812-0.74,1.565-1.553,2.615-2.014
		c0.798-0.352,0.808-0.537,0.461-1.393c-0.446-1.105-0.049-2.514,0.911-3.225c0.075-0.055,0.148-0.137,0.232-0.15
		c0.871-0.15,1.72-0.389,2.632-0.086c1.07,0.354,1.359,1.256,1.714,2.137c0.066,0.162,0.093,0.338,0.141,0.521
		c0.48,0.006,0.599-0.361,0.794-0.609c0.942-1.203,2.435-1.299,3.509-0.213c0.088,0.088,0.165,0.186,0.258,0.266
		c0.771,0.662,0.918,1.508,0.666,2.432c-0.236,0.871-0.228,1.686,0.247,2.484c0.132,0.223,0.127,0.529,0.185,0.797
		c0.396,0.143,0.6-0.129,0.82-0.324c0.814-0.713,1.729-0.771,2.688-0.391c0.486,0.193,0.945,0.461,1.409,0.709
		c0.296,0.156,0.544,0.123,0.719-0.164c0.446-0.73,0.751-1.461,0.351-2.354c-0.249-0.553-0.373-1.172-0.482-1.775
		c-0.083-0.465,0.027-0.918,0.4-1.275c0.178-0.17,0.313-0.385,0.463-0.582c0.78-1.02,0.585-2.266-0.588-2.809
		c-1.475-0.68-2.2-3.287-0.819-4.67c0.217-0.217,0.411-0.467,0.566-0.732c0.197-0.336,0.186-0.668-0.019-1.043
		c-0.319-0.592-0.69-1.211-0.772-1.854c-0.062-0.482,0.157-1.145,0.491-1.504c0.752-0.807,1.613-1.492,2.818-1.645
		c1.199-0.154,1.511-0.84,1.295-2.068c-0.126-0.718-0.165-1.497-0.022-2.205c0.181-0.894,0.956-1.437,1.7-1.863
		c1.168-0.671,2.346-0.474,3.499,0.156c1.012,0.552,1.03,0.53,1.656-0.44c0.434-0.672,0.821-1.331,1.597-1.745
		c1.356-0.726,2.563-0.356,3.777,0.267c0.296,0.152,0.54,0.408,0.844,0.645c0.588-0.29,1.01-0.688,1.38-1.246
		c0.703-1.057,1.677-1.779,3.024-1.829c0.747-0.028,1.303,0.302,1.728,0.896c0.233,0.327,0.463,0.66,0.727,0.963
		c0.2,0.229,0.427,0.453,0.683,0.613c0.652,0.406,1.124,0.354,1.486-0.308c0.43-0.781,1.051-0.958,1.85-0.924
		c1.187,0.049,2.24,0.367,3.028,1.322c0.135,0.164,0.302,0.308,0.474,0.435c0.688,0.503,1.506,0.29,1.795-0.491
		c0.223-0.606,0.435-1.225,0.562-1.854c0.104-0.515,0.286-0.895,0.727-1.22c0.781-0.579,0.795-1.007,0.17-1.773
		c-0.371-0.456-0.741-0.915-1.144-1.343c-0.644-0.686-0.854-1.474-0.684-2.388c0.051-0.271,0.067-0.554,0.054-0.831
		c-0.023-0.48-0.188-0.881-0.627-1.169c-0.358-0.236-0.67-0.547-0.991-0.837c-0.863-0.779-0.982-1.217-0.549-2.285
		c0.17-0.422,0.422-0.813,0.663-1.202c0.485-0.782,0.713-1.505,0.075-2.378c-0.775-1.065-0.522-2.604,0.447-3.503
		c0.602-0.558,1.294-0.933,2.115-1.09c0.542-0.104,1.077-0.277,1.596-0.469c0.172-0.064,0.345-0.263,0.409-0.438
		c0.136-0.373,0.237-0.766,0.286-1.158c0.079-0.641,0.276-1.232,0.798-1.616c0.491-0.362,1.006-0.64,1.715-0.478
		c0.619,0.141,1.293,0.051,1.942,0.058c0.961,0.01,1.23-0.221,1.154-1.212c-0.062-0.8,0.275-1.375,0.903-1.681
		c0.593-0.289,1.271-0.405,1.984-0.234c0.793,0.191,1.6,0.407,2.439,0.076c0.399-0.158,0.677-0.332,0.868-0.743
		c0.259-0.552,0.623-1.056,0.91-1.53c0.633,0.012,1.184,0.004,1.73,0.042c0.204,0.014,0.405,0.127,0.603,0.208
		c0.541,0.221,1.101,0.411,1.615,0.687c0.661,0.354,1.254,0.123,1.862-0.103c0.344-0.128,0.669-0.326,1.022-0.404
		c0.586-0.128,1.132-0.059,1.642,0.361c0.771,0.632,1.458,1.331,2.006,2.158c0.483,0.729,1.06,1.011,1.961,0.754
		c1.829-0.521,3.918,0.543,4.605,2.602c0.271,0.811,0.077,1.653-0.3,2.428c-0.054,0.109-0.153,0.195-0.22,0.299
		c-0.717,1.123-0.708,1.169,0.093,2.247c0.646,0.869,0.532,1.854,0.125,2.716c-0.318,0.673-0.887,1.269-1.458,1.768
		c-0.447,0.391-1.031,0.657-1.697,0.233c-0.401-0.254-0.761,0.09-1.06,0.341c-0.28,0.235-0.474,0.595-0.778,0.778
		c-0.437,0.265-0.927,0.553-1.415,0.594c-0.816,0.068-1.12-0.693-1.43-1.264c-0.305-0.559-0.443-1.209-0.65-1.82
		c-0.281-0.834-0.828-0.977-1.446-0.336c-0.297,0.308-0.492,0.709-0.769,1.04c-0.685,0.818-1.817,0.755-2.419-0.119
		c-0.332-0.481-0.678-0.955-0.986-1.451c-0.216-0.349-0.556-0.423-0.876-0.357c-0.175,0.037-0.363,0.312-0.426,0.516
		c-0.105,0.345-0.169,0.722-0.16,1.083c0.041,1.574-0.76,2.366-2.319,2.287c-0.737-0.037-1.482-0.073-2.217-0.015
		c-0.64,0.052-0.857,0.427-0.649,1.039c0.128,0.375,0.335,0.734,0.564,1.061c0.709,1.008,0.617,2.969-0.694,3.665
		c-0.137,0.073-0.271,0.155-0.39,0.252c-0.51,0.42-0.681,1.051-0.362,1.647c0.418,0.782,0.938,1.511,1.345,2.297
		c0.309,0.597,0.635,1.23,0.729,1.879c0.21,1.441-0.509,2.385-1.823,2.966c-1.018,0.449-1.124,0.835-0.656,1.867
		c0.253,0.562,0.539,1.109,0.799,1.67c0.234,0.507,0.236,1.036-0.007,1.528c-0.313,0.633-0.653,1.256-1.033,1.852
		c-0.29,0.453-0.803,0.545-1.303,0.598c-0.46,0.047-0.926,0.051-1.384,0.115c-0.62,0.086-0.838,0.395-0.786,1.021
		c0.023,0.275,0.062,0.555,0.043,0.828c-0.054,0.715-0.412,1.096-1.109,1.23c-1.014,0.201-2.026,0.402-2.989,0.594
		c-0.229,0.551-0.37,0.998-0.592,1.398c-0.799,1.43-1.79,2.236-3.468,1.912c-1.028-0.197-1.766-0.654-2.324-1.496
		c-0.69-1.041-1.559-1.203-2.582-0.539c-0.879,0.57-1.847,0.855-2.887,0.598c-0.371-0.09-0.713-0.34-1.041-0.559
		c-0.881-0.586-1.778-1.125-2.889-1.082C46.801,55.676,46.541,55.754,46.305,55.795z M61.217,55.441l-0.004,0.043
		c0.194-0.242,0.393-0.479,0.579-0.725c0.39-0.514,0.77-1.037,1.158-1.553c0.27-0.355,0.641-0.449,0.964-0.15
		c0.487,0.453,0.95,0.234,1.466,0.123c0.006-0.207,0.04-0.363,0.01-0.51c-0.164-0.795,0.184-1.334,0.77-1.846
		c0.562-0.49,1.166-0.609,1.875-0.613c1.492-0.01,2.238-1.076,1.747-2.484c-0.217-0.622-0.526-1.214-0.82-1.806
		c-0.501-1.011-0.127-1.887,0.487-2.65c0.268-0.332,0.779-0.47,1.184-0.689c1.019-0.554,1.189-0.994,0.652-2.024
		c-0.414-0.791-0.918-1.533-1.383-2.296c-0.689-1.136-0.882-2.306-0.131-3.474c0.242-0.378,0.638-0.662,0.977-0.974
		c0.675-0.622,0.748-0.998,0.305-1.785c-0.136-0.242-0.303-0.466-0.448-0.703c-0.682-1.105-0.164-2.227,0.467-2.99
		c0.322-0.39,0.81-0.596,1.41-0.557c0.676,0.044,1.364-0.093,1.942-0.143c-0.238-0.521-0.504-0.965-0.641-1.445
		c-0.098-0.344-0.056-0.765,0.338-0.973c0.356-0.189,0.809-0.009,1.123,0.411c0.118,0.159,0.213,0.335,0.401,0.635
		c0.133-0.444,0.242-0.73,0.302-1.027c0.13-0.644,0.521-1.016,1.131-1.215c0.914-0.297,1.973,0.054,2.525,0.864
		c0.261,0.383,0.505,0.778,0.782,1.147c0.349,0.463,0.604,0.446,0.915-0.03c0.168-0.258,0.308-0.538,0.5-0.775
		c0.477-0.583,1.147-0.686,1.848-0.681c0.576,0.004,0.813,0.427,1.135,0.826c0.542,0.671,0.855,1.421,1.062,2.235
		c0.09,0.353,0.241,0.625,0.683,0.704c0.302-0.231,0.627-0.464,0.935-0.718c0.562-0.463,1.16-0.671,1.894-0.438
		c0.244,0.078,0.628,0.116,0.791-0.018c0.517-0.425,1.038-0.888,1.405-1.438c0.302-0.449,0.408-1.039,0.006-1.567
		c-1.225-1.61-1.259-2.119-0.177-3.564c1.137-1.519,0.058-2.942-1.293-3.313c-0.578-0.159-1.138-0.186-1.731-0.022
		c-1.09,0.299-2.28-0.255-2.93-1.227c-0.46-0.689-0.902-1.404-1.639-1.869c-0.668-0.421-0.67-0.459-1.292,0.017
		c-0.739,0.567-1.526,0.73-2.41,0.419c-0.667-0.236-1.351-0.435-2.003-0.706c-1.019-0.423-1.382-0.276-1.868,0.676
		c-0.259,0.505-0.663,0.935-1.065,1.486c0.008,0.057,0.123,0.295,0.058,0.463c-0.104,0.266-0.284,0.592-0.518,0.689
		c-0.178,0.074-0.536-0.111-0.726-0.281c-0.215-0.194-0.332-0.5-0.491-0.758c-0.454-0.079-0.919-0.123-1.361-0.243
		c-1.359-0.371-1.725-0.178-1.885,1.228c-0.123,1.068-0.786,1.855-2.238,1.825c-0.618-0.014-1.236-0.066-1.854-0.088
		c-1.215-0.043-1.355,0.104-1.457,1.32c-0.124,1.475-1.038,2.46-2.475,2.652c-0.719,0.097-1.441,0.351-2.098,0.667
		c-0.682,0.329-0.827,1.065-0.475,1.75c0.085,0.164,0.22,0.3,0.32,0.456c0.616,0.944,0.577,2.266-0.074,3.206
		c-0.211,0.305-0.432,0.614-0.575,0.952c-0.257,0.601-0.077,1.273,0.483,1.476c0.61,0.221,0.904,0.715,1.278,1.141
		c0.578,0.659,0.701,1.457,0.365,2.25c-0.306,0.722-0.149,1.234,0.432,1.711c0.682,0.561,1.142,1.282,1.479,2.102
		c0.39,0.944,0.398,1.823-0.369,2.556c-0.745,0.71-1.078,1.585-1.317,2.555c-0.244,0.986-0.886,1.704-1.888,1.971
		c-1.021,0.271-1.97,0.156-2.626-0.833c-0.152-0.229-0.375-0.411-0.566-0.613c-0.403-0.423-0.897-0.632-1.479-0.687
		c-0.484-0.045-0.81,0.037-1.009,0.565c-0.12,0.318-0.416,0.698-0.714,0.796c-0.692,0.227-1.43,0.423-2.146-0.021
		c-0.715-0.442-1.371-0.938-1.814-1.676c-0.7-1.168-0.99-1.239-2.113-0.478c-0.276,0.186-0.509,0.446-0.732,0.697
		c-0.409,0.458-0.764,0.967-1.199,1.396c-0.909,0.899-1.716,0.905-2.646,0.038c-0.389-0.361-0.771-0.573-1.331-0.434
		c-0.279,0.07-0.608,0.014-0.898-0.054c-0.493-0.116-0.828,0.022-1.081,0.464c-0.292,0.509-0.587,1.025-0.948,1.484
		c-0.259,0.328-0.625,0.786-0.955,0.796c-0.641,0.021-1.324,0.056-1.933-0.424c-1.058-0.836-1.91-0.725-2.894,0.182
		c-0.405,0.372-0.568,0.772-0.441,1.32c0.118,0.511,0.173,1.035,0.258,1.554c0.196,1.194-0.393,1.963-1.396,2.452
		c-0.857,0.418-1.755,0.746-2.625,1.139c-0.635,0.285-0.809,0.719-0.534,1.352c0.194,0.445,0.456,0.861,0.691,1.297
		c0.744-0.551,1.215-0.543,1.646-0.012c0.286,0.352,0.233,0.609-0.271,1.129c-0.388-0.186-0.798-0.381-1.204-0.576
		c0.095,1.068,0.017,1.309-0.672,2.078c-0.145,0.162-0.296,0.322-0.411,0.502c-0.568,0.891-0.426,1.723,0.412,2.117
		c0.623,0.293,0.97,0.809,1.298,1.385c0.724,1.275,0.791,2.504-0.119,3.715c-0.092,0.123-0.174,0.258-0.285,0.363
		c-0.52,0.502-0.588,1.02-0.202,1.66c0.335,0.557,0.558,1.178,0.418,1.861c-0.069,0.336,0.015,0.592,0.33,0.787
		c0.33,0.207,0.441,0.594,0.265,0.893c-0.151,0.256-0.505,0.543-0.772,0.547c-0.467,0.004-0.728,0.191-1.019,0.504
		c-0.571,0.613-0.852,0.639-1.635,0.262c-0.667-0.32-1.337-0.633-1.993-0.973c-0.453-0.236-0.835-0.164-1.173,0.191
		c-0.15,0.154-0.267,0.34-0.409,0.504c-0.519,0.588-0.805,0.646-1.556,0.389c-0.654-0.225-1.037-0.635-1.08-1.348
		c-0.035-0.584-0.113-1.135-0.417-1.684c-0.199-0.359-0.126-0.895-0.096-1.348c0.021-0.33,0.195-0.65,0.259-0.984
		c0.16-0.83-0.381-1.613-1.163-1.705c-0.65-0.076-1.069,0.295-1.32,0.814c-0.272,0.564-0.72,0.832-1.279,0.975
		c-0.677,0.172-1.037-0.035-1.276-0.709c-0.166-0.465-0.3-0.943-0.501-1.393c-0.31-0.697-1.191-1.094-1.928-0.914
		c-0.726,0.178-1.162,0.926-0.951,1.65c0.095,0.322,0.208,0.639,0.257,0.787c0.515,0.375,0.929,0.625,1.279,0.945
		c0.363,0.332,0.664,0.73,1.056,1.172c-0.954,0.541-1.48-0.35-2.178-0.371c-0.437,0.297-0.874,0.594-1.347,0.916
		c0.243,0.49,0.41,0.926,0.66,1.307c0.269,0.412,0.15,0.668-0.182,0.936c-0.772-0.301-1.128-0.963-1.569-1.602
		c-0.79,0.314-1.375,0.768-1.601,1.709c0.496,0.062,1.074-0.041,1.304,0.195c0.708,0.723,1.545,0.402,2.333,0.482
		c0.153,0.014,0.329-0.043,0.46,0.012c0.195,0.082,0.359,0.234,0.569,0.379c-0.552,0.658-1.235,0.754-1.924,0.924
		c0.08,1-0.261,1.828-0.816,2.613c-0.239,0.338-0.353,0.793-0.434,1.213c-0.232,1.227,0.239,1.98,1.435,2.408
		c0.228,0.08,0.484,0.146,0.657,0.301c0.76,0.658,1.495,1.346,2.304,2.084c0.354-0.17,0.715-0.033,1.007,0.381
		c0.1,0.139,0.278,0.227,0.425,0.33c0.289,0.199,0.581,0.395,0.927,0.629c0.188-0.016,0.458-0.037,0.81-0.066
		c0.082,0.42,0.155,0.799,0.223,1.146c-0.441,0.408-0.794,0.523-1.282,0.154c-0.455-0.342-1.067-0.471-1.359-1.043
		c-0.032-0.064-0.225-0.045-0.417-0.076c-0.025,0.906,0.102,1.703,0.848,2.26c1.024,0.764,2.114,1.064,3.356,0.484
		c1.081-0.502,2.139-0.527,3.11,0.318c0.262,0.227,0.6,0.365,0.971,0.582c0.029-0.383,0.023-0.629,0.07-0.863
		c0.064-0.312,0.284-0.494,0.604-0.457c0.343,0.037,0.402,0.314,0.447,0.611c0.086,0.561-0.442,0.592-0.816,0.938
		c0.384,0.262,0.713,0.523,1.074,0.729c1.317,0.746,2.836,0.135,3.256-1.295c0.488-1.658,2.147-2.604,3.748-2.041
		c1.167,0.41,2.094,0.127,2.981-0.68c-0.176-0.381-0.343-0.742-0.51-1.105c-0.201-0.439-0.125-0.744,0.246-1.135
		c0.759-0.797,1.739-0.881,2.693-0.994c1.39-0.162,2.35-0.834,2.955-2.074c0.323-0.658,0.3-1.232-0.075-1.916
		c-0.679-1.234-0.503-3.104,1.064-3.688c0.479-0.182,0.897-0.543,1.314-0.857c0.346-0.264,0.393-0.646,0.151-0.994
		c-0.28-0.404-0.568-0.828-0.944-1.131c-0.713-0.576-0.954-1.346-1.075-2.184c-0.109-0.766,0.223-1.303,0.88-1.682
		c0.445-0.258,0.867-0.555,1.263-0.811c-0.063-0.299-0.15-0.482-0.134-0.656c0.109-1.137-0.984-1.469-1.471-2.205
		c-0.037-0.057-0.228,0.01-0.331-0.027c-0.243-0.088-0.663-0.184-0.675-0.311c-0.03-0.299,0.049-0.807,0.238-0.895
		c0.642-0.293,0.671-0.889,0.775-1.393c0.246-1.188,1.117-1.605,2.113-1.922l-0.03-0.002c0.453,0.072,0.909,0.213,1.361,0.201
		c0.792-0.018,1.04-0.234,1.187-1.027c0.124-0.664,0.211-1.346,0.205-2.02c-0.014-1.518,1.559-2.535,2.996-1.977
		c1.009,0.393,1.992,0.824,2.901,1.4c0.644,0.408,1.216,0.262,1.841-0.006c0.617-0.264,1.245-0.527,1.895-0.684
		c1.256-0.303,2.141,0.09,2.793,1.219c0.262,0.453,0.611,0.74,1.069,0.955C59.717,57.74,61.149,56.854,61.217,55.441z"/>
	<path fill-rule="evenodd" clip-rule="evenodd" fill="#FFFFFF" d="M62.161,46.711c0.057-0.072,0.114-0.145,0.172-0.217
		c0.558-0.698,0.546-0.86-0.11-1.43c-0.109-0.096-0.228-0.181-0.334-0.265c-0.976,0.775-0.947,1.223,0.066,1.756
		c0.081,0.043,0.154,0.103,0.23,0.154c-0.438,0.063-0.52,0.365-0.507,0.74c0.013,0.414,0.313,0.567,0.627,0.709
		c0.445,0.201,0.873,0.084,1.021-0.271c0.18-0.428-0.073-0.954-0.531-1.072C62.59,46.762,62.373,46.746,62.161,46.711z
		 M11.903,77.361c0.17-0.441,0.376-0.875,0.49-1.332c0.036-0.143-0.153-0.469-0.285-0.496c-0.31-0.064-0.666-0.055-0.961,0.045
		c-0.102,0.035-0.189,0.49-0.099,0.645c0.24,0.412,0.582,0.764,0.882,1.139c-0.178,0.045-0.373,0.057-0.529,0.141
		c-0.424,0.227-0.459,0.43-0.2,0.912c0.212,0.391,0.392,0.43,0.822,0.201c0.427-0.227,0.879-0.418,1.287-0.674
		c0.145-0.092,0.197-0.33,0.292-0.502c-0.175-0.074-0.352-0.217-0.525-0.213C12.684,77.232,12.294,77.311,11.903,77.361z
		 M87.319,21.259c0.54,0.713,1.025,0.792,2.034,0.371c0.608-0.253,0.967-1.273,0.781-2.217c1.064-0.131,1.12-0.195,0.958-1.121
		c-0.709-0.106-0.709-0.106-1.323,0.975C88.757,19.459,88.254,19.864,87.319,21.259z M13.963,72.334
		c0.05-0.027,0.103-0.055,0.155-0.082c0.168,0.115,0.324,0.26,0.507,0.34c0.291,0.127,0.899-0.062,0.96-0.344
		c0.048-0.23-0.004-0.617-0.16-0.732c-0.552-0.406-1.168-0.725-1.746-1.068c-0.38,0.434-0.647,0.795-0.5,1.322
		c0.027,0.096-0.07,0.287-0.164,0.348c-0.415,0.27-0.31,0.648-0.209,0.996c0.114,0.391,0.429,0.582,0.834,0.627
		c0.451,0.049,0.65-0.141,0.562-0.58C14.145,72.881,14.044,72.609,13.963,72.334z M56.666,52.551
		c0.166,0.146,0.259,0.221,0.344,0.305c0.418,0.416,0.939,0.467,1.27,0.117c0.32-0.338,0.294-0.855-0.072-1.252
		c-0.238-0.262-0.51-0.408-0.898-0.369c-0.614,0.062-1.169,0.365-1.808,0.369c-0.45,0-0.585,0.479-0.562,0.83
		c0.018,0.252,0.254,0.547,0.476,0.711c0.168,0.123,0.468,0.068,0.728,0.096C56.306,53.107,56.453,52.879,56.666,52.551z
		 M50.944,54.344c0.465,0.502,1.348,0.482,1.94,0.033c0.455-0.344,0.25-1.209-0.418-1.947c-0.383-0.426-0.949-0.322-1.603,0.275
		C50.41,53.119,50.441,53.805,50.944,54.344z M35.014,65.244c-0.282-0.336-0.535-0.684-0.839-0.984
		c-0.194-0.191-0.461-0.334-0.742-0.109c-0.398,0.318-0.134,1.09-0.828,1.219c-0.035,0.006-0.057,0.168-0.057,0.258
		c0.001,0.184-0.033,0.396,0.048,0.541c0.097,0.174,0.284,0.377,0.456,0.4c0.16,0.023,0.42-0.129,0.511-0.281
		c0.144-0.236,0.184-0.539,0.27-0.816c0.202,0.068,0.403,0.143,0.606,0.207c0.202,0.062,0.408,0.117,0.54,0.154
		c0.23,0.381,0.395,0.717,0.626,0.998c0.087,0.107,0.341,0.137,0.496,0.104c0.095-0.02,0.193-0.225,0.213-0.357
		C36.433,65.783,35.979,65.33,35.014,65.244z M82.301,19.716c-1.192,0.229-1.4,0.402-1.359,1.126
		c0.035,0.613,0.213,0.789,0.854,0.845c0.688,0.06,0.848-0.101,1.131-1.153c0.445-0.184,1.08-0.197,1.019-0.939
		c-0.035-0.414-0.267-0.729-0.668-0.782C82.639,18.73,82.506,19.287,82.301,19.716z M44.421,55.625
		c-0.061-1.756-0.802-2.258-2.047-1.492c-0.388,0.24-0.729,0.533-0.672,1.014c0.062,0.521,0.511,0.711,0.958,0.879
		C43.336,56.279,43.819,55.805,44.421,55.625z M39.633,49.226c0.45,0.423,1.483,0.532,1.792,0.188
		c0.421-0.466,0.444-1.322,0.045-1.67c-0.541-0.473-1.531-0.574-1.866-0.189C39.168,48.055,39.181,48.802,39.633,49.226z
		 M63.349,44.534c0.196,0.466,0.305,0.923,0.557,1.278c0.44,0.62,1.527,0.552,1.893-0.064c0.314-0.533,0.265-0.932-0.174-1.423
		c-0.395-0.444-0.953-0.567-1.507-0.303C63.899,44.126,63.709,44.291,63.349,44.534z M38.959,56.688
		c-0.184-0.131-0.316-0.203-0.424-0.303c-0.333-0.303-0.684-0.275-1-0.012c-0.244,0.203-0.174,0.832,0.08,1.109
		c0.37,0.402,0.94,0.574,1.118,0.248c0.254-0.467,0.61-0.281,0.931-0.355c0.27-0.064,0.558-0.098,0.797-0.223
		c0.45-0.234,0.499-0.572,0.201-0.986c-0.337-0.471-0.69-0.537-1.076-0.18C39.37,56.188,39.188,56.43,38.959,56.688z M78.594,14.826
		c-0.548,0.253-0.979,0.411-1.368,0.641c-0.585,0.343-0.616,1.191-0.019,1.5c0.414,0.215,0.927,0.315,1.398,0.324
		c0.516,0.009,0.862-0.575,0.676-1.062C79.108,15.78,78.861,15.363,78.594,14.826z M47.177,46.447
		c0.469,0.453,1.363,0.459,1.762,0.013c0.359-0.401,0.314-1.203-0.092-1.613c-0.451-0.457-1.36-0.405-1.833,0.105
		C46.681,45.31,46.762,46.047,47.177,46.447z M54.258,50.607c0.606-0.566,0.395-1.97-0.182-2.189
		c-0.342-0.13-1.301,0.064-1.484,0.301c-0.211,0.272-0.074,1.104,0.285,1.447c0.217,0.205,0.484,0.398,0.763,0.484
		C53.866,50.719,54.145,50.619,54.258,50.607z M13.419,78.891c-0.167,0.137-0.237,0.193-0.305,0.25
		c-0.335,0.281-0.344,0.639-0.211,1.014c0.135,0.383,0.48,0.295,0.776,0.354c0.212,0.041,0.461,0.164,0.584,0.33
		c0.372,0.508,0.85,0.65,1.429,0.615c0.185-1.246-0.164-1.664-1.275-1.721C14.041,79.414,13.728,79.15,13.419,78.891z
		 M67.601,39.016c0.154,0.033,0.504,0.197,0.829,0.156c0.354-0.046,0.521-0.383,0.548-0.762c0.018-0.242,0.124-0.48,0.128-0.722
		c0.01-0.654-0.829-1.257-1.353-0.991C67.167,36.996,66.974,38.337,67.601,39.016z M30.837,67.309
		c-0.025,0.193-0.053,0.34-0.059,0.488c-0.005,0.121-0.022,0.264,0.032,0.359c0.131,0.23,0.265,0.484,0.469,0.633
		c0.091,0.066,0.348-0.123,0.536-0.152c0.162-0.027,0.332,0.01,0.499,0.016c0.539,0.023,1.105,0.145,1.499-0.375
		c-0.283-0.709-0.422-0.875-1.011-0.928C32.187,67.293,31.564,67.32,30.837,67.309z M21.999,78.023
		c-0.532,0.877-0.28,1.65-0.181,2.381c0.078,0.58,0.361,0.668,1.178,0.602c-0.068-0.42-0.134-0.832-0.189-1.174
		c0.208-0.457,0.395-0.863,0.63-1.379C22.886,78.289,22.461,78.162,21.999,78.023z M61.152,49.645
		c-0.104-0.076-0.274-0.206-0.447-0.332c-0.277-0.205-0.56-0.173-0.696,0.125c-0.161,0.351-0.304,0.74-0.316,1.117
		c-0.016,0.482,0.392,0.809,0.777,0.934c0.244,0.078,0.65-0.117,0.893-0.307C61.764,50.867,61.663,50.184,61.152,49.645z
		 M47.763,48.401c-0.063-0.035-0.125-0.072-0.188-0.108c-0.076,0.076-0.206,0.143-0.221,0.229c-0.074,0.435-0.22,0.734-0.672,0.975
		c-0.469,0.248-0.404,1.073,0,1.368c0.333,0.244,1.201,0.195,1.49-0.082c0.287-0.277,0.212-0.953-0.158-1.346
		c-0.061-0.065-0.165-0.088-0.236-0.144c-0.069-0.051-0.124-0.121-0.17-0.168C47.665,48.858,47.713,48.629,47.763,48.401z
		 M30.226,77.182c0.352-0.178,0.666-0.338,0.973-0.494c-0.029-0.211-0.05-0.332-0.062-0.453c-0.04-0.418-0.214-0.695-0.68-0.723
		c-0.461-0.027-0.659,0.217-0.773,0.625c-0.048,0.174-0.201,0.318-0.304,0.479c-0.148,0.227-0.346,0.436-0.428,0.684
		c-0.125,0.375,0.207,0.889,0.542,0.936c0.4,0.053,0.692-0.232,0.74-0.734C30.245,77.383,30.228,77.262,30.226,77.182z
		 M62.093,24.088c-0.602,0.665-0.698,1.255-0.336,1.885c0.344,0.597,0.854,0.436,1.339,0.363
		C63.649,25.11,63.55,24.893,62.093,24.088z M79.847,22.771c-0.493,0.478-0.581,1.001-0.227,1.359
		c0.467,0.472,1.299,0.512,1.741,0.083c0.299-0.289,0.275-0.94-0.044-1.251C80.959,22.612,80.122,22.505,79.847,22.771z
		 M36.72,72.275c-0.502,0.18-0.926,0.303-1.323,0.484c-0.281,0.129-0.525,0.34-0.854,0.561c0.393,0.365,0.428,0.945,1.063,0.719
		c0.482-0.172,0.976-0.311,1.488-0.471C37.356,72.99,37.183,72.537,36.72,72.275z M30.536,81.115
		c-0.309-0.047-0.553-0.109-0.797-0.109c-0.324,0.002-0.536,0.223-0.55,0.52c-0.011,0.223,0.056,0.572,0.204,0.652
		c0.196,0.105,0.535,0.072,0.754-0.027c0.203-0.094,0.329-0.354,0.485-0.537c0.859,0.287,1.073,0.234,1.315-0.309
		c0.165-0.371,0.026-0.779-0.319-0.943C31.219,80.172,30.931,80.363,30.536,81.115z M67.999,23.854
		c0.392-0.404,0.394-0.993,0.003-1.401c-0.31-0.325-1.036-0.304-1.33,0.038c-0.298,0.347-0.287,1.189,0.018,1.45
		C67.116,24.306,67.59,24.275,67.999,23.854z M89.297,24.969c0.548,0.563,0.65,0.576,1.365,0.264
		c0.296-0.129,0.568-0.257,0.516-0.648c-0.056-0.403-0.246-0.711-0.68-0.747c-0.393-0.032-0.794-0.039-1.184,0.005
		c-0.491,0.056-0.603,0.36-0.316,0.778C89.083,24.747,89.195,24.854,89.297,24.969z M87.123,26.961
		c0.391-0.268,0.793-0.457,1.063-0.762c0.165-0.186,0.246-0.607,0.146-0.822c-0.101-0.216-0.458-0.391-0.726-0.434
		c-0.312-0.051-0.651,0.06-0.95,0.097C86.304,25.776,86.517,26.336,87.123,26.961z M87.668,23.301
		c-0.049-0.313-0.074-0.578-0.132-0.835c-0.152-0.679-0.782-0.996-1.328-0.677c-0.34,0.199-0.444,0.997-0.186,1.435
		c0.261,0.442,0.582,0.54,1.068,0.326C87.286,23.463,87.484,23.38,87.668,23.301z M70.919,23.146
		c0.105,0.393,0.145,0.844,0.352,1.197c0.143,0.244,0.504,0.446,0.794,0.49c0.19,0.029,0.504-0.208,0.63-0.409
		c0.211-0.338-0.163-1.206-0.607-1.533C71.646,22.568,71.292,22.759,70.919,23.146z M87.05,20.432
		c0.242-0.234,0.149-1.044-0.156-1.379c-0.285-0.312-1.09-0.322-1.353-0.019c-0.209,0.241-0.169,1.049,0.065,1.319
		C85.909,20.705,86.725,20.749,87.05,20.432z M65.014,36.391c0.088,0.048,0.24,0.188,0.409,0.211
		c0.296,0.042,0.621,0.076,0.801-0.278c0.219-0.432,0.215-0.956-0.104-1.173c-0.355-0.243-0.652-0.704-1.201-0.487
		c-0.053,0.021-0.097,0.076-0.13,0.125C64.54,35.154,64.636,36.034,65.014,36.391z M35.004,48.581
		c0.307-0.301,0.31-0.954,0.007-1.248c-0.304-0.293-0.956-0.271-1.252,0.045c-0.392,0.417-0.447,1.178-0.11,1.517
		C33.983,49.229,34.453,49.121,35.004,48.581z M62.092,30.765c0.39,0.396,0.905,0.445,1.233,0.117
		c0.327-0.327,0.354-0.94,0.055-1.254c-0.423-0.443-1.096-0.545-1.395-0.21C61.681,29.755,61.73,30.399,62.092,30.765z
		 M67.923,32.008c0.393,0.412,0.799,0.476,1.13,0.176c0.436-0.394,0.388-0.974-0.128-1.551c-0.264-0.295-0.886-0.327-1.15-0.06
		C67.478,30.872,67.556,31.622,67.923,32.008z M37.012,71.914c0.158,0.01,0.405,0.076,0.625,0.023
		c0.355-0.082,0.699-0.229,1.035-0.377c0.39-0.17,0.502-0.527,0.321-0.922c-0.166-0.361-0.555-0.488-0.935-0.293
		c-0.32,0.166-0.639,0.336-0.95,0.516C36.805,71.039,36.714,71.596,37.012,71.914z M77.007,18.915
		c-0.454,0.438-0.44,0.866,0.046,1.347c0.283,0.28,0.941,0.225,1.248-0.105c0.25-0.271,0.262-1.097,0.02-1.388
		C78.05,18.446,77.421,18.516,77.007,18.915z M64.549,41.717c0.53,0.814,0.934,1.006,1.396,0.7c0.483-0.318,0.489-0.81-0.003-1.645
		c-0.322-0.033-0.672-0.068-1.031-0.105C64.776,41.057,64.669,41.37,64.549,41.717z M37.444,65.852
		c-0.029,0.213-0.148,0.496-0.066,0.695c0.064,0.152,0.417,0.322,0.579,0.273c0.463-0.137,0.919-0.342,1.33-0.594
		c0.38-0.236,0.416-0.766,0.115-1.041c-0.098-0.09-0.306-0.174-0.405-0.129C38.502,65.281,38.028,65.547,37.444,65.852z
		 M40.188,51.26c0.112,0.35,0.17,0.654,0.302,0.92c0.249,0.504,0.828,0.684,1.338,0.453c0.434-0.193,0.521-0.441,0.312-0.881
		C41.896,51.242,41.113,51.02,40.188,51.26z M64.599,38.441c0.166,0.447,0.239,0.716,0.36,0.96c0.228,0.457,0.671,0.687,1.056,0.527
		c0.354-0.146,0.643-0.381,0.614-0.826c-0.027-0.424-0.36-0.836-0.819-0.859C65.438,38.223,65.059,38.359,64.599,38.441z
		 M35.673,57.076c0.612-0.936,0.454-1.633-0.306-1.961c-0.35-0.15-0.667-0.088-0.923,0.193c-0.275,0.301-0.268,0.66,0.006,0.91
		C34.799,56.537,35.225,56.77,35.673,57.076z M43.857,50.367c-0.263,0.32-0.578,0.609-0.31,1.066
		c0.274,0.469,1.087,0.801,1.626,0.67c0.337-0.082,0.53-0.4,0.352-0.705c-0.129-0.221-0.367-0.402-0.593-0.535
		C44.621,50.678,44.272,50.555,43.857,50.367z M67.698,27.422c0.342,0.34,0.83,0.391,1.127,0.115
		c0.274-0.254,0.254-1.092-0.034-1.36c-0.309-0.287-0.938-0.348-1.156-0.112C67.243,26.488,67.268,26.992,67.698,27.422z M37,52.074
		c0.345-0.354,0.404-1.037,0.117-1.348c-0.295-0.32-0.828-0.33-1.139-0.021c-0.379,0.373-0.401,1.156-0.043,1.49
		C36.218,52.455,36.677,52.404,37,52.074z M75.9,18.792c-0.367-0.382-1-0.398-1.425-0.036c-0.268,0.228-0.125,0.958,0.26,1.319
		c0.275,0.261,0.802,0.2,1.174-0.133C76.252,19.634,76.248,19.153,75.9,18.792z M68.997,42.372c0.184,0.03,0.527,0.096,0.872,0.141
		c0.309,0.04,0.592-0.057,0.637-0.385c0.033-0.25,0.008-0.561-0.117-0.768c-0.242-0.404-0.883-0.497-1.335-0.268
		C68.546,41.35,68.469,41.791,68.997,42.372z M71.373,19.062c0.111,0.509-0.175,1.104,0.503,1.368
		c0.421,0.163,0.777,0.044,1.047-0.321c0.218-0.295,0.205-0.834-0.024-1.11C72.636,18.683,72.164,18.686,71.373,19.062z
		 M37.063,47.976c-0.773,1.076-0.453,1.863,0.82,2.018C38.439,49.047,38.218,48.503,37.063,47.976z M82.163,16.339
		c0.056,0.364,0.08,0.737,0.18,1.087c0.062,0.215,0.21,0.52,0.372,0.56c0.226,0.054,0.544-0.044,0.747-0.186
		c0.377-0.265,0.438-0.83,0.2-1.252C83.36,16.011,82.907,16.137,82.163,16.339z M25.954,74.459c-0.16-0.105-0.425-0.322-0.725-0.469
		c-0.474-0.229-0.823,0.016-0.912,0.539c-0.146,0.863,0.958,1.164,1.588,0.879C26.344,75.209,26.4,74.922,25.954,74.459z
		 M68.258,46.704c-0.095-0.078-0.179-0.186-0.287-0.23c-0.243-0.1-0.52-0.273-0.742-0.227c-0.375,0.079-0.193,0.449-0.206,0.709
		c-0.006,0.123-0.017,0.247-0.012,0.37c0.014,0.428,0.256,0.694,0.649,0.795c0.355,0.091,0.564-0.134,0.736-0.424
		C68.619,47.318,68.593,46.996,68.258,46.704z M64.527,32.161c0.062,0.705,0.392,1.181,0.917,1.499
		c0.402,0.243,0.769,0.016,0.735-0.446C66.085,31.906,65.998,31.432,64.527,32.161z M67.574,21.491
		c0.353,0.382,1.06,0.483,1.396,0.199c0.316-0.267,0.359-0.74,0.098-1.059c-0.277-0.336-1.234-0.414-1.515-0.124
		C67.297,20.772,67.307,21.201,67.574,21.491z M33.813,53.27c0.525-0.611,0.6-1.08,0.258-1.557
		c-0.247-0.346-0.669-0.424-1.055-0.193c-0.345,0.205-0.427,0.465-0.248,0.848C32.989,52.84,33.283,53.186,33.813,53.27z
		 M65.509,24.271c0.244-0.803,0.16-1.22-0.347-1.522c-0.2-0.12-0.57-0.17-0.743-0.062c-0.217,0.136-0.416,0.463-0.428,0.716
		c-0.009,0.208,0.223,0.518,0.428,0.619C64.73,24.176,65.111,24.188,65.509,24.271z M31.814,60.428
		c-0.501-0.018-1.017-0.025-1.53-0.059c-0.372-0.023-0.499,0.223-0.529,0.502c-0.053,0.475,0.412,0.865,0.882,0.762
		c0.268-0.059,0.529-0.146,0.791-0.227C32.007,61.229,32.014,61.213,31.814,60.428z M39.722,72.145
		c-0.134-0.027-0.408-0.162-0.645-0.115c-0.405,0.08-0.474,0.49-0.46,0.814c0.017,0.377-0.029,0.834,0.417,1.051
		c0.098,0.047,0.249,0.041,0.357,0.006C39.928,73.721,40.201,72.668,39.722,72.145z M28.9,73.918
		c-0.473-0.068-0.839-0.01-1.011,0.465c-0.171,0.473,0.06,0.846,0.343,1.162c0.327,0.365,0.767,0.25,0.92-0.217
		C29.31,74.842,29.298,74.371,28.9,73.918z M37.461,53.182c-0.403,0.416-0.354,0.961,0.132,1.467
		c0.277,0.289,0.543,0.227,0.794-0.035c0.425-0.445,0.468-1.045,0.107-1.404C38.141,52.855,37.785,52.846,37.461,53.182z
		 M57.161,47.281c0.304,0.299,0.811,0.337,1.072,0.081c0.348-0.34,0.336-0.891-0.027-1.229c-0.353-0.331-0.942-0.333-1.242-0.004
		C56.712,46.4,56.805,46.929,57.161,47.281z M13.747,67.398c0.159-0.336,0.327-0.598,0.407-0.885c0.111-0.396-0.178-0.801-0.6-0.891
		c-0.431-0.094-0.626,0.18-0.72,0.531c-0.062,0.234-0.061,0.484-0.095,0.727c-0.041,0.289-0.059,0.615,0.274,0.686
		C13.234,67.613,13.496,67.463,13.747,67.398z M80.342,19.004c0.398-0.403,0.414-1.053,0.032-1.392
		c-0.269-0.239-0.756-0.246-0.999-0.014c-0.352,0.334-0.383,0.896-0.069,1.23C79.646,19.191,80.085,19.265,80.342,19.004z
		 M37.287,75.928c-0.624,0.305-0.917,0.658-0.833,1.061c0.083,0.4,0.328,0.668,0.755,0.701c0.393,0.031,0.643-0.211,0.794-0.533
		C38.191,76.756,37.959,76.385,37.287,75.928z M18.169,68.412c-0.627,0.547-0.707,0.779-0.438,1.324
		c0.139,0.281,0.315,0.561,0.692,0.461c0.384-0.102,0.642-0.348,0.661-0.777C19.104,68.963,19.006,68.553,18.169,68.412z
		 M31.75,79.443c0.22,0.24,0.462,0.586,0.825,0.314c0.316-0.238,0.393-0.598,0.106-0.973c-0.146-0.191-0.202-0.449-0.337-0.65
		c-0.274-0.41-0.727-0.367-0.93,0.076C31.187,78.709,31.379,79.098,31.75,79.443z M31.072,71.664
		c0.272,0.664,0.761,0.957,1.432,0.984c0.414,0.018,0.641-0.254,0.5-0.631c-0.179-0.479-0.591-0.697-1.044-0.822
		C31.537,71.08,31.275,71.326,31.072,71.664z M33.234,75.537c-0.068-0.498-0.117-1.02-0.712-1.141
		c-0.336-0.07-0.669,0.064-0.796,0.455c-0.121,0.369-0.158,0.723,0.209,0.988C32.474,76.23,32.828,75.844,33.234,75.537z
		 M51.919,48.148c0.282-0.313,0.272-0.899-0.02-1.162c-0.292-0.264-0.862-0.278-1.089-0.027c-0.266,0.293-0.246,0.91,0.037,1.167
		C51.126,48.377,51.701,48.39,51.919,48.148z M20.927,84.041c0.14-1.117-0.255-1.521-1.245-1.273
		C19.415,84.117,19.735,84.445,20.927,84.041z M35.127,78.902c0.242,0.248,0.846,0.287,1.1,0.07c0.288-0.242,0.23-0.895-0.109-1.229
		c-0.319-0.316-0.677-0.346-0.972-0.082C34.813,77.959,34.805,78.574,35.127,78.902z M27.198,78.047
		c-0.342-0.102-0.636-0.287-0.869-0.229c-0.195,0.049-0.4,0.361-0.459,0.592c-0.099,0.381,0.179,0.67,0.506,0.766
		c0.35,0.104,0.843,0.424,1.071-0.014C27.576,78.916,27.304,78.463,27.198,78.047z M63.474,49.942
		c0.083,0.376,0.125,0.773,0.267,1.13c0.119,0.301,0.401,0.492,0.755,0.365c0.33-0.117,0.457-0.389,0.441-0.736
		C64.906,49.995,64.417,49.708,63.474,49.942z M65.294,49.333c0.377-0.372,0.414-0.792,0.098-1.133
		c-0.28-0.3-0.783-0.297-1.065,0.008c-0.257,0.278-0.303,0.876-0.086,1.112C64.511,49.615,65.004,49.621,65.294,49.333z
		 M70.769,26.713c0.699-0.162,1.024-0.385,0.942-0.775c-0.063-0.299-0.266-0.643-0.513-0.805c-0.227-0.148-0.577-0.105-0.778,0.254
		C70.114,25.935,70.117,26.022,70.769,26.713z M32.323,55.09c-0.09,0.539-0.191,0.863-0.189,1.188
		c0.004,0.412,0.251,0.721,0.67,0.752c0.207,0.016,0.506-0.09,0.625-0.246c0.247-0.324,0.214-0.709-0.115-0.992
		C33.066,55.578,32.78,55.41,32.323,55.09z M15.081,70.812c0.3,0.32,0.824,0.422,1.077,0.209c0.248-0.207,0.173-1.053-0.12-1.363
		c-0.26-0.277-0.619-0.242-0.963,0.092C14.776,70.041,14.778,70.492,15.081,70.812z M17.915,78.559
		c-0.616-0.473-1.083-0.611-1.279-0.305c-0.152,0.24-0.153,0.625-0.108,0.928c0.044,0.293,0.22,0.604,0.612,0.545
		C17.83,79.623,17.72,78.986,17.915,78.559z M13.298,75.982c0.01-0.008,0.021-0.016,0.032-0.025
		c0.065,0.066,0.136,0.127,0.195,0.199c0.212,0.254,0.494,0.34,0.714,0.1c0.129-0.141,0.186-0.469,0.115-0.646
		c-0.123-0.303-0.325-0.619-0.583-0.805c-0.174-0.123-0.544-0.107-0.749-0.002c-0.114,0.061-0.128,0.439-0.081,0.652
		C12.985,75.648,13.173,75.809,13.298,75.982z M26.972,83.105c0.249-0.271,0.19-0.912-0.107-1.176
		c-0.235-0.209-0.823-0.168-1.023,0.07c-0.208,0.246-0.189,1.043,0.029,1.213C26.176,83.449,26.704,83.398,26.972,83.105z
		 M19.208,72.107c-0.244-0.244-0.762-0.262-1.009-0.033c-0.354,0.326-0.366,0.91-0.026,1.236c0.241,0.234,0.694,0.264,0.928,0.062
		C19.414,73.1,19.476,72.377,19.208,72.107z M32.141,65.189c0.224-0.205,0.186-0.57-0.115-0.684
		c-0.344-0.127-0.717-0.227-1.079-0.232c-0.203-0.002-0.512,0.174-0.582,0.348c-0.068,0.17,0.045,0.488,0.185,0.65
		C30.908,65.691,31.657,65.629,32.141,65.189z M37.174,59.201c-0.509,0.107-0.845,0.141-1.156,0.248
		c-0.341,0.115-0.513,0.562-0.402,0.912c0.099,0.311,0.532,0.578,0.797,0.404c0.29-0.189,0.535-0.486,0.716-0.785
		C37.23,59.812,37.162,59.543,37.174,59.201z M31.2,54.945c0.19-0.225,0.266-0.322,0.351-0.412c0.241-0.256,0.293-0.539,0.074-0.824
		c-0.189-0.242-0.409-0.48-0.77-0.367c-0.387,0.123-0.52,0.391-0.421,0.785c0.021,0.086,0.01,0.186-0.013,0.271
		c-0.078,0.277-0.011,0.523,0.26,0.596C30.877,55.045,31.11,54.957,31.2,54.945z M38.61,61.607c0.276-0.783,0.185-1.213-0.327-1.535
		c-0.278-0.174-0.583-0.24-0.844,0.018c-0.258,0.258-0.245,0.621-0.03,0.842C37.731,61.258,38.063,61.656,38.61,61.607z
		 M18.602,81.918c-0.456-0.834-0.866-1.119-1.312-0.938c-0.373,0.15-0.427,0.504-0.198,1.305
		C17.665,82.586,18.142,82.438,18.602,81.918z M68.701,34.175c0.39-0.392,0.397-0.829,0.02-1.226
		c-0.274-0.288-0.73-0.238-1.056,0.115c-0.263,0.287-0.191,0.748,0.183,1.15C68.134,34.523,68.364,34.513,68.701,34.175z
		 M55.725,46.452c0.16-0.981,0.123-1.056-0.715-1.421c-0.629,0.537-0.778,0.845-0.587,1.202
		C54.613,46.587,54.942,46.651,55.725,46.452z M32.735,82.99c-0.476-0.197-0.894-0.369-1.205,0.102
		c-0.228,0.346-0.141,0.701,0.102,1.016c0.254,0.33,0.611,0.301,0.908,0.139C33.089,83.943,32.81,83.461,32.735,82.99z
		 M20.188,79.914c0.173-1.195-0.166-1.576-1.245-1.352c0.038,0.424,0.077,0.861,0.124,1.379
		C19.507,79.932,19.855,79.922,20.188,79.914z M67.169,42.353c-0.313,0.33-0.295,0.684,0.056,1.039
		c0.308,0.312,0.619,0.343,0.88,0.086c0.33-0.325,0.382-0.879,0.108-1.171C67.933,42.009,67.476,42.029,67.169,42.353z
		 M36.095,67.596c-0.625-0.16-1.125-0.668-1.753-0.199c0.13,0.773,0.317,1.09,0.655,1.131
		C35.424,68.578,35.809,68.279,36.095,67.596z M57.927,49.67c-0.22-0.76-0.478-1.088-0.844-1.001
		c-0.233,0.054-0.511,0.253-0.608,0.462c-0.141,0.299-0.143,0.667,0.211,0.904C57.24,50.408,57.498,49.864,57.927,49.67z
		 M18.432,76.293c-0.412-0.434-0.887-0.547-1.17-0.266c-0.249,0.246-0.224,0.729,0.052,0.99c0.285,0.268,0.961,0.328,1.183,0.082
		C18.735,76.838,18.765,76.561,18.432,76.293z M65.201,28.621c0.271,0.287,0.849,0.247,1.168-0.083
		c0.247-0.254,0.168-0.518-0.018-0.75c-0.251-0.314-0.937-0.406-1.171-0.182C64.934,27.846,64.943,28.35,65.201,28.621z
		 M34.565,77.547c0.019-0.412,0.049-0.789,0.048-1.164c-0.002-0.332-0.101-0.623-0.515-0.6c-0.373,0.021-0.621,0.195-0.673,0.605
		C33.343,77.033,33.491,77.209,34.565,77.547z M84.886,22.179c-0.204,0.043-0.326,0.054-0.436,0.096
		c-0.14,0.054-0.27,0.133-0.386,0.191c-0.086,1.136-0.068,1.159,0.975,1.338C85.661,23.23,85.083,22.767,84.886,22.179z
		 M23.093,75.801c0.285-0.301,0.298-0.818,0.027-1.09c-0.251-0.254-0.773-0.244-1.005,0.02c-0.269,0.305-0.238,0.945,0.059,1.189
		C22.417,76.121,22.84,76.066,23.093,75.801z M17.772,85.855c0.261,0.285,0.829,0.32,1.085,0.066c0.254-0.25,0.211-0.777-0.087-1.08
		c-0.234-0.238-0.62-0.227-0.909,0.027C17.586,85.111,17.542,85.602,17.772,85.855z M37.052,64.201
		c0.364,0.377,0.706,0.441,0.943,0.176c0.238-0.27,0.16-0.875-0.153-1.174c-0.298-0.285-0.644-0.301-0.885-0.043
		C36.649,63.492,36.678,63.809,37.052,64.201z M75.932,22.627c-0.039-0.292-0.075-0.557-0.108-0.807
		c-0.876-0.16-1.31,0.059-1.373,0.658c-0.055,0.508,0.264,0.749,0.731,0.542C75.404,22.922,75.615,22.794,75.932,22.627z
		 M21.859,83.545c-0.501,0.523-0.642,0.885-0.359,1.188c0.174,0.188,0.526,0.295,0.79,0.283c0.156-0.008,0.421-0.314,0.423-0.49
		C22.719,84.025,22.454,83.66,21.859,83.545z M27.334,85.719c0.283-0.518,0.259-0.967-0.055-1.395
		c-0.555-0.232-0.856,0.092-1.133,0.496c0.115,0.268,0.234,0.543,0.362,0.838C26.8,85.68,27.065,85.699,27.334,85.719z
		 M34.869,63.92c0.146,0.412-0.041,0.979,0.529,1.07c0.227,0.037,0.66-0.205,0.724-0.406c0.083-0.264-0.014-0.699-0.203-0.908
		C35.586,63.311,35.268,63.691,34.869,63.92z M18.93,74.08c-0.263-0.279-0.714-0.303-0.991-0.053
		c-0.282,0.256-0.28,0.645,0.004,0.977c0.261,0.307,0.633,0.373,0.886,0.16C19.102,74.934,19.16,74.324,18.93,74.08z M62.369,35.204
		c0.853,0.149,0.874,0.128,1.146-1.035c-0.241-0.188-0.511-0.396-0.97-0.753C62.473,34.153,62.424,34.649,62.369,35.204z
		 M36.172,71.062c-0.042-0.266-0.082-0.535-0.125-0.805c-0.014-0.09-0.019-0.189-0.054-0.271c-0.129-0.305-0.374-0.43-0.675-0.301
		c-0.28,0.117-0.571,0.275-0.51,0.672C34.885,70.859,35.529,71.209,36.172,71.062z M25.327,87.576
		c0.218-0.205,0.164-0.832-0.092-1.1c-0.217-0.225-0.613-0.236-0.829-0.023c-0.252,0.252-0.252,0.836,0.001,1.096
		C24.635,87.781,25.092,87.797,25.327,87.576z M16.153,76.391c0.289-0.26,0.263-0.84-0.063-1.154
		c-0.256-0.248-0.538-0.264-0.818-0.039c-0.31,0.248-0.304,0.684,0.004,1.049C15.542,76.561,15.899,76.619,16.153,76.391z
		 M30.762,59.074c0.276-0.615,0.177-1.148-0.21-1.285c-0.348-0.121-0.823,0.115-0.887,0.441
		C29.57,58.719,29.819,58.92,30.762,59.074z M33.735,78.158c-0.408,0.779-0.399,1.211,0.029,1.377
		c0.307,0.117,0.612,0.105,0.779-0.256C34.756,78.816,34.525,78.479,33.735,78.158z M32.183,57.193
		c-0.774,0.346-0.991,0.686-0.767,1.129c0.144,0.283,0.541,0.354,0.869,0.152C32.678,58.234,32.662,57.955,32.183,57.193z
		 M24.805,84.525c-0.321-0.293-0.744-0.303-0.98-0.018c-0.185,0.223-0.135,0.73,0.091,0.941c0.216,0.197,0.644,0.137,0.916-0.139
		C25.096,85.043,25.115,84.777,24.805,84.525z M34.237,60.041c0.206-0.451,0.365-0.873-0.075-1.203
		c-0.163-0.121-0.494-0.186-0.651-0.098c-0.141,0.076-0.223,0.408-0.196,0.609C33.375,59.803,33.68,60.039,34.237,60.041z
		 M26.424,80.848c-0.01-0.164,0.031-0.441-0.058-0.666c-0.105-0.266-0.774-0.393-0.883-0.176c-0.121,0.238-0.152,0.584-0.077,0.84
		C25.485,81.107,26.084,81.135,26.424,80.848z M34.577,62.205c0.198-0.43,0.32-0.852-0.104-1.234
		c-0.298-0.268-0.595-0.186-0.697,0.182C33.633,61.668,33.924,62.064,34.577,62.205z M35.927,79.566
		c-0.186,0.291-0.338,0.529-0.512,0.799c0.361,0.268,0.636,0.475,0.917,0.682C36.824,80.27,36.803,80.184,35.927,79.566z
		 M43.331,47.603c0.176,0.178,0.3,0.34,0.458,0.453c0.149,0.106,0.335,0.163,0.503,0.241c0.048-0.192,0.156-0.394,0.127-0.573
		c-0.023-0.151-0.204-0.277-0.34-0.446C43.813,47.394,43.574,47.498,43.331,47.603z M37.492,68.52
		c0.327-0.068,0.526-0.051,0.63-0.143c0.221-0.195,0.179-0.664-0.067-0.812c-0.099-0.061-0.377-0.025-0.393,0.023
		C37.581,67.844,37.557,68.119,37.492,68.52z M20.416,76.572c-0.126-0.205-0.189-0.402-0.324-0.496
		c-0.113-0.08-0.327-0.086-0.461-0.033c-0.061,0.023-0.097,0.295-0.042,0.4C19.749,76.75,19.993,76.898,20.416,76.572z
		 M25.007,81.674c-0.306-0.133-0.562-0.279-0.742,0.062c-0.047,0.092,0.025,0.354,0.104,0.385
		C24.676,82.244,24.888,82.104,25.007,81.674z M88.69,18.323c-0.272-0.112-0.438-0.178-0.601-0.247
		c-0.146-0.062-0.291-0.128-0.526-0.233C87.865,18.458,88.195,18.599,88.69,18.323z M78.698,21.604
		c-0.044-0.346-0.032-0.484-0.069-0.499c-0.098-0.039-0.217-0.023-0.327-0.029c0.003,0.108-0.034,0.246,0.02,0.317
		C78.388,21.482,78.527,21.515,78.698,21.604z"/>
	<path fill-rule="evenodd" clip-rule="evenodd" fill="#FFFFFF" d="M87.319,21.259c0.935-1.395,1.438-1.799,2.45-1.993
		c0.614-1.081,0.614-1.081,1.323-0.975c0.162,0.926,0.106,0.99-0.958,1.121c0.186,0.944-0.173,1.964-0.781,2.217
		C88.345,22.05,87.859,21.972,87.319,21.259z"/>
	<path fill-rule="evenodd" clip-rule="evenodd" fill="#FFFFFF" d="M13.963,72.334c0.081,0.275,0.181,0.547,0.238,0.826
		c0.088,0.439-0.111,0.629-0.562,0.58c-0.405-0.045-0.72-0.236-0.834-0.627c-0.101-0.348-0.206-0.727,0.209-0.996
		c0.094-0.061,0.191-0.252,0.164-0.348c-0.146-0.527,0.121-0.889,0.5-1.322c0.578,0.344,1.194,0.662,1.746,1.068
		c0.156,0.115,0.208,0.502,0.16,0.732c-0.061,0.281-0.67,0.471-0.96,0.344c-0.183-0.08-0.339-0.225-0.507-0.34
		C14.066,72.279,14.014,72.307,13.963,72.334z"/>
	<path fill-rule="evenodd" clip-rule="evenodd" fill="#FFFFFF" d="M56.666,52.551c-0.213,0.328-0.36,0.557-0.523,0.807
		c-0.26-0.027-0.56,0.027-0.728-0.096c-0.222-0.164-0.458-0.459-0.476-0.711c-0.023-0.352,0.111-0.83,0.562-0.83
		c0.639-0.004,1.193-0.307,1.808-0.369c0.389-0.039,0.66,0.107,0.898,0.369c0.366,0.396,0.393,0.914,0.072,1.252
		c-0.33,0.35-0.852,0.299-1.27-0.117C56.925,52.771,56.832,52.697,56.666,52.551z"/>
	<path fill-rule="evenodd" clip-rule="evenodd" fill="#FFFFFF" d="M50.944,54.344c-0.503-0.539-0.534-1.225-0.08-1.639
		c0.653-0.598,1.22-0.701,1.603-0.275c0.668,0.738,0.873,1.604,0.418,1.947C52.292,54.826,51.409,54.846,50.944,54.344z"/>
	<path fill-rule="evenodd" clip-rule="evenodd" fill="#FFFFFF" d="M35.014,65.244c0.965,0.086,1.419,0.539,1.3,1.332
		c-0.02,0.133-0.118,0.338-0.213,0.357c-0.155,0.033-0.409,0.004-0.496-0.104c-0.231-0.281-0.396-0.617-0.626-0.998
		c-0.132-0.037-0.338-0.092-0.54-0.154c-0.203-0.064-0.404-0.139-0.606-0.207c-0.085,0.277-0.126,0.58-0.27,0.816
		c-0.091,0.152-0.352,0.305-0.511,0.281c-0.172-0.023-0.359-0.227-0.456-0.4c-0.081-0.145-0.046-0.357-0.048-0.541
		c0-0.09,0.021-0.252,0.057-0.258c0.694-0.129,0.429-0.9,0.828-1.219c0.281-0.225,0.548-0.082,0.742,0.109
		C34.479,64.561,34.732,64.908,35.014,65.244z"/>
	<path fill-rule="evenodd" clip-rule="evenodd" fill="#FFFFFF" d="M82.301,19.716c0.205-0.429,0.338-0.986,0.977-0.903
		c0.401,0.052,0.633,0.368,0.668,0.782c0.062,0.742-0.573,0.756-1.019,0.939c-0.283,1.052-0.443,1.213-1.131,1.153
		c-0.642-0.057-0.819-0.232-0.854-0.845C80.9,20.119,81.108,19.945,82.301,19.716z"/>
	<path fill-rule="evenodd" clip-rule="evenodd" fill="#FFFFFF" d="M61.217,55.441c-0.222,0.258-0.43,0.527-0.667,0.77
		c-0.51,0.518-1.019,0.525-1.523,0.002c-0.32-0.332-0.628-0.689-0.535-1.219c0.1-0.564,0.365-0.854,0.871-0.926
		c0.605-0.088,1.305,0.264,1.555,0.779c0.101,0.213,0.196,0.426,0.296,0.637L61.217,55.441z"/>
	<path fill-rule="evenodd" clip-rule="evenodd" fill="#FFFFFF" d="M44.421,55.625c-0.602,0.18-1.085,0.654-1.761,0.4
		c-0.447-0.168-0.896-0.357-0.958-0.879c-0.056-0.48,0.285-0.773,0.672-1.014C43.62,53.367,44.36,53.869,44.421,55.625z"/>
	<path fill-rule="evenodd" clip-rule="evenodd" fill="#FFFFFF" d="M39.633,49.226c-0.452-0.424-0.465-1.171-0.028-1.671
		c0.335-0.385,1.325-0.283,1.866,0.189c0.399,0.348,0.376,1.204-0.045,1.67C41.116,49.758,40.083,49.649,39.633,49.226z"/>
	<path fill-rule="evenodd" clip-rule="evenodd" fill="#FFFFFF" d="M63.349,44.534c0.36-0.243,0.551-0.407,0.769-0.512
		c0.554-0.265,1.112-0.142,1.507,0.303c0.438,0.491,0.488,0.89,0.174,1.423c-0.365,0.616-1.452,0.685-1.893,0.064
		C63.653,45.457,63.545,45,63.349,44.534z"/>
	<path fill-rule="evenodd" clip-rule="evenodd" fill="#FFFFFF" d="M38.959,56.688c0.229-0.258,0.41-0.5,0.627-0.701
		c0.385-0.357,0.738-0.291,1.076,0.18c0.298,0.414,0.249,0.752-0.201,0.986c-0.239,0.125-0.527,0.158-0.797,0.223
		c-0.321,0.074-0.677-0.111-0.931,0.355c-0.177,0.326-0.748,0.154-1.118-0.248c-0.254-0.277-0.324-0.906-0.08-1.109
		c0.316-0.264,0.666-0.291,1,0.012C38.643,56.484,38.775,56.557,38.959,56.688z"/>
	<path fill-rule="evenodd" clip-rule="evenodd" fill="#FFFFFF" d="M78.594,14.826c0.268,0.538,0.515,0.955,0.688,1.402
		c0.187,0.487-0.16,1.071-0.676,1.062c-0.472-0.009-0.984-0.108-1.398-0.324c-0.598-0.309-0.566-1.157,0.019-1.5
		C77.615,15.237,78.046,15.079,78.594,14.826z"/>
	<path fill-rule="evenodd" clip-rule="evenodd" fill="#FFFFFF" d="M47.177,46.447c-0.415-0.399-0.496-1.137-0.163-1.495
		c0.473-0.511,1.382-0.562,1.833-0.105c0.406,0.41,0.451,1.212,0.092,1.613C48.54,46.906,47.646,46.9,47.177,46.447z"/>
	<path fill-rule="evenodd" clip-rule="evenodd" fill="#FFFFFF" d="M54.258,50.607c-0.113,0.012-0.392,0.111-0.618,0.043
		c-0.278-0.086-0.546-0.279-0.763-0.484c-0.359-0.342-0.496-1.174-0.285-1.447c0.184-0.236,1.143-0.431,1.484-0.301
		C54.652,48.637,54.864,50.041,54.258,50.607z"/>
	<path fill-rule="evenodd" clip-rule="evenodd" fill="#FFFFFF" d="M13.419,78.891c0.309,0.26,0.622,0.523,0.998,0.842
		c1.111,0.057,1.46,0.475,1.275,1.721c-0.579,0.035-1.058-0.107-1.429-0.615c-0.123-0.166-0.372-0.289-0.584-0.33
		c-0.296-0.059-0.641,0.029-0.776-0.354c-0.133-0.375-0.124-0.732,0.211-1.014C13.182,79.084,13.252,79.027,13.419,78.891z"/>
	<path fill-rule="evenodd" clip-rule="evenodd" fill="#FFFFFF" d="M67.601,39.016c-0.627-0.679-0.434-2.021,0.152-2.318
		c0.523-0.266,1.362,0.337,1.353,0.991c-0.004,0.241-0.11,0.479-0.128,0.722c-0.027,0.379-0.194,0.716-0.548,0.762
		C68.104,39.213,67.755,39.049,67.601,39.016z"/>
	<path fill-rule="evenodd" clip-rule="evenodd" fill="#FFFFFF" d="M30.837,67.309c0.727,0.012,1.35-0.016,1.964,0.041
		c0.589,0.053,0.728,0.219,1.011,0.928c-0.394,0.52-0.96,0.398-1.499,0.375c-0.167-0.006-0.337-0.043-0.499-0.016
		c-0.188,0.029-0.445,0.219-0.536,0.152c-0.204-0.148-0.338-0.402-0.469-0.633c-0.054-0.096-0.037-0.238-0.032-0.359
		C30.784,67.648,30.812,67.502,30.837,67.309z"/>
	<path fill-rule="evenodd" clip-rule="evenodd" fill="#FFFFFF" d="M21.999,78.023c0.462,0.139,0.887,0.266,1.438,0.43
		c-0.236,0.516-0.422,0.922-0.63,1.379c0.055,0.342,0.122,0.754,0.189,1.174c-0.817,0.066-1.1-0.021-1.178-0.602
		C21.719,79.674,21.467,78.9,21.999,78.023z"/>
	<path fill-rule="evenodd" clip-rule="evenodd" fill="#FFFFFF" d="M61.152,49.645c0.511,0.539,0.611,1.222,0.21,1.537
		c-0.242,0.189-0.648,0.385-0.893,0.307c-0.386-0.125-0.793-0.451-0.777-0.934c0.013-0.377,0.155-0.766,0.316-1.117
		c0.137-0.298,0.419-0.33,0.696-0.125C60.878,49.439,61.049,49.569,61.152,49.645z"/>
	<path fill-rule="evenodd" clip-rule="evenodd" fill="#FFFFFF" d="M47.763,48.401c-0.05,0.229-0.098,0.457-0.155,0.723
		c0.046,0.047,0.102,0.117,0.17,0.168c0.072,0.056,0.176,0.078,0.236,0.144c0.37,0.394,0.445,1.069,0.158,1.346
		c-0.289,0.277-1.157,0.326-1.49,0.082c-0.404-0.295-0.469-1.12,0-1.368c0.452-0.24,0.598-0.54,0.672-0.975
		c0.015-0.086,0.145-0.152,0.221-0.229C47.637,48.329,47.7,48.366,47.763,48.401z"/>
	<path fill-rule="evenodd" clip-rule="evenodd" fill="#FFFFFF" d="M30.226,77.182c0.002,0.08,0.019,0.201,0.009,0.318
		c-0.048,0.502-0.34,0.787-0.74,0.734c-0.335-0.047-0.667-0.561-0.542-0.936c0.082-0.248,0.28-0.457,0.428-0.684
		c0.104-0.16,0.256-0.305,0.304-0.479c0.114-0.408,0.312-0.652,0.773-0.625c0.465,0.027,0.64,0.305,0.68,0.723
		c0.011,0.121,0.033,0.242,0.062,0.453C30.892,76.844,30.578,77.004,30.226,77.182z"/>
	<path fill-rule="evenodd" clip-rule="evenodd" fill="#FFFFFF" d="M62.093,24.088c1.457,0.805,1.557,1.022,1.003,2.248
		c-0.485,0.072-0.995,0.234-1.339-0.363C61.395,25.343,61.491,24.753,62.093,24.088z"/>
	<path fill-rule="evenodd" clip-rule="evenodd" fill="#FFFFFF" d="M79.847,22.771c0.275-0.267,1.112-0.159,1.471,0.19
		c0.319,0.312,0.343,0.962,0.044,1.251c-0.442,0.429-1.274,0.389-1.741-0.083C79.266,23.773,79.354,23.249,79.847,22.771z"/>
	<path fill-rule="evenodd" clip-rule="evenodd" fill="#FFFFFF" d="M36.72,72.275c0.463,0.262,0.637,0.715,0.375,1.293
		c-0.513,0.16-1.006,0.299-1.488,0.471c-0.635,0.227-0.67-0.354-1.063-0.719c0.329-0.221,0.573-0.432,0.854-0.561
		C35.793,72.578,36.217,72.455,36.72,72.275z"/>
	<path fill-rule="evenodd" clip-rule="evenodd" fill="#FFFFFF" d="M30.536,81.115c0.395-0.752,0.683-0.943,1.091-0.754
		c0.345,0.164,0.484,0.572,0.319,0.943c-0.242,0.543-0.456,0.596-1.315,0.309c-0.156,0.184-0.282,0.443-0.485,0.537
		c-0.219,0.1-0.558,0.133-0.754,0.027c-0.147-0.08-0.215-0.43-0.204-0.652c0.014-0.297,0.227-0.518,0.55-0.52
		C29.983,81.006,30.227,81.068,30.536,81.115z"/>
	<path fill-rule="evenodd" clip-rule="evenodd" fill="#FFFFFF" d="M67.999,23.854c-0.409,0.422-0.883,0.453-1.31,0.086
		c-0.305-0.261-0.315-1.103-0.018-1.45c0.294-0.342,1.021-0.362,1.33-0.038C68.393,22.86,68.391,23.449,67.999,23.854z"/>
	<path fill-rule="evenodd" clip-rule="evenodd" fill="#FFFFFF" d="M89.297,24.969c-0.102-0.115-0.214-0.223-0.299-0.349
		c-0.286-0.418-0.175-0.722,0.316-0.778c0.39-0.044,0.791-0.037,1.184-0.005c0.434,0.036,0.624,0.344,0.68,0.747
		c0.053,0.391-0.22,0.519-0.516,0.648C89.947,25.545,89.845,25.532,89.297,24.969z"/>
	<path fill-rule="evenodd" clip-rule="evenodd" fill="#FFFFFF" d="M87.123,26.961c-0.606-0.625-0.819-1.185-0.466-1.921
		c0.299-0.037,0.638-0.148,0.95-0.097c0.268,0.043,0.625,0.218,0.726,0.434c0.1,0.214,0.019,0.636-0.146,0.822
		C87.916,26.504,87.514,26.693,87.123,26.961z"/>
	<path fill-rule="evenodd" clip-rule="evenodd" fill="#FFFFFF" d="M87.668,23.301c-0.184,0.079-0.382,0.162-0.577,0.249
		c-0.486,0.214-0.808,0.117-1.068-0.326c-0.259-0.438-0.154-1.236,0.186-1.435c0.546-0.319,1.176-0.002,1.328,0.677
		C87.594,22.723,87.619,22.987,87.668,23.301z"/>
	<path fill-rule="evenodd" clip-rule="evenodd" fill="#FFFFFF" d="M70.919,23.146c0.373-0.387,0.728-0.578,1.168-0.255
		c0.444,0.327,0.818,1.195,0.607,1.533c-0.126,0.201-0.439,0.438-0.63,0.409c-0.29-0.044-0.651-0.246-0.794-0.49
		C71.063,23.99,71.024,23.539,70.919,23.146z"/>
	<path fill-rule="evenodd" clip-rule="evenodd" fill="#FFFFFF" d="M87.05,20.432c-0.325,0.316-1.141,0.272-1.443-0.078
		c-0.234-0.27-0.274-1.078-0.065-1.319c0.263-0.303,1.067-0.293,1.353,0.019C87.199,19.388,87.292,20.198,87.05,20.432z"/>
	<path fill-rule="evenodd" clip-rule="evenodd" fill="#FFFFFF" d="M65.014,36.391c-0.378-0.357-0.474-1.237-0.225-1.602
		c0.033-0.05,0.077-0.105,0.13-0.125c0.549-0.216,0.846,0.244,1.201,0.487c0.318,0.217,0.322,0.741,0.104,1.173
		c-0.18,0.354-0.505,0.32-0.801,0.278C65.254,36.579,65.102,36.439,65.014,36.391z"/>
	<path fill-rule="evenodd" clip-rule="evenodd" fill="#FFFFFF" d="M35.004,48.581c-0.551,0.54-1.021,0.648-1.355,0.313
		c-0.337-0.339-0.282-1.1,0.11-1.517c0.296-0.315,0.948-0.338,1.252-0.045C35.314,47.626,35.311,48.28,35.004,48.581z"/>
	<path fill-rule="evenodd" clip-rule="evenodd" fill="#FFFFFF" d="M62.092,30.765c-0.361-0.366-0.411-1.009-0.106-1.348
		c0.299-0.334,0.972-0.233,1.395,0.21c0.299,0.314,0.272,0.927-0.055,1.254C62.997,31.21,62.481,31.161,62.092,30.765z"/>
	<path fill-rule="evenodd" clip-rule="evenodd" fill="#FFFFFF" d="M67.923,32.008c-0.367-0.387-0.445-1.136-0.148-1.435
		c0.265-0.267,0.887-0.235,1.15,0.06c0.516,0.577,0.563,1.157,0.128,1.551C68.722,32.484,68.315,32.42,67.923,32.008z"/>
	<path fill-rule="evenodd" clip-rule="evenodd" fill="#FFFFFF" d="M37.012,71.914c-0.298-0.318-0.208-0.875,0.097-1.053
		c0.311-0.18,0.629-0.35,0.95-0.516c0.38-0.195,0.769-0.068,0.935,0.293c0.181,0.395,0.068,0.752-0.321,0.922
		c-0.336,0.148-0.68,0.295-1.035,0.377C37.417,71.99,37.17,71.924,37.012,71.914z"/>
	<path fill-rule="evenodd" clip-rule="evenodd" fill="#FFFFFF" d="M77.007,18.915c0.414-0.399,1.043-0.469,1.313-0.146
		c0.242,0.291,0.23,1.117-0.02,1.388c-0.307,0.331-0.965,0.386-1.248,0.105C76.566,19.781,76.553,19.354,77.007,18.915z"/>
	<path fill-rule="evenodd" clip-rule="evenodd" fill="#FFFFFF" d="M64.549,41.717c0.12-0.348,0.228-0.66,0.362-1.05
		c0.359,0.037,0.709,0.072,1.031,0.105c0.492,0.835,0.486,1.326,0.003,1.645C65.482,42.723,65.079,42.532,64.549,41.717z"/>
	<path fill-rule="evenodd" clip-rule="evenodd" fill="#FFFFFF" d="M37.444,65.852c0.584-0.305,1.059-0.57,1.553-0.795
		c0.099-0.045,0.307,0.039,0.405,0.129c0.301,0.275,0.266,0.805-0.115,1.041c-0.411,0.252-0.867,0.457-1.33,0.594
		c-0.162,0.049-0.515-0.121-0.579-0.273C37.295,66.348,37.415,66.064,37.444,65.852z"/>
	<path fill-rule="evenodd" clip-rule="evenodd" fill="#FFFFFF" d="M40.188,51.26c0.925-0.24,1.708-0.018,1.952,0.492
		c0.209,0.439,0.122,0.688-0.312,0.881c-0.511,0.23-1.09,0.051-1.338-0.453C40.358,51.914,40.3,51.609,40.188,51.26z"/>
	<path fill-rule="evenodd" clip-rule="evenodd" fill="#FFFFFF" d="M64.599,38.441c0.46-0.082,0.84-0.218,1.211-0.198
		c0.459,0.023,0.792,0.436,0.819,0.859c0.028,0.445-0.261,0.68-0.614,0.826c-0.385,0.159-0.828-0.07-1.056-0.527
		C64.838,39.157,64.765,38.888,64.599,38.441z"/>
	<path fill-rule="evenodd" clip-rule="evenodd" fill="#FFFFFF" d="M35.673,57.076c-0.448-0.307-0.874-0.539-1.223-0.857
		c-0.274-0.25-0.282-0.609-0.006-0.91c0.257-0.281,0.574-0.344,0.923-0.193C36.126,55.443,36.285,56.141,35.673,57.076z"/>
	<path fill-rule="evenodd" clip-rule="evenodd" fill="#FFFFFF" d="M43.857,50.367c0.415,0.188,0.764,0.311,1.076,0.496
		c0.226,0.133,0.464,0.314,0.593,0.535c0.178,0.305-0.015,0.623-0.352,0.705c-0.539,0.131-1.353-0.201-1.626-0.67
		C43.28,50.977,43.595,50.688,43.857,50.367z"/>
	<path fill-rule="evenodd" clip-rule="evenodd" fill="#FFFFFF" d="M67.698,27.422c-0.431-0.43-0.455-0.934-0.063-1.357
		c0.218-0.236,0.848-0.175,1.156,0.112c0.288,0.268,0.309,1.105,0.034,1.36C68.528,27.812,68.04,27.762,67.698,27.422z"/>
	<path fill-rule="evenodd" clip-rule="evenodd" fill="#FFFFFF" d="M37,52.074c-0.323,0.33-0.782,0.381-1.065,0.121
		c-0.358-0.334-0.336-1.117,0.043-1.49c0.311-0.309,0.844-0.299,1.139,0.021C37.404,51.037,37.345,51.721,37,52.074z"/>
	<path fill-rule="evenodd" clip-rule="evenodd" fill="#FFFFFF" d="M75.9,18.792c0.348,0.361,0.352,0.842,0.009,1.15
		c-0.372,0.333-0.898,0.394-1.174,0.133c-0.385-0.361-0.527-1.091-0.26-1.319C74.9,18.394,75.533,18.41,75.9,18.792z"/>
	<path fill-rule="evenodd" clip-rule="evenodd" fill="#FFFFFF" d="M68.997,42.372c-0.528-0.581-0.451-1.021,0.057-1.279
		c0.452-0.229,1.093-0.137,1.335,0.268c0.125,0.207,0.15,0.518,0.117,0.768c-0.045,0.328-0.328,0.425-0.637,0.385
		C69.524,42.467,69.181,42.402,68.997,42.372z"/>
	<path fill-rule="evenodd" clip-rule="evenodd" fill="#FFFFFF" d="M71.373,19.062c0.791-0.376,1.263-0.38,1.525-0.063
		c0.229,0.276,0.242,0.814,0.024,1.11c-0.27,0.365-0.626,0.484-1.047,0.321C71.198,20.166,71.484,19.572,71.373,19.062z"/>
	<path fill-rule="evenodd" clip-rule="evenodd" fill="#FFFFFF" d="M37.063,47.976c1.155,0.527,1.376,1.071,0.82,2.018
		C36.61,49.839,36.291,49.052,37.063,47.976z"/>
	<path fill-rule="evenodd" clip-rule="evenodd" fill="#FFFFFF" d="M11.903,77.361c0.391-0.051,0.78-0.129,1.172-0.135
		c0.174-0.004,0.351,0.139,0.525,0.213c-0.094,0.172-0.147,0.41-0.292,0.502c-0.408,0.256-0.86,0.447-1.287,0.674
		c-0.43,0.229-0.609,0.189-0.822-0.201c-0.259-0.482-0.225-0.686,0.2-0.912c0.156-0.084,0.351-0.096,0.529-0.141H11.903z"/>
	<path fill-rule="evenodd" clip-rule="evenodd" fill="#FFFFFF" d="M82.163,16.339c0.744-0.203,1.197-0.328,1.499,0.208
		c0.237,0.422,0.177,0.988-0.2,1.252c-0.203,0.142-0.521,0.24-0.747,0.186c-0.162-0.04-0.311-0.345-0.372-0.56
		C82.243,17.076,82.219,16.704,82.163,16.339z"/>
	<path fill-rule="evenodd" clip-rule="evenodd" fill="#FFFFFF" d="M25.954,74.459c0.446,0.463,0.39,0.75-0.048,0.949
		c-0.629,0.285-1.734-0.016-1.588-0.879c0.089-0.523,0.438-0.768,0.912-0.539C25.529,74.137,25.794,74.354,25.954,74.459z"/>
	<path fill-rule="evenodd" clip-rule="evenodd" fill="#FFFFFF" d="M68.258,46.704c0.335,0.292,0.361,0.614,0.139,0.993
		c-0.172,0.29-0.381,0.515-0.736,0.424c-0.394-0.101-0.636-0.367-0.649-0.795c-0.005-0.123,0.006-0.247,0.012-0.37
		c0.013-0.26-0.169-0.63,0.206-0.709c0.223-0.047,0.499,0.127,0.742,0.227C68.079,46.518,68.163,46.625,68.258,46.704z"/>
	<path fill-rule="evenodd" clip-rule="evenodd" fill="#FFFFFF" d="M64.527,32.161c1.471-0.729,1.558-0.255,1.652,1.053
		c0.033,0.461-0.333,0.689-0.735,0.446C64.919,33.342,64.589,32.866,64.527,32.161z"/>
	<path fill-rule="evenodd" clip-rule="evenodd" fill="#FFFFFF" d="M67.574,21.491c-0.268-0.29-0.277-0.719-0.021-0.983
		c0.28-0.291,1.237-0.213,1.515,0.124c0.262,0.318,0.219,0.792-0.098,1.059C68.634,21.974,67.927,21.874,67.574,21.491z"/>
	<path fill-rule="evenodd" clip-rule="evenodd" fill="#FFFFFF" d="M33.813,53.27c-0.53-0.084-0.824-0.43-1.045-0.902
		c-0.179-0.383-0.097-0.643,0.248-0.848c0.386-0.23,0.809-0.152,1.055,0.193C34.413,52.189,34.338,52.658,33.813,53.27z"/>
	<path fill-rule="evenodd" clip-rule="evenodd" fill="#FFFFFF" d="M65.509,24.271c-0.397-0.082-0.778-0.095-1.09-0.249
		c-0.205-0.102-0.437-0.412-0.428-0.619c0.012-0.253,0.211-0.58,0.428-0.716c0.173-0.108,0.543-0.058,0.743,0.062
		C65.669,23.05,65.753,23.467,65.509,24.271z"/>
	<path fill-rule="evenodd" clip-rule="evenodd" fill="#FFFFFF" d="M31.814,60.428c0.2,0.785,0.193,0.801-0.387,0.979
		c-0.262,0.08-0.523,0.168-0.791,0.227c-0.47,0.104-0.935-0.287-0.882-0.762c0.03-0.279,0.157-0.525,0.529-0.502
		C30.797,60.402,31.313,60.41,31.814,60.428z"/>
	<path fill-rule="evenodd" clip-rule="evenodd" fill="#FFFFFF" d="M39.722,72.145c0.479,0.523,0.206,1.576-0.331,1.756
		c-0.108,0.035-0.259,0.041-0.357-0.006c-0.446-0.217-0.4-0.674-0.417-1.051c-0.014-0.324,0.055-0.734,0.46-0.814
		C39.313,71.982,39.587,72.117,39.722,72.145z"/>
	<path fill-rule="evenodd" clip-rule="evenodd" fill="#FFFFFF" d="M28.9,73.918c0.398,0.453,0.41,0.924,0.252,1.41
		c-0.153,0.467-0.593,0.582-0.92,0.217c-0.283-0.316-0.514-0.689-0.343-1.162C28.061,73.908,28.427,73.85,28.9,73.918z"/>
	<path fill-rule="evenodd" clip-rule="evenodd" fill="#FFFFFF" d="M37.461,53.182c0.324-0.336,0.679-0.326,1.033,0.027
		c0.361,0.359,0.318,0.959-0.107,1.404c-0.25,0.262-0.517,0.324-0.794,0.035C37.107,54.143,37.059,53.598,37.461,53.182z"/>
	<path fill-rule="evenodd" clip-rule="evenodd" fill="#FFFFFF" d="M57.161,47.281c-0.356-0.352-0.449-0.881-0.197-1.152
		c0.3-0.329,0.89-0.327,1.242,0.004c0.363,0.339,0.375,0.89,0.027,1.229C57.972,47.618,57.465,47.58,57.161,47.281z"/>
	<path fill-rule="evenodd" clip-rule="evenodd" fill="#FFFFFF" d="M13.747,67.398c-0.25,0.064-0.513,0.215-0.734,0.168
		c-0.333-0.07-0.315-0.396-0.274-0.686c0.035-0.242,0.033-0.492,0.095-0.727c0.093-0.352,0.289-0.625,0.72-0.531
		c0.422,0.09,0.711,0.494,0.6,0.891C14.073,66.801,13.905,67.062,13.747,67.398z"/>
	<path fill-rule="evenodd" clip-rule="evenodd" fill="#FFFFFF" d="M80.342,19.004c-0.257,0.26-0.696,0.187-1.036-0.175
		c-0.313-0.333-0.282-0.896,0.069-1.23c0.243-0.232,0.73-0.226,0.999,0.014C80.756,17.952,80.74,18.601,80.342,19.004z"/>
	<path fill-rule="evenodd" clip-rule="evenodd" fill="#FFFFFF" d="M37.287,75.928c0.672,0.457,0.904,0.828,0.716,1.229
		c-0.151,0.322-0.401,0.564-0.794,0.533c-0.427-0.033-0.672-0.301-0.755-0.701C36.37,76.586,36.663,76.232,37.287,75.928z"/>
	<path fill-rule="evenodd" clip-rule="evenodd" fill="#FFFFFF" d="M62.161,46.711c0.212,0.034,0.429,0.051,0.635,0.104
		c0.458,0.118,0.711,0.645,0.531,1.072c-0.148,0.355-0.576,0.473-1.021,0.271c-0.313-0.142-0.614-0.295-0.627-0.709
		c-0.013-0.375,0.069-0.677,0.507-0.74L62.161,46.711z"/>
	<path fill-rule="evenodd" clip-rule="evenodd" fill="#FFFFFF" d="M18.169,68.412c0.837,0.141,0.935,0.551,0.916,1.008
		c-0.019,0.43-0.276,0.676-0.661,0.777c-0.377,0.1-0.553-0.18-0.692-0.461C17.463,69.191,17.542,68.959,18.169,68.412z"/>
	<path fill-rule="evenodd" clip-rule="evenodd" fill="#FFFFFF" d="M31.75,79.443c-0.371-0.346-0.563-0.734-0.336-1.232
		c0.204-0.443,0.656-0.486,0.93-0.076c0.135,0.201,0.191,0.459,0.337,0.65c0.287,0.375,0.21,0.734-0.106,0.973
		C32.213,80.029,31.971,79.684,31.75,79.443z"/>
	<path fill-rule="evenodd" clip-rule="evenodd" fill="#FFFFFF" d="M62.186,46.71c-0.076-0.052-0.149-0.111-0.23-0.154
		c-1.014-0.533-1.042-0.98-0.066-1.756c0.106,0.084,0.225,0.169,0.334,0.265c0.656,0.569,0.668,0.731,0.11,1.43
		c-0.058,0.072-0.115,0.145-0.172,0.217L62.186,46.71z"/>
	<path fill-rule="evenodd" clip-rule="evenodd" fill="#FFFFFF" d="M31.072,71.664c0.203-0.338,0.465-0.584,0.887-0.469
		c0.453,0.125,0.865,0.344,1.044,0.822c0.141,0.377-0.085,0.648-0.5,0.631C31.833,72.621,31.344,72.328,31.072,71.664z"/>
	<path fill-rule="evenodd" clip-rule="evenodd" fill="#FFFFFF" d="M33.234,75.537c-0.406,0.307-0.76,0.693-1.299,0.303
		c-0.367-0.266-0.33-0.619-0.209-0.988c0.127-0.391,0.46-0.525,0.796-0.455C33.117,74.518,33.166,75.039,33.234,75.537z"/>
	<path fill-rule="evenodd" clip-rule="evenodd" fill="#FFFFFF" d="M51.919,48.148c-0.218,0.242-0.793,0.229-1.071-0.022
		c-0.283-0.257-0.303-0.874-0.037-1.167c0.227-0.251,0.797-0.236,1.089,0.027C52.191,47.249,52.201,47.834,51.919,48.148z"/>
	<path fill-rule="evenodd" clip-rule="evenodd" fill="#FFFFFF" d="M20.927,84.041c-1.192,0.404-1.512,0.076-1.245-1.273
		C20.672,82.52,21.067,82.924,20.927,84.041z"/>
	<path fill-rule="evenodd" clip-rule="evenodd" fill="#FFFFFF" d="M35.127,78.902c-0.322-0.328-0.313-0.943,0.019-1.24
		c0.294-0.264,0.653-0.234,0.972,0.082c0.339,0.334,0.397,0.986,0.109,1.229C35.973,79.189,35.369,79.15,35.127,78.902z"/>
	<path fill-rule="evenodd" clip-rule="evenodd" fill="#FFFFFF" d="M27.198,78.047c0.106,0.416,0.378,0.869,0.249,1.115
		c-0.229,0.438-0.722,0.117-1.071,0.014c-0.327-0.096-0.605-0.385-0.506-0.766c0.06-0.23,0.264-0.543,0.459-0.592
		C26.562,77.76,26.856,77.945,27.198,78.047z"/>
	<path fill-rule="evenodd" clip-rule="evenodd" fill="#FFFFFF" d="M63.474,49.942c0.943-0.233,1.433,0.053,1.463,0.759
		c0.016,0.348-0.111,0.619-0.441,0.736c-0.354,0.127-0.636-0.064-0.755-0.365C63.599,50.715,63.557,50.318,63.474,49.942z"/>
	<path fill-rule="evenodd" clip-rule="evenodd" fill="#FFFFFF" d="M65.294,49.333c-0.29,0.287-0.783,0.281-1.054-0.013
		c-0.217-0.236-0.171-0.834,0.086-1.112c0.282-0.305,0.785-0.308,1.065-0.008C65.708,48.542,65.671,48.961,65.294,49.333z"/>
	<path fill-rule="evenodd" clip-rule="evenodd" fill="#FFFFFF" d="M70.769,26.713c-0.651-0.691-0.654-0.779-0.349-1.326
		c0.201-0.359,0.552-0.402,0.778-0.254c0.247,0.162,0.449,0.506,0.513,0.805C71.793,26.328,71.468,26.551,70.769,26.713z"/>
	<path fill-rule="evenodd" clip-rule="evenodd" fill="#FFFFFF" d="M32.323,55.09c0.458,0.32,0.743,0.488,0.992,0.701
		c0.33,0.283,0.362,0.668,0.115,0.992c-0.119,0.156-0.419,0.262-0.625,0.246c-0.419-0.031-0.667-0.34-0.67-0.752
		C32.132,55.953,32.232,55.629,32.323,55.09z"/>
	<path fill-rule="evenodd" clip-rule="evenodd" fill="#FFFFFF" d="M11.929,77.361c-0.3-0.375-0.642-0.727-0.882-1.139
		c-0.09-0.154-0.003-0.609,0.099-0.645c0.296-0.1,0.651-0.109,0.961-0.045c0.132,0.027,0.321,0.354,0.285,0.496
		c-0.113,0.457-0.319,0.891-0.49,1.332H11.929z"/>
	<path fill-rule="evenodd" clip-rule="evenodd" fill="#FFFFFF" d="M15.081,70.812c-0.302-0.32-0.305-0.771-0.006-1.062
		c0.344-0.334,0.704-0.369,0.963-0.092c0.292,0.311,0.367,1.156,0.12,1.363C15.905,71.234,15.38,71.133,15.081,70.812z"/>
	<path fill-rule="evenodd" clip-rule="evenodd" fill="#FFFFFF" d="M17.915,78.559c-0.195,0.428-0.085,1.064-0.775,1.168
		c-0.392,0.059-0.568-0.252-0.612-0.545c-0.045-0.303-0.044-0.688,0.108-0.928C16.833,77.947,17.299,78.086,17.915,78.559z"/>
	<path fill-rule="evenodd" clip-rule="evenodd" fill="#FFFFFF" d="M13.298,75.982c-0.125-0.174-0.313-0.334-0.356-0.527
		c-0.047-0.213-0.034-0.592,0.081-0.652c0.204-0.105,0.575-0.121,0.749,0.002c0.258,0.186,0.46,0.502,0.583,0.805
		c0.071,0.178,0.014,0.506-0.115,0.646c-0.22,0.24-0.502,0.154-0.714-0.1c-0.059-0.072-0.129-0.133-0.195-0.199
		C13.319,75.967,13.309,75.975,13.298,75.982z"/>
	<path fill-rule="evenodd" clip-rule="evenodd" fill="#FFFFFF" d="M26.972,83.105c-0.269,0.293-0.796,0.344-1.101,0.107
		c-0.219-0.17-0.238-0.967-0.029-1.213c0.2-0.238,0.788-0.279,1.023-0.07C27.163,82.193,27.221,82.834,26.972,83.105z"/>
	<path fill-rule="evenodd" clip-rule="evenodd" fill="#FFFFFF" d="M19.208,72.107c0.268,0.27,0.206,0.992-0.107,1.266
		c-0.233,0.201-0.687,0.172-0.928-0.062c-0.34-0.326-0.328-0.91,0.026-1.236C18.446,71.846,18.964,71.863,19.208,72.107z"/>
	<path fill-rule="evenodd" clip-rule="evenodd" fill="#FFFFFF" d="M32.141,65.189c-0.483,0.439-1.232,0.502-1.591,0.082
		c-0.14-0.162-0.253-0.48-0.185-0.65c0.07-0.174,0.379-0.35,0.582-0.348c0.362,0.006,0.735,0.105,1.079,0.232
		C32.327,64.619,32.364,64.984,32.141,65.189z"/>
	<path fill-rule="evenodd" clip-rule="evenodd" fill="#FFFFFF" d="M37.174,59.201c-0.012,0.342,0.056,0.611-0.045,0.779
		c-0.182,0.299-0.427,0.596-0.716,0.785c-0.265,0.174-0.698-0.094-0.797-0.404c-0.111-0.35,0.061-0.797,0.402-0.912
		C36.329,59.342,36.665,59.309,37.174,59.201z"/>
	<path fill-rule="evenodd" clip-rule="evenodd" fill="#FFFFFF" d="M31.2,54.945c-0.09,0.012-0.323,0.1-0.52,0.049
		c-0.271-0.072-0.338-0.318-0.26-0.596c0.023-0.086,0.034-0.186,0.013-0.271c-0.098-0.395,0.035-0.662,0.421-0.785
		c0.361-0.113,0.581,0.125,0.77,0.367c0.22,0.285,0.167,0.568-0.074,0.824C31.466,54.623,31.391,54.721,31.2,54.945z"/>
	<path fill-rule="evenodd" clip-rule="evenodd" fill="#FFFFFF" d="M38.61,61.607c-0.546,0.049-0.879-0.35-1.201-0.676
		c-0.215-0.221-0.229-0.584,0.03-0.842c0.261-0.258,0.566-0.191,0.844-0.018C38.795,60.395,38.886,60.824,38.61,61.607z"/>
	<path fill-rule="evenodd" clip-rule="evenodd" fill="#FFFFFF" d="M18.602,81.918c-0.46,0.52-0.937,0.668-1.51,0.367
		c-0.229-0.801-0.175-1.154,0.198-1.305C17.736,80.799,18.146,81.084,18.602,81.918z"/>
	<path fill-rule="evenodd" clip-rule="evenodd" fill="#FFFFFF" d="M68.701,34.175c-0.337,0.338-0.567,0.349-0.854,0.04
		c-0.374-0.402-0.445-0.863-0.183-1.15c0.325-0.353,0.781-0.402,1.056-0.115C69.099,33.346,69.091,33.783,68.701,34.175z"/>
	<path fill-rule="evenodd" clip-rule="evenodd" fill="#FFFFFF" d="M55.725,46.452c-0.782,0.199-1.111,0.136-1.302-0.219
		c-0.191-0.357-0.042-0.665,0.587-1.202C55.848,45.396,55.885,45.47,55.725,46.452z"/>
	<path fill-rule="evenodd" clip-rule="evenodd" fill="#FFFFFF" d="M32.735,82.99c0.074,0.471,0.354,0.953-0.195,1.256
		c-0.296,0.162-0.653,0.191-0.908-0.139c-0.243-0.314-0.33-0.67-0.102-1.016C31.842,82.621,32.259,82.793,32.735,82.99z"/>
	<path fill-rule="evenodd" clip-rule="evenodd" fill="#FFFFFF" d="M20.188,79.914c-0.333,0.008-0.681,0.018-1.121,0.027
		c-0.046-0.518-0.086-0.955-0.124-1.379C20.022,78.338,20.361,78.719,20.188,79.914z"/>
	<path fill-rule="evenodd" clip-rule="evenodd" fill="#FFFFFF" d="M67.169,42.353c0.307-0.324,0.764-0.344,1.044-0.046
		c0.273,0.292,0.222,0.846-0.108,1.171c-0.261,0.257-0.572,0.227-0.88-0.086C66.874,43.037,66.855,42.683,67.169,42.353z"/>
	<path fill-rule="evenodd" clip-rule="evenodd" fill="#FFFFFF" d="M36.095,67.596c-0.286,0.684-0.671,0.982-1.099,0.932
		c-0.338-0.041-0.524-0.357-0.655-1.131C34.97,66.928,35.47,67.436,36.095,67.596z"/>
	<path fill-rule="evenodd" clip-rule="evenodd" fill="#FFFFFF" d="M57.927,49.67c-0.429,0.193-0.687,0.738-1.241,0.365
		c-0.354-0.237-0.352-0.605-0.211-0.904c0.098-0.209,0.375-0.408,0.608-0.462C57.449,48.583,57.707,48.911,57.927,49.67z"/>
	<path fill-rule="evenodd" clip-rule="evenodd" fill="#FFFFFF" d="M18.432,76.293c0.333,0.268,0.303,0.545,0.065,0.807
		c-0.222,0.246-0.898,0.186-1.183-0.082c-0.276-0.262-0.301-0.744-0.052-0.99C17.545,75.746,18.021,75.859,18.432,76.293z"/>
	<path fill-rule="evenodd" clip-rule="evenodd" fill="#FFFFFF" d="M65.201,28.621c-0.258-0.271-0.268-0.775-0.021-1.014
		c0.234-0.225,0.92-0.133,1.171,0.182c0.186,0.231,0.265,0.496,0.018,0.75C66.05,28.868,65.473,28.907,65.201,28.621z"/>
	<path fill-rule="evenodd" clip-rule="evenodd" fill="#FFFFFF" d="M34.565,77.547c-1.075-0.338-1.222-0.514-1.14-1.158
		c0.052-0.41,0.3-0.584,0.673-0.605c0.414-0.023,0.513,0.268,0.515,0.6C34.615,76.758,34.584,77.135,34.565,77.547z"/>
	<path fill-rule="evenodd" clip-rule="evenodd" fill="#FFFFFF" d="M84.886,22.179c0.197,0.587,0.775,1.051,0.153,1.626
		c-1.043-0.18-1.061-0.203-0.975-1.338c0.116-0.059,0.246-0.138,0.386-0.191C84.56,22.233,84.682,22.222,84.886,22.179z"/>
	<path fill-rule="evenodd" clip-rule="evenodd" fill="#FFFFFF" d="M23.093,75.801c-0.252,0.266-0.676,0.32-0.919,0.119
		c-0.296-0.244-0.327-0.885-0.059-1.189c0.231-0.264,0.753-0.273,1.005-0.02C23.391,74.982,23.378,75.5,23.093,75.801z"/>
	<path fill-rule="evenodd" clip-rule="evenodd" fill="#FFFFFF" d="M17.772,85.855c-0.231-0.254-0.187-0.744,0.089-0.986
		c0.289-0.254,0.675-0.266,0.909-0.027c0.299,0.303,0.342,0.83,0.087,1.08C18.601,86.176,18.034,86.141,17.772,85.855z"/>
	<path fill-rule="evenodd" clip-rule="evenodd" fill="#FFFFFF" d="M37.052,64.201c-0.374-0.393-0.403-0.709-0.095-1.041
		c0.241-0.258,0.587-0.242,0.885,0.043c0.313,0.299,0.391,0.904,0.153,1.174C37.757,64.643,37.416,64.578,37.052,64.201z"/>
	<path fill-rule="evenodd" clip-rule="evenodd" fill="#FFFFFF" d="M75.932,22.627c-0.316,0.167-0.527,0.295-0.75,0.394
		c-0.468,0.207-0.786-0.035-0.731-0.542c0.063-0.6,0.497-0.818,1.373-0.658C75.856,22.07,75.893,22.334,75.932,22.627z"/>
	<path fill-rule="evenodd" clip-rule="evenodd" fill="#FFFFFF" d="M21.859,83.545c0.594,0.115,0.86,0.48,0.854,0.98
		c-0.002,0.176-0.267,0.482-0.423,0.49c-0.264,0.012-0.616-0.096-0.79-0.283C21.217,84.43,21.358,84.068,21.859,83.545z"/>
	<path fill-rule="evenodd" clip-rule="evenodd" fill="#FFFFFF" d="M27.334,85.719c-0.27-0.02-0.535-0.039-0.826-0.061
		c-0.128-0.295-0.247-0.57-0.362-0.838c0.277-0.404,0.578-0.729,1.133-0.496C27.594,84.752,27.617,85.201,27.334,85.719z"/>
	<path fill-rule="evenodd" clip-rule="evenodd" fill="#FFFFFF" d="M42.254,59.096c-0.683-0.588-0.723-0.809-0.236-1.314
		c0.256-0.268,0.663-0.295,0.877-0.059c0.254,0.277,0.271,0.896,0,1.08c-0.2,0.135-0.445,0.197-0.67,0.291L42.254,59.096z"/>
	<path fill-rule="evenodd" clip-rule="evenodd" fill="#FFFFFF" d="M34.869,63.92c0.399-0.229,0.717-0.609,1.05-0.244
		c0.189,0.209,0.286,0.645,0.203,0.908c-0.063,0.201-0.497,0.443-0.724,0.406C34.828,64.898,35.015,64.332,34.869,63.92z"/>
	<path fill-rule="evenodd" clip-rule="evenodd" fill="#FFFFFF" d="M18.93,74.08c0.229,0.244,0.172,0.854-0.101,1.084
		c-0.253,0.213-0.625,0.146-0.886-0.16c-0.284-0.332-0.286-0.721-0.004-0.977C18.216,73.777,18.667,73.801,18.93,74.08z"/>
	<path fill-rule="evenodd" clip-rule="evenodd" fill="#FFFFFF" d="M62.369,35.204c0.055-0.555,0.104-1.051,0.176-1.788
		c0.459,0.357,0.729,0.565,0.97,0.753C63.243,35.333,63.222,35.354,62.369,35.204z"/>
	<path fill-rule="evenodd" clip-rule="evenodd" fill="#FFFFFF" d="M36.172,71.062c-0.644,0.146-1.288-0.203-1.364-0.705
		c-0.061-0.396,0.23-0.555,0.51-0.672c0.301-0.129,0.545-0.004,0.675,0.301c0.035,0.082,0.04,0.182,0.054,0.271
		C36.09,70.527,36.131,70.797,36.172,71.062z"/>
	<path fill-rule="evenodd" clip-rule="evenodd" fill="#FFFFFF" d="M25.327,87.576c-0.234,0.221-0.691,0.205-0.92-0.027
		c-0.253-0.26-0.254-0.844-0.001-1.096c0.216-0.213,0.612-0.201,0.829,0.023C25.491,86.744,25.544,87.371,25.327,87.576z"/>
	<path fill-rule="evenodd" clip-rule="evenodd" fill="#FFFFFF" d="M16.153,76.391c-0.254,0.229-0.61,0.17-0.876-0.145
		c-0.309-0.365-0.314-0.801-0.004-1.049c0.28-0.225,0.562-0.209,0.818,0.039C16.416,75.551,16.442,76.131,16.153,76.391z"/>
	<path fill-rule="evenodd" clip-rule="evenodd" fill="#FFFFFF" d="M30.762,59.074c-0.943-0.154-1.192-0.355-1.097-0.844
		c0.064-0.326,0.539-0.562,0.887-0.441C30.938,57.926,31.038,58.459,30.762,59.074z"/>
	<path fill-rule="evenodd" clip-rule="evenodd" fill="#FFFFFF" d="M33.735,78.158c0.79,0.32,1.021,0.658,0.808,1.121
		c-0.167,0.361-0.472,0.373-0.779,0.256C33.336,79.369,33.327,78.938,33.735,78.158z"/>
	<path fill-rule="evenodd" clip-rule="evenodd" fill="#FFFFFF" d="M32.183,57.193c0.479,0.762,0.496,1.041,0.102,1.281
		c-0.328,0.201-0.725,0.131-0.869-0.152C31.192,57.879,31.409,57.539,32.183,57.193z"/>
	<path fill-rule="evenodd" clip-rule="evenodd" fill="#FFFFFF" d="M24.805,84.525c0.31,0.252,0.291,0.518,0.027,0.785
		c-0.272,0.275-0.7,0.336-0.916,0.139c-0.227-0.211-0.276-0.719-0.091-0.941C24.061,84.223,24.483,84.232,24.805,84.525z"/>
	<path fill-rule="evenodd" clip-rule="evenodd" fill="#FFFFFF" d="M34.237,60.041c-0.557-0.002-0.863-0.238-0.921-0.691
		c-0.027-0.201,0.055-0.533,0.196-0.609c0.157-0.088,0.488-0.023,0.651,0.098C34.603,59.168,34.443,59.59,34.237,60.041z"/>
	<path fill-rule="evenodd" clip-rule="evenodd" fill="#FFFFFF" d="M26.424,80.848c-0.339,0.287-0.938,0.26-1.018-0.002
		c-0.075-0.256-0.044-0.602,0.077-0.84c0.109-0.217,0.778-0.09,0.883,0.176C26.455,80.406,26.414,80.684,26.424,80.848z"/>
	<path fill-rule="evenodd" clip-rule="evenodd" fill="#FFFFFF" d="M34.577,62.205c-0.653-0.141-0.944-0.537-0.801-1.053
		c0.102-0.367,0.399-0.449,0.697-0.182C34.897,61.354,34.775,61.775,34.577,62.205z"/>
	<path fill-rule="evenodd" clip-rule="evenodd" fill="#FFFFFF" d="M35.927,79.566c0.876,0.617,0.897,0.703,0.405,1.48
		c-0.281-0.207-0.556-0.414-0.917-0.682C35.589,80.096,35.741,79.857,35.927,79.566z"/>
	<path fill-rule="evenodd" clip-rule="evenodd" fill="#FFFFFF" d="M43.331,47.603c0.243-0.105,0.482-0.209,0.749-0.325
		c0.136,0.169,0.317,0.295,0.34,0.446c0.029,0.18-0.079,0.381-0.127,0.573c-0.168-0.078-0.354-0.135-0.503-0.241
		C43.631,47.943,43.507,47.781,43.331,47.603z"/>
	<path fill-rule="evenodd" clip-rule="evenodd" fill="#FFFFFF" d="M37.492,68.52c0.065-0.4,0.089-0.676,0.17-0.932
		c0.015-0.049,0.293-0.084,0.393-0.023c0.246,0.148,0.289,0.617,0.067,0.812C38.019,68.469,37.819,68.451,37.492,68.52z"/>
	<path fill-rule="evenodd" clip-rule="evenodd" fill="#FFFFFF" d="M20.416,76.572c-0.423,0.326-0.667,0.178-0.827-0.129
		c-0.056-0.105-0.019-0.377,0.042-0.4c0.135-0.053,0.348-0.047,0.461,0.033C20.226,76.17,20.289,76.367,20.416,76.572z"/>
	<path fill-rule="evenodd" clip-rule="evenodd" fill="#FFFFFF" d="M25.007,81.674c-0.119,0.43-0.331,0.57-0.638,0.447
		c-0.08-0.031-0.152-0.293-0.104-0.385C24.444,81.395,24.701,81.541,25.007,81.674z"/>
	<path fill-rule="evenodd" clip-rule="evenodd" fill="#FFFFFF" d="M88.69,18.323c-0.495,0.276-0.825,0.135-1.127-0.48
		c0.235,0.105,0.381,0.171,0.526,0.233C88.253,18.145,88.418,18.211,88.69,18.323z"/>
	<path fill-rule="evenodd" clip-rule="evenodd" fill="#FFFFFF" d="M78.698,21.604c-0.171-0.09-0.311-0.123-0.377-0.211
		c-0.054-0.072-0.017-0.209-0.02-0.317c0.11,0.006,0.229-0.01,0.327,0.029C78.666,21.121,78.654,21.259,78.698,21.604z"/>
</g>
</svg>
