<?xml version="1.0" encoding="utf-8"?>
<!-- Generator: Adobe Illustrator 16.0.0, SVG Export Plug-In . SVG Version: 6.00 Build 0)  -->
<!DOCTYPE svg PUBLIC "-//W3C//DTD SVG 1.0//EN" "http://www.w3.org/TR/2001/REC-SVG-20010904/DTD/svg10.dtd">
<svg version="1.0" id="Layer_1" xmlns="http://www.w3.org/2000/svg" xmlns:xlink="http://www.w3.org/1999/xlink" x="0px" y="0px"
	 width="100px" height="100px" viewBox="0 0 100 100" enable-background="new 0 0 100 100" xml:space="preserve">
<path fill-rule="evenodd" clip-rule="evenodd" fill="#FED402" d="M59.208,72.118c0.559,0.293,0.941,0.479,1.311,0.688
	c1.326,0.759,1.688,1.984,0.469,3.521c-0.351,0.442-0.803,0.803-1.194,1.216c-0.792,0.835-0.772,1.009,0.124,1.651
	c0.201,0.145,0.429,0.282,0.567,0.477c0.466,0.645,0.352,1.567-0.301,2.12c-0.575,0.487-1.203,0.87-1.981,1.045
	c-0.727,0.163-1.422,0.5-2.104,0.815c-0.278,0.129-0.488,0.403-0.691,0.579c0.024,0.906,0.543,1.497,1.078,2.006
	c0.779,0.744,0.912,1.546,0.63,2.539c-0.29,1.021-0.866,1.833-1.703,2.417c-0.902,0.63-1.906,0.51-2.878,0.088
	c-0.164-0.071-0.301-0.206-0.463-0.28c-0.82-0.374-1.351-0.141-1.716,0.708c-0.269,0.62-0.518,1.261-0.873,1.831
	c-0.787,1.261-1.548,1.449-2.913,0.891c-0.644-0.264-1.258-0.554-1.688-1.117c-0.168-0.22-0.275-0.486-0.4-0.736
	c-0.288-0.568-0.533-1.163-0.863-1.706c-0.237-0.39-0.654-0.369-0.957,0.114c-0.487,0.776-1.128,1.015-2.008,0.934
	c-0.855-0.077-1.739-0.783-1.813-1.649c-0.067-0.785-0.076-1.577-0.067-2.366c0.013-1.068-0.388-1.516-1.453-1.547
	c-1.304-0.037-2.171-0.686-2.225-1.873c-0.028-0.616,0.251-1.261,0.458-1.869c0.184-0.542,0.499-1.04,0.682-1.582
	c0.12-0.355,0.168-0.76,0.142-1.134c-0.032-0.448-0.339-0.692-0.807-0.713c-0.397-0.016-0.797-0.022-1.188-0.086
	c-1.059-0.171-1.6-0.902-1.354-1.933c0.129-0.542,0.416-1.05,0.657-1.561c0.169-0.357,0.421-0.68,0.566-1.045
	c0.159-0.397,0.238-0.826,0.358-1.265c-0.364-0.469-0.787-0.798-1.358-0.988c-1.044-0.348-1.776-1.818-1.434-2.879
	c0.333-1.037,0.843-1.985,1.577-2.811c0.256-0.287,0.5-0.619,0.632-0.974c0.365-0.974,0.198-1.49-0.666-2.129
	c-2.519-1.864-1.57-4.206,0.31-5.55c0.174-0.125,0.387-0.219,0.514-0.38c0.963-1.23,0.695-2.067-0.848-3
	c-0.26-0.157-0.582-0.242-0.791-0.447c-1.501-1.468-1.173-2.765,0.264-4.424c0.305-0.352,0.687-0.645,0.959-1.018
	c0.489-0.668,0.387-1.447-0.201-2.014c-0.129-0.125-0.26-0.251-0.402-0.361c-1.456-1.138-1.323-3.632,0.247-4.562
	c0.124-0.073,0.272-0.108,0.39-0.187c0.9-0.608,0.93-1.542,0.078-2.23c-1.349-1.09-1.514-2.596-0.434-3.94
	c0.54-0.672,1.069-1.329,1.831-1.801c0.835-0.517,0.889-1.443,0.28-2.243c-0.39-0.511-0.75-1.045-1.101-1.584
	c-0.479-0.74-0.25-1.523,0.124-2.157c0.37-0.626,0.988-1.106,1.504-1.643c0.15-0.155,0.342-0.268,0.491-0.424
	c0.311-0.332,0.746-0.635,0.873-1.032c0.186-0.579-0.503-0.68-0.816-0.983c-0.902-0.871-1.018-3.222,0.298-4.18
	c0.606-0.44,1.309-0.747,1.965-1.119c0.325-0.185,0.645-0.38,1.023-0.605c-0.461-0.667-0.884-1.191-1.208-1.769
	c-0.47-0.832-0.528-1.668,0.009-2.55c0.312-0.513,0.476-1.099,1.028-1.457c0.735-0.477,1.515-0.628,2.367-0.465
	c0.566,0.109,1.136,0.206,1.698,0.333c0.527,0.12,0.934-0.061,1.219-0.485c0.42-0.625,0.701-1.219,0.586-2.088
	c-0.285-2.161,0.741-3.901,2.618-4.892c0.402-0.213,0.97-0.179,1.453-0.147c0.459,0.03,0.917,0.18,1.358,0.327
	c0.785,0.262,1.407,0.713,1.672,1.552c0.109,0.343,0.242,0.68,0.391,1.008c0.395,0.867,0.957,1.087,1.681,0.501
	c1.217-0.984,2.459-0.886,3.734-0.257c0.398,0.197,0.818,0.525,1.03,0.904c0.722,1.298,1.099,2.666,0.342,4.105
	c-0.018,0.032-0.04,0.062-0.055,0.095c-0.556,1.408-0.353,1.828,1.113,2.082c0.845,0.146,1.634,0.359,2.155,1.089
	c0.685,0.958,1.08,1.939,0.774,3.208c-0.318,1.322-1.129,2.312-1.812,3.4c-0.662,1.052-0.531,1.876,0.456,2.601
	c0.346,0.254,0.796,0.41,1.056,0.728c0.344,0.425,0.629,0.939,0.792,1.461c0.188,0.606,0.398,1.304,0.266,1.888
	c-0.147,0.66-0.663,1.24-1.028,1.848c-0.053,0.088-0.165,0.137-0.243,0.212c-1.011,0.958-1.021,1.833-0.081,2.876
	c0.65,0.719,1.269,1.467,1.886,2.214c0.6,0.727,0.714,1.554,0.44,2.443c-0.073,0.242-0.195,0.477-0.222,0.722
	c-0.113,1.002-0.63,1.679-1.489,2.2c-0.442,0.269-0.801,0.724-1.109,1.157c-0.416,0.583-0.203,1.829,0.498,2.491
	c0.799,0.753,1.171,1.702,1.558,2.676c0.513,1.29-0.046,2.943-1.382,3.571c-0.258,0.122-0.501,0.285-0.733,0.456
	c-1.641,1.196-1.072,2.987,0.031,3.727c0.847,0.567,1.391,1.29,1.724,2.252c0.457,1.322-0.243,2.938-1.612,3.261
	c-0.919,0.217-1.398,0.882-1.866,1.533c-0.194,0.271-0.15,0.884,0.024,1.215c0.348,0.654,0.831,1.243,1.311,1.815
	c0.674,0.807,1.061,1.639,0.888,2.75c-0.124,0.788-0.515,1.185-1.168,1.533c-0.753,0.403-1.462,0.897-2.148,1.409
	C59.648,71.361,59.499,71.716,59.208,72.118z M58.684,80.681c-0.007-0.114-0.014-0.229-0.021-0.346
	c-0.316-0.109-0.623-0.265-0.947-0.321c-0.699-0.121-1.198-0.476-1.334-1.171c-0.094-0.483-0.09-0.998-0.048-1.492
	c0.099-1.138,0.352-2,2.165-1.855c0.4,0.032,0.62-0.081,0.762-0.419c0.148-0.356,0.021-0.646-0.278-0.845
	c-0.299-0.199-0.609-0.386-0.932-0.536c-0.991-0.458-1.33-1.457-0.761-2.368c0.188-0.301,0.406-0.611,0.681-0.824
	c0.883-0.682,1.782-1.34,2.705-1.965c0.606-0.411,0.76-0.669,0.492-1.336c-0.133-0.327-0.354-0.625-0.57-0.908
	c-0.24-0.312-0.58-0.559-0.776-0.893c-1.136-1.941-1.559-2.608,0.135-4.503c0.573-0.641,1.243-1.068,1.958-1.484
	c0.945-0.548,1.024-1.338,0.219-2.087c-0.345-0.319-0.671-0.675-1.064-0.917c-1.149-0.711-1.173-1.886-1.305-3.017
	c-0.025-0.204,0.022-0.442,0.111-0.631c0.471-1.012,0.88-2.066,1.943-2.655c0.28-0.155,0.496-0.42,0.762-0.605
	c0.383-0.263,0.48-0.608,0.369-1.037c-0.217-0.841-0.488-1.621-1.153-2.271c-0.685-0.668-1.321-1.402-1.308-2.508
	c0.021-1.535,0.764-2.685,1.851-3.607c1.332-1.131,1.582-2.45,0.529-3.817c-0.326-0.423-0.752-0.771-1.096-1.182
	c-0.521-0.624-1.146-1.136-1.312-2.049c-0.234-1.305,0.129-2.333,1.018-3.239c0.128-0.129,0.272-0.24,0.397-0.369
	c0.869-0.892,0.787-2.029-0.208-2.757c-0.29-0.211-0.612-0.378-0.891-0.601c-0.219-0.174-0.474-0.371-0.574-0.614
	c-0.246-0.596-0.554-1.219-0.58-1.842c-0.042-0.979-0.132-2.011,0.753-2.805c0.719-0.643,1.013-1.545,1.214-2.479
	c0.277-1.282-0.042-1.776-1.363-1.956c-1.337-0.182-2.29-0.832-2.68-2.164c-0.24-0.819-0.104-1.627,0.142-2.428
	c0.156-0.513,0.374-1.032,0.4-1.557c0.06-1.212-0.835-1.718-1.881-1.176c-0.635,0.329-1.323,0.566-2.004,0.795
	c-0.217,0.074-0.504,0.037-0.733-0.034c-1.253-0.389-2.38-0.907-2.375-2.503c0-0.169-0.11-0.34-0.18-0.507
	c-0.311-0.747-2.078-1.196-2.586-0.577c-0.608,0.741-1.214,1.553-0.937,2.645c0.079,0.313,0.132,0.637,0.16,0.958
	c0.063,0.729-0.022,1.441-0.547,1.995c-0.368,0.389-0.788,0.738-1.221,1.054c-0.603,0.439-1.252,0.606-2.028,0.419
	c-0.725-0.175-1.488-0.196-2.238-0.264c-0.507-0.046-0.789,0.264-0.988,0.688c-0.418,0.893-0.219,1.658,0.662,2.49
	c1.104,1.043,0.812,2.853-0.573,3.468c-0.526,0.234-1.083,0.401-1.616,0.625c-1.199,0.504-1.352,1.517-0.358,2.323
	c0.142,0.113,0.345,0.186,0.424,0.329c0.222,0.398,0.552,0.824,0.554,1.24c0.004,0.774-0.059,1.596-0.799,2.134
	c-0.492,0.357-0.927,0.804-1.448,1.106c-1.124,0.651-1.265,1.709-0.33,2.575c0.652,0.603,0.815,1.417,1.05,2.181
	c0.136,0.44,0.12,1.073-0.111,1.444c-0.367,0.594-0.969,1.043-1.473,1.551c-0.378,0.379-0.789,0.73-1.132,1.14
	c-0.86,1.025-0.444,1.19,0.233,1.85c0.273,0.268,0.619,0.508,0.779,0.836c0.713,1.446,0.125,3.18-1.317,4.05
	c-0.922,0.557-1.037,1.217-0.332,2.022c0.211,0.241,0.491,0.425,0.702,0.666c0.74,0.853,1.001,1.727,0.493,2.87
	c-0.35,0.789-0.498,1.625-1.369,2.057c-0.203,0.101-0.327,0.378-0.465,0.589c-0.394,0.608-0.187,1.369,0.526,1.542
	c1.216,0.298,1.682,1.113,1.849,2.237c0.063,0.427,0.212,0.842,0.277,1.269c0.111,0.707-0.018,1.363-0.563,1.872
	c-0.445,0.415-0.936,0.783-1.362,1.214c-0.296,0.301-0.602,0.645-0.745,1.027c-0.085,0.229,0.193,0.57,0.201,0.864
	c0.016,0.617,0.49,0.834,0.873,1.15c0.682,0.563,1.343,1.212,1.199,2.164c-0.188,1.242-0.54,2.451-1.504,3.383
	c-0.355,0.343-0.672,0.754-0.907,1.188c-0.434,0.801-0.37,0.881,0.392,1.363c0.452,0.286,0.871,0.625,1.294,0.955
	c1.156,0.898,1.232,2.041,0.697,3.292c-0.312,0.729-0.669,1.437-0.983,2.107c0.624,0.157,1.322,0.175,1.834,0.492
	c1.181,0.735,1.639,2.053,1.277,3.402c-0.221,0.818-0.562,1.604-0.845,2.404c-0.117,0.324-0.228,0.649-0.343,0.975
	c0.363,0.107,0.722,0.264,1.092,0.312c1.625,0.212,2.522,1.322,2.428,2.948c-0.037,0.647-0.236,1.334,0.149,2.011
	c0.3-0.147,0.573-0.246,0.807-0.404c1.256-0.854,1.877-0.795,3.043,0.17c0.786,0.65,1.245,1.485,1.598,2.4
	c0.225,0.576,0.531,1.013,1.314,1.047c0.178-0.433,0.351-0.898,0.56-1.346c0.466-1.003,1.162-1.804,2.157-2.314
	c0.471-0.242,0.935-0.293,1.446-0.039c0.514,0.256,1.083,0.396,1.607,0.632c0.41,0.187,0.74,0.136,1.104-0.118
	c0.774-0.538,0.984-1.651,0.277-2.458c-0.606-0.689-0.893-1.448-1.052-2.311c-0.197-1.078-0.021-1.657,0.936-2.177
	c0.976-0.531,2.018-0.935,3.03-1.397C58.073,80.977,58.377,80.826,58.684,80.681z"/>
</svg>
