<?xml version="1.0" encoding="utf-8"?>
<!-- Generator: Adobe Illustrator 16.0.0, SVG Export Plug-In . SVG Version: 6.00 Build 0)  -->
<!DOCTYPE svg PUBLIC "-//W3C//DTD SVG 1.0//EN" "http://www.w3.org/TR/2001/REC-SVG-20010904/DTD/svg10.dtd">
<svg version="1.0" id="Layer_1" xmlns="http://www.w3.org/2000/svg" xmlns:xlink="http://www.w3.org/1999/xlink" x="0px" y="0px"
	 width="100px" height="100px" viewBox="0 0 100 100" enable-background="new 0 0 100 100" xml:space="preserve">
<path fill-rule="evenodd" clip-rule="evenodd" fill="#FFFFFF" d="M18.669,53.749c-1.134-0.818-2.24-1.533-3.249-2.365
	c-1.171-0.967-1.744-2.381-2.301-3.729c-0.199-0.482,0.207-1.211,0.322-1.828c0.195-1.043,0.811-1.528,1.871-1.676
	c1.56-0.219,3.033-0.186,4.259,0.938c0.618,0.564,1.11,1.211,1.219,2.129c0.073,0.613,0.403,1.199,0.635,1.791
	c0.348,0.889,0.712,1.77,1.092,2.711c0.299-0.23,0.627-0.373,0.782-0.623c0.628-1.018,1.627-1.367,2.701-1.582
	c1.235-0.246,2.17,0.197,2.83,1.283c0.433,0.715,0.864,1.43,1.314,2.133c0.146,0.229,0.318,0.469,0.536,0.617
	c1.145,0.787,1.811,0.637,2.562-0.541c0.365-0.572,0.709-1.16,1.107-1.709c0.736-1.014,1.618-1.775,3.008-1.566
	c0.23,0.035,0.476-0.031,0.714-0.045c1.307-0.068,2.293,0.367,2.947,1.596c0.365,0.686,0.947,1.27,1.492,1.842
	c0.482,0.506,1.293,0.576,1.859,0.156c0.472-0.348,0.887-0.783,1.281-1.223c0.502-0.557,0.907-1.213,1.447-1.729
	c1.645-1.564,4.178-1.225,5.413,0.697c0.451,0.703,0.869,1.428,1.296,2.146c0.424,0.711,0.973,0.859,1.691,0.428
	c0.748-0.447,1.236-1.096,1.516-1.93c0.389-1.156,0.938-2.16,2.16-2.721c1.121-0.516,2.691-0.443,3.459,0.52
	c0.584,0.734,1.012,1.607,1.42,2.461c0.299,0.623,0.527,1.426,1.279,1.402c0.863-0.027,0.908-1.008,1.18-1.621
	c0.27-0.605,0.303-1.312,0.488-1.959c0.436-1.514,0.951-1.84,2.502-1.789c2.131,0.072,3.244,0.998,3.83,2.93
	c0.141,0.461,0.504,0.857,0.809,1.355c0.941-0.652,1.537-1.357,1.797-2.312c0.178-0.652,0.279-1.326,0.475-1.973
	c0.096-0.322,0.252-0.691,0.5-0.895c1.332-1.094,3.502-0.619,4.314,0.904c0.812,1.529,1.928,2.062,3.518,1.516
	c0.836-0.289,1.416-0.012,1.678,0.445c0.404,0.703,0.293,1.498-0.182,2.059c-0.932,1.105-2.127,1.67-3.535,1.789
	c-0.828,0.072-1.42,0.393-1.785,1.174c-0.301,0.646-0.686,1.254-1.059,1.863c-0.473,0.777-1.127,1.062-1.891,0.861
	c-0.553-0.148-0.939-0.799-1.047-1.584c-0.127-0.916-0.326-1.822-0.502-2.781c-2.432,1.818-4.539-0.031-5.232-1.963
	c-0.166-0.463-0.168-1.008-0.822-1.211c-0.971-0.301-1.43-0.068-1.635,0.932c-0.127,0.617-0.205,1.273-0.479,1.826
	c-0.416,0.838-0.9,1.672-1.512,2.375c-0.457,0.527-1.207,0.49-1.871,0.256c-1.441-0.508-2.186-1.668-2.744-2.99
	c-0.156-0.365-0.258-0.758-0.449-1.102c-0.607-1.082-1.713-1.107-2.332-0.047c-0.381,0.654-0.734,1.332-1.027,2.029
	c-0.586,1.385-1.814,2.031-3.07,2.5c-1.244,0.465-3.204-0.775-3.45-2.125c-0.158-0.855-0.709-1.404-1.16-2.025
	c-0.404-0.557-1.291-0.609-1.813-0.139c-0.584,0.527-1.127,1.117-1.602,1.744c-0.68,0.896-1.367,1.693-2.515,2.061
	c-1.464,0.471-2.665,0.193-3.681-0.92c-0.588-0.645-1.145-1.322-1.693-2.004c-0.988-1.225-2.57-1.154-3.459,0.18
	c-0.376,0.564-0.734,1.143-1.069,1.732c-1.275,2.244-3.449,1.986-4.926,1.1c-1.021-0.615-1.502-1.617-2.109-2.543
	c-0.218-0.332-0.414-0.684-0.664-0.988c-0.428-0.523-0.958-0.623-1.447-0.23c-0.396,0.318-0.725,0.721-1.07,1.098
	c-0.188,0.205-0.333,0.449-0.52,0.652c-0.715,0.779-1.115,1.693-1.433,2.705c-0.666,2.121-1.86,3.955-3.467,5.5
	c-0.676,0.65-2.371,0.65-3.398,0.055c-1.044-0.605-1.367-1.426-1.236-2.605c0.196-1.779,1.295-2.941,2.535-4.035
	C17.609,54.655,18.157,54.192,18.669,53.749z"/>
</svg>
