<?xml version="1.0" encoding="utf-8"?>
<!-- Generator: Adobe Illustrator 16.0.0, SVG Export Plug-In . SVG Version: 6.00 Build 0)  -->
<!DOCTYPE svg PUBLIC "-//W3C//DTD SVG 1.0//EN" "http://www.w3.org/TR/2001/REC-SVG-20010904/DTD/svg10.dtd">
<svg version="1.0" id="Layer_1" xmlns="http://www.w3.org/2000/svg" xmlns:xlink="http://www.w3.org/1999/xlink" x="0px" y="0px"
	 width="100px" height="100px" viewBox="0 0 100 100" enable-background="new 0 0 100 100" xml:space="preserve">
<path fill-rule="evenodd" clip-rule="evenodd" fill="#FFFFFF" d="M21.016,57.42c0.562-0.354,1.296-0.086,2.024,0.197
	c0.383,0.152,0.75,0.345,1.132,0.498c0.837,0.338,1.427,0.145,1.97-0.612c0.464-0.646,0.453-1.413,0.27-2.08
	c-0.308-1.116-0.119-2.06,0.552-2.951c0.123-0.164,0.25-0.347,0.42-0.45c0.937-0.58,0.863-1.453,0.657-2.33
	c-0.109-0.467-0.103-0.899-0.024-1.364c0.267-1.601,1.537-2.183,2.85-2.333c0.127-0.015,0.255-0.022,0.384-0.028
	c0.65-0.03,0.996-0.246,1.144-0.891c0.223-0.978,0.779-1.642,1.732-1.875c0.735-0.179,1.479,0.005,2.19,0.266
	c0.184,0.067,0.367,0.147,0.558,0.187c0.649,0.13,0.622,0.104,0.983-0.397c0.711-0.989,1.549-1.8,2.899-1.723
	c0.596,0.035,1.099,0.211,1.561,0.668c0.462,0.458,1.081,0.76,1.637,1.122c0.192,0.126,0.393,0.244,0.602,0.339
	c0.579,0.266,1.134,0.299,1.638-0.188c0.239-0.231,0.483-0.472,0.767-0.638c0.934-0.544,1.883-0.456,2.771,0.09
	c0.874,0.537,1.717,1.127,2.556,1.718c0.875,0.618,1.047,0.661,1.806-0.023c0.483-0.438,0.938-0.472,1.463-0.169
	c0.663,0.383,1.386,0.667,1.866,1.324c0.25,0.341,0.623,0.538,1.07,0.536c0.55-0.004,1.184-0.623,1.345-1.271
	c0.093-0.369,0.235-0.725,0.361-1.084c0.167-0.476,0.55-0.646,1.014-0.702c0.075-0.01,0.152-0.024,0.229-0.032
	c0.951-0.114,1.24-0.406,1.212-1.361c-0.014-0.427-0.12-0.864-0.26-1.271c-0.241-0.709-0.244-1.367,0.26-1.956
	c0.302-0.349,0.597-0.729,0.97-0.989c0.594-0.416,0.646-0.898,0.477-1.547c-0.153-0.588-0.223-1.206,0.066-1.8
	c0.504-1.026,1.386-1.413,2.461-1.418c1.176-0.005,1.178,0.016,1.436-1.103c0.437-1.897,2.014-2.322,3.419-1.717
	c0.518,0.223,1.034,0.451,1.551,0.672c0.966,0.413,1.591,0.215,2.144-0.68c0.082-0.131,0.156-0.267,0.234-0.4
	c0.284-0.494,0.689-0.704,1.278-0.675c0.905,0.045,1.7,0.362,2.443,0.845c0.43,0.278,0.855,0.564,1.269,0.87
	c0.489,0.361,0.971,0.447,1.475,0.034c0.039-0.032,0.095-0.045,0.132-0.078c1.077-0.966,2.709-0.346,3.427,0.685
	c0.205,0.294,0.414,0.598,0.678,0.836c0.494,0.448,0.979,0.487,1.528,0.085c0.627-0.456,1.182-0.432,1.854-0.062
	c0.586,0.324,1.018,0.782,1.457,1.24c0.435,0.454,0.498,1.052,0.471,1.662c-0.016,0.357-0.017,0.721,0.03,1.074
	c0.065,0.495,0.513,0.923,1.006,1.027c0.05,0.011,0.103,0.021,0.152,0.02c1.707,0.021,2.467,1.193,3.036,2.549
	c0.604,1.437,0.414,2.804-0.405,4.127c-0.199,0.323-0.202,0.782-0.246,1.183c-0.076,0.711-0.07,1.422-0.462,2.077
	c-0.473,0.791-1.398,1.193-2.314,0.938c-0.346-0.097-0.686-0.224-1.017-0.365c-0.282-0.12-0.466-0.034-0.686,0.162
	c-0.631,0.561-1.272,1.116-1.946,1.625c-0.532,0.403-1.132,0.424-1.744,0.107c-0.822-0.425-1.437-1.08-2.006-1.779
	c-0.376-0.46-0.523-0.501-0.998-0.152c-0.713,0.525-1.38,0.526-2.081,0.003c-0.478-0.356-0.917-0.7-1.007-1.383
	c-0.071-0.535-0.458-0.958-0.906-1.281c-0.498-0.361-0.715-0.31-1.091,0.165c-0.233,0.298-0.481,0.605-0.785,0.823
	c-0.521,0.371-1.071,0.42-1.631-0.003c-0.429-0.326-0.892-0.615-1.471-0.613c-0.671,0.003-0.906,0.186-0.877,0.864
	c0.028,0.656,0.12,1.313,0.243,1.958c0.215,1.126-0.335,2.025-1.454,2.303c-0.754,0.187-0.946,0.508-0.865,1.277
	c0.092,0.867,0.168,1.738,0.187,2.608c0.017,0.819-0.434,1.332-1.216,1.562c-0.27,0.079-0.527,0.202-0.782,0.322
	c-0.441,0.209-0.649,0.522-0.58,1.052c0.037,0.281-0.047,0.625-0.188,0.878c-0.925,1.641-2.284,1.884-3.985,1.008
	c-0.406-0.209-0.83-0.395-1.262-0.544c-0.596-0.207-0.733-0.151-1.087,0.346c-0.268,0.377-0.524,0.761-0.779,1.148
	c-0.775,1.181-2.089,0.926-3.001,0.34c-0.274-0.179-0.51-0.438-0.721-0.693c-0.543-0.658-0.628-0.692-1.307-0.214
	c-0.767,0.54-1.582,0.732-2.48,0.405c-0.18-0.066-0.363-0.187-0.487-0.33c-0.413-0.482-0.79-1.001-1.213-1.475
	c-0.117-0.132-0.359-0.244-0.523-0.22c-0.349,0.053-0.706,0.153-1.018,0.317c-1.07,0.559-2.038,0.3-2.715-0.726
	c-0.31-0.468-0.646-0.935-1.045-1.325c-0.632-0.62-1.034-0.545-1.504,0.002c-0.179,0.207-0.428,0.366-0.671,0.5
	c-0.81,0.441-1.299,0.408-1.947-0.213c-1.188-1.139-1.929-0.762-2.522,0.638c-0.096,0.224-0.07,0.505-0.074,0.759
	c-0.012,0.856-0.279,1.231-1.067,1.472c-0.361,0.109-0.74,0.179-1.074,0.342c-0.513,0.25-0.865,0.667-0.861,1.271
	c0.004,0.487,0.023,0.984,0.12,1.46c0.289,1.387-0.275,2.537-1.46,3.172c-0.504,0.271-0.779,0.649-0.587,1.186
	c0.405,1.142-0.385,1.767-0.987,2.485c-0.743,0.151-1.418,0.574-2.218,0.503c-0.457-0.04-0.917-0.018-1.375-0.027
	c-0.45-0.011-0.693,0.2-0.828,0.635c-0.144,0.464-0.34,0.917-0.56,1.352c-0.222,0.436-0.572,0.676-1.112,0.686
	c-0.744,0.014-1.494,0.142-2.217-0.103c-0.53-0.178-1.039-0.414-1.555-0.631c-0.884-0.371-1.819-0.155-2.444,0.53
	c-0.251,0.274-0.546,0.661-0.858,0.7c-0.594,0.075-1.302,0.106-1.809-0.15c-0.792-0.399-1.703-0.616-2.358-1.274
	c-0.071-0.074-0.182-0.11-0.245-0.188c-0.873-1.083-2.026-1.012-3.235-0.829c-1.285,0.194-2.432-0.025-3.523-0.887
	c-0.994-0.787-1.383-1.834-1.74-2.916c-0.302-0.921-0.792-1.572-1.757-1.733c-1.167-0.196-1.733-1.015-2.184-1.971
	c-0.296-0.627-0.556-1.238-0.315-1.992c0.132-0.413,0.007-0.917-0.04-1.376c-0.017-0.167-0.101-0.384-0.228-0.473
	c-0.766-0.535-0.783-1.362-0.808-2.143c-0.054-1.702,0.859-2.806,2.568-3.238c0.224-0.057,0.438-0.151,0.659-0.22
	c0.862-0.266,0.94-0.404,1.016-1.287c0.068-0.795,0.413-1.414,1.102-1.925c0.812-0.602,1.716-0.713,2.624-0.707
	c0.765,0.007,1.402,0.498,1.861,1.122c0.256,0.35,0.448,0.75,0.639,1.143c0.296,0.613,0.397,0.65,1.066,0.453
	c0.387-0.111,0.804-0.251,1.189-0.208c1.117,0.124,2.384,0.942,2.503,2.233c0.062,0.662,0.203,1.318,0.238,1.981
	C19.185,57.648,19.473,58.185,21.016,57.42z M5.75,56.091c0.204,0.148,0.294,0.264,0.405,0.289c0.617,0.146,1.239,0.283,1.864,0.386
	c0.101,0.016,0.232-0.16,0.398-0.283c-0.461-0.176-0.859-0.242-1.15-0.457C6.757,55.65,6.324,55.779,5.75,56.091z M68.628,39.86
	c1.312,0.113,1.869-0.237,1.897-1.267c-0.607,0.333-1.167,0.628-1.711,0.947C68.729,39.591,68.696,39.737,68.628,39.86z
	 M67.1,38.164c0.762,0.155,1.034-0.386,1.378-0.689c0.37-0.327,0.983-0.228,1.328-0.871C68.73,36.952,67.832,37.283,67.1,38.164z
	 M34.329,45.701c0.77,0.541,1.394,0.417,1.752-0.277C35.455,45.072,34.936,45.327,34.329,45.701z M34.235,50.456
	c-0.784,0.239-1.391,0.626-2.099,0.986C32.983,51.709,33.707,51.365,34.235,50.456z M82.503,39.567
	c0.28,0.562,0.7,0.885,1.147,1.272c0.104-0.294,0.183-0.517,0.259-0.727C83.486,39.803,83.087,39.559,82.503,39.567z M93.051,42.004
	c-0.082-0.904-0.513-1.736-0.99-2.034C92.179,40.698,92.45,41.332,93.051,42.004z M36.192,51.184
	c0.375-0.082,0.687-0.15,0.983-0.217c0.001-0.316,0.002-0.542,0.004-0.772C36.425,50.417,36.425,50.417,36.192,51.184z
	 M30.235,48.66c0.019,0.072,0.037,0.146,0.055,0.219c0.428-0.09,0.86-0.165,1.279-0.286c0.057-0.017,0.044-0.269,0.066-0.429
	C31.04,48.08,30.634,48.361,30.235,48.66z M33.79,52.535c0.453,0.388,0.882,0.35,1.405-0.124
	C34.407,52.186,34.359,52.189,33.79,52.535z M30.921,58.835c0.534-0.334,0.877-0.669,1.027-1.233
	C31.052,57.896,30.941,58.021,30.921,58.835z M54.439,49.159c0.505,0.257,0.858,0.669,1.437,0.625
	C55.781,49.122,55.56,49.022,54.439,49.159z M30.555,54.752c1.069-0.385,1.262-0.646,0.925-1.215
	C31.185,53.924,30.904,54.293,30.555,54.752z M36.25,47.973c-0.141-0.087-0.318-0.251-0.372-0.219
	c-0.365,0.226-0.934-0.104-1.25,0.497C35.2,48.083,35.753,48.453,36.25,47.973z M79.112,39.574c0.629,0.74,0.652,0.746,1.231,0.291
	C79.936,39.727,79.632,39.309,79.112,39.574z M39.946,50.57c0.362,0.43,0.742,0.281,1.159,0.264
	C40.638,50.164,40.638,50.164,39.946,50.57z M85.625,38.943c-0.253-0.15-0.403-0.249-0.562-0.332
	c-0.138-0.072-0.284-0.126-0.427-0.188c-0.029,0.042-0.057,0.083-0.086,0.126c0.256,0.256,0.513,0.513,0.904,0.906
	C85.535,39.213,85.573,39.1,85.625,38.943z M13.134,56c-0.49-0.701-0.768-0.782-1.225-0.496C12.332,55.674,12.733,55.838,13.134,56z
	 M94.05,40.106c-0.056,0.017-0.11,0.032-0.167,0.048c0.158,0.416,0.318,0.833,0.479,1.25C94.542,40.872,94.392,40.458,94.05,40.106z
	 M39.625,55.634c-0.254,0.179-0.479,0.335-0.702,0.491c0.021,0.043,0.042,0.088,0.063,0.131c0.267,0.016,0.534,0.027,0.829,0.043
	c0.01-0.183,0.04-0.288,0.014-0.377C39.804,55.836,39.723,55.766,39.625,55.634z M9.919,54.379c-0.839-0.668-0.938-0.681-1.24-0.17
	C9.062,54.263,9.412,54.31,9.919,54.379z M61.292,50.484c0.61,0.014,0.906-0.263,1.199-0.555
	C62.055,49.896,61.646,49.925,61.292,50.484z M39.916,46.146c0.309,0.03,0.618,0.06,0.977,0.094
	C40.572,45.641,40.551,45.637,39.916,46.146z M41.356,52.602c-0.253-0.703-0.373-0.715-0.909-0.151
	C40.746,52.499,41,52.542,41.356,52.602z M88.38,34.781c0.245,0.155,0.445,0.281,0.779,0.493c-0.018-0.302,0.034-0.507-0.046-0.592
	C88.933,34.488,88.686,34.396,88.38,34.781z M69.718,32.273c0.341-0.112,0.684-0.224,1.177-0.384
	C70.305,31.764,69.975,31.932,69.718,32.273z M29.994,53.138c-0.296,0.249-0.697,0.411-0.66,0.894
	C29.553,53.732,29.774,53.436,29.994,53.138z M33.303,59.798c0.304-0.364,0.071-0.506-0.156-0.618
	c-0.052-0.026-0.212,0.046-0.238,0.109C32.757,59.65,33.061,59.68,33.303,59.798z M83.173,42.286
	c-0.283-0.539-0.283-0.539-0.869-0.594C82.646,41.793,82.673,42.327,83.173,42.286z M39.225,54.668
	c-0.343-0.205-0.584-0.157-0.788,0.258C38.763,54.818,38.994,54.742,39.225,54.668z M37.952,53.502
	c0.032,0.055,0.063,0.109,0.096,0.165c0.207-0.177,0.565-0.091,0.628-0.53C38.434,53.259,38.193,53.379,37.952,53.502z
	 M67.988,34.164c-0.288,0.037-0.405,0.019-0.474,0.069c-0.104,0.075-0.265,0.226-0.244,0.294c0.08,0.247,0.277,0.16,0.422,0.054
	C67.776,34.52,67.823,34.403,67.988,34.164z M29.771,65.035c-0.011,0.059-0.022,0.118-0.032,0.176
	c0.376-0.062,0.753-0.127,1.13-0.188c-0.007-0.052-0.014-0.103-0.021-0.155C30.488,64.923,30.129,64.979,29.771,65.035z
	 M8.45,59.518c-0.017,0.061-0.033,0.121-0.049,0.182c0.267,0.082,0.535,0.164,0.802,0.246c0.015-0.045,0.03-0.091,0.045-0.136
	C8.982,59.712,8.716,59.614,8.45,59.518z M60.56,46.561c-0.152,0.225-0.263,0.39-0.414,0.616
	C60.574,47.154,60.791,47.077,60.56,46.561z M72,37.278c-0.068,0.004-0.139,0.009-0.207,0.014c0.01,0.127,0.014,0.255,0.036,0.381
	c0,0.008,0.124-0.004,0.19-0.007C72.013,37.537,72.006,37.408,72,37.278z M78.141,34.743c-0.021,0.034-0.044,0.069-0.067,0.103
	c0.158,0.106,0.314,0.209,0.472,0.314c0.028-0.044,0.058-0.088,0.086-0.134C78.467,34.932,78.305,34.836,78.141,34.743z
	 M88.708,46.742c-0.023,0.061-0.047,0.121-0.07,0.182c0.262-0.016,0.359,0.39,0.841,0.089C89.159,46.9,88.933,46.821,88.708,46.742z
	 M72.802,40.998c0.032,0.039,0.065,0.079,0.1,0.12c0.134-0.085,0.266-0.171,0.397-0.258c-0.148-0.108-0.252-0.12-0.323-0.078
	C72.901,40.827,72.857,40.924,72.802,40.998z M17.04,67.562c0.006-0.057,0.011-0.112,0.017-0.169
	c-0.236-0.081-0.466-0.227-0.897,0.062C16.56,67.503,16.799,67.533,17.04,67.562z M35.954,53.533
	c-0.028-0.045-0.057-0.09-0.086-0.135c-0.126,0.09-0.252,0.18-0.379,0.27c0.037,0.047,0.073,0.092,0.111,0.14
	C35.717,53.716,35.836,53.624,35.954,53.533z M11.85,68.947c-0.055-0.475-0.198-0.559-0.617-0.462
	C11.478,68.668,11.613,68.77,11.85,68.947z M29.832,51.404c-0.467-0.034-0.453,0.18-0.414,0.599
	C29.602,51.736,29.696,51.601,29.832,51.404z M37.531,52.087c0.363,0.087,0.363,0.087,0.47-0.207
	C37.836,51.953,37.708,52.009,37.531,52.087z M39.688,44.188c0.02,0.044,0.038,0.09,0.058,0.134
	c0.116-0.039,0.233-0.077,0.351-0.115c-0.034-0.062-0.068-0.125-0.102-0.188C39.893,44.075,39.79,44.131,39.688,44.188z
	 M72.28,39.616c0.251-0.116,0.251-0.116,0.192-0.455C72.402,39.328,72.344,39.464,72.28,39.616z M14.913,60.229
	c0.027-0.051,0.052-0.104,0.077-0.156c-0.144-0.058-0.288-0.114-0.433-0.171c-0.018,0.045-0.035,0.089-0.052,0.134
	C14.642,60.1,14.778,60.164,14.913,60.229z M10.229,60.329c-0.076-0.141-0.097-0.215-0.122-0.217
	c-0.079-0.005-0.16,0.018-0.24,0.029C9.961,60.189,10.054,60.24,10.229,60.329z M85.552,45.124c-0.01,0.038-0.016,0.078-0.021,0.116
	c0.119,0.021,0.24,0.04,0.359,0.061c0.008-0.035,0.013-0.069,0.019-0.104C85.788,45.171,85.67,45.148,85.552,45.124z"/>
</svg>
