<?xml version="1.0" encoding="utf-8"?>
<!-- Generator: Adobe Illustrator 16.0.0, SVG Export Plug-In . SVG Version: 6.00 Build 0)  -->
<!DOCTYPE svg PUBLIC "-//W3C//DTD SVG 1.0//EN" "http://www.w3.org/TR/2001/REC-SVG-20010904/DTD/svg10.dtd">
<svg version="1.0" id="Layer_1" xmlns="http://www.w3.org/2000/svg" xmlns:xlink="http://www.w3.org/1999/xlink" x="0px" y="0px"
	 width="100px" height="100px" viewBox="0 0 100 100" enable-background="new 0 0 100 100" xml:space="preserve">
<g>
	<path fill-rule="evenodd" clip-rule="evenodd" fill="#FFFFFF" d="M70.714,40.61c0.262,1.218-0.44,2.328-1.89,2.61
		c0.045,0.127,0.074,0.255,0.134,0.366c0.252,0.471,0.549,0.919,0.76,1.406c0.303,0.694,0.321,2.073-0.493,2.77
		c-0.104,0.09-0.202,0.191-0.286,0.301c-0.071,0.091-0.117,0.203-0.16,0.282c0.556,1.031,0.618,2.113,0.469,3.201
		c-0.08,0.587-0.461,1.076-0.992,1.343c-0.618,0.311-1.28,0.53-1.93,0.776c-0.522,0.198-0.968,0.467-1.125,1.052
		c-0.02,0.076-0.065,0.147-0.081,0.225c-0.237,1.076-0.975,1.703-1.876,2.254c-0.683,0.417-1.459,0.501-2.167,0.805
		c-0.153,0.065-0.388,0.005-0.563-0.059c-0.771-0.277-1.039-0.213-1.573,0.395c-0.261,0.297-0.514,0.612-0.824,0.85
		c-0.556,0.426-1.199,0.483-1.875,0.312c-0.539-0.138-1.095-0.209-1.578-0.527c-0.141-0.092-0.345-0.084-0.518-0.13
		c-0.379-0.101-0.645,0.034-0.863,0.352c-0.485,0.704-1.18,0.869-1.983,0.747c-0.293-0.045-0.595-0.022-0.883-0.079
		c-0.445-0.09-0.884-0.213-1.322-0.337c-0.458-0.129-0.585-0.092-0.694,0.363c-0.144,0.602-0.479,0.846-1.098,0.854
		c-0.625,0.008-0.716,0.143-0.699,0.769c0.015,0.564-0.192,0.983-0.673,1.295c-0.397,0.257-0.416,0.493-0.132,0.896
		c0.136,0.194,0.316,0.375,0.396,0.592c0.225,0.607,0.248,1.207-0.218,1.741c-0.235,0.27-0.458,0.55-0.731,0.879
		c0.083,0.124,0.173,0.266,0.271,0.403c0.624,0.885,0.705,1.802,0.135,2.734c-0.151,0.247-0.374,0.467-0.605,0.645
		c-0.484,0.372-0.511,0.466-0.424,1.055c0.069,0.465,0.137,0.955,0.066,1.413c-0.154,0.989-0.773,1.719-1.519,2.346
		c-0.808,0.679-1.734,1.107-2.762,1.334c-0.512,0.113-1.007,0.273-1.215,0.848c-0.038,0.105-0.127,0.209-0.217,0.277
		c-1.059,0.799-2.191,1.317-3.582,1.156c-0.638-0.074-1.281-0.003-1.771,0.602c-0.38,0.472-0.854,0.909-1.37,1.223
		c-1.047,0.64-2.13,0.471-3.191-0.054c-0.389-0.193-0.798-0.35-1.212-0.484c-0.368-0.12-0.682-0.037-1.061,0.15
		c-1.111,0.553-2.302,0.987-3.55,0.539c-0.555-0.201-1.144-0.456-1.535-0.987c-0.246-0.335-0.574-0.607-0.844-0.923
		c-0.411-0.475-0.943-0.597-1.541-0.655c-0.797-0.081-1.501-0.368-2.13-0.935c-0.95-0.858-1.547-1.954-2.242-2.988
		c-0.054-0.078-0.071-0.18-0.108-0.27c-0.201-0.494-0.39-0.979-0.894-1.281c-0.484-0.288-0.816-0.73-1.114-1.221
		c-0.518-0.847-0.824-1.764-1.029-2.717c-0.132-0.617,0.055-1.228,0.208-1.823c0.183-0.706,0.486-1.33,1.143-1.752
		c0.273-0.176,0.467-0.484,0.681-0.745c0.054-0.066,0.057-0.181,0.064-0.273c0.024-0.275,0.035-0.551,0.06-0.826
		c0.107-1.226,0.651-2.176,1.587-3.005c0.572-0.506,1.229-0.834,1.87-1.128c0.589-0.271,1.348-0.21,2.034-0.226
		c0.685-0.014,1.243,0.37,1.763,0.771c0.214,0.166,0.413,0.389,0.538,0.628c0.216,0.412,0.535,0.499,0.947,0.421
		c0.155-0.029,0.32-0.05,0.461-0.116c0.542-0.254,1.04-0.152,1.521,0.148c0.067,0.043,0.139,0.079,0.214,0.104
		c0.974,0.336,1.557,1.116,2.152,1.884c0.037,0.046,0.092,0.096,0.098,0.147c0.071,0.725,0.637,0.983,1.178,1.276
		c0.297,0.16,0.577,0.352,0.9,0.552c0.265-0.168,0.527-0.336,0.801-0.512c-0.058-0.16-0.073-0.289-0.141-0.374
		c-0.275-0.346-0.311-0.736-0.194-1.131c0.116-0.393,0.049-0.689-0.275-0.951c-0.508-0.413-0.741-1.013-0.978-1.593
		c-0.093-0.229-0.089-0.504-0.095-0.757c-0.002-0.177,0.066-0.353,0.084-0.53c0.058-0.581,0.072-1.152-0.335-1.644
		c-0.359-0.432-0.402-0.926-0.275-1.456c0.056-0.232,0.104-0.475,0.097-0.71c-0.031-1.162,0.556-2.008,1.397-2.704
		c0.39-0.322,0.648-0.681,0.7-1.188c0.026-0.258,0.095-0.511,0.117-0.767c0.083-0.895,0.455-1.634,1.14-2.222
		c0.421-0.36,0.851-0.721,1.242-1.114c0.361-0.362,0.799-0.505,1.28-0.583c0.195-0.031,0.386-0.09,0.579-0.131
		c0.223-0.049,0.33-0.185,0.376-0.408c0.114-0.576,0.451-1.005,0.923-1.342c0.162-0.115,0.287-0.278,0.448-0.39
		c0.228-0.158,0.459-0.374,0.711-0.413c1.041-0.165,2.067-0.195,3.102,0.184c1.065,0.394,1.929-0.084,1.972-1.222
		c0.011-0.285,0.122-0.476,0.402-0.593c0.311-0.131,0.62-0.288,0.89-0.485c0.327-0.239,0.614-0.165,0.869,0.057
		c0.433,0.38,0.95,0.475,1.492,0.514c0.272,0.019,0.513-0.035,0.657-0.309c0.044-0.083,0.151-0.13,0.207-0.209
		c0.647-0.937,1.615-0.964,2.606-0.927c0.117,0.004,0.235,0.039,0.351,0.033c0.444-0.023,0.855,0.045,1.216,0.334
		c0.216,0.173,0.501,0.28,0.673,0.486c0.336,0.405,0.672,0.286,1.051,0.112c0.413-0.189,0.838-0.352,1.259-0.526
		c0-0.084,0.021-0.155-0.004-0.195c-0.364-0.568-0.398-1.21-0.368-1.848c0.021-0.442-0.109-0.777-0.438-1.049
		c-0.607-0.5-0.778-1.136-0.725-1.912c0.052-0.739,0.3-1.384,0.653-2.007c0.272-0.48,0.268-0.891-0.07-1.378
		c-0.375-0.54-0.553-1.166-0.322-1.864c0.195-0.593,0.397-1.137,0.93-1.537c0.537-0.404,0.992-0.913,1.64-1.171
		c0.291-0.116,0.557-0.301,0.819-0.477c0.089-0.059,0.15-0.18,0.191-0.285c0.196-0.498,0.363-1.009,0.579-1.498
		c0.101-0.23,0.256-0.458,0.441-0.626c0.518-0.473,1.113-0.796,1.828-0.909c0.467-0.074,0.929-0.22,1.377-0.381
		c0.517-0.186,0.818-0.642,1.061-1.088c0.336-0.622,0.844-1.051,1.383-1.464c0.499-0.383,1.062-0.393,1.648-0.28
		c0.428,0.082,0.859,0.15,1.289,0.221c0.595,0.099,1.065-0.143,1.408-0.599c0.557-0.739,1.27-1.197,2.19-1.286
		c0.771-0.075,1.493,0.116,2.161,0.505c0.188,0.11,0.378,0.227,0.542,0.37c0.417,0.363,0.863,0.315,1.344,0.159
		c0.434-0.141,0.883-0.334,1.322-0.329c0.539,0.005,1.143,0.074,1.6,0.329c1.015,0.565,1.859,1.35,2.438,2.399
		c0.344,0.625,0.895,0.896,1.655,0.792c1.739-0.238,3.176,0.659,3.795,2.309c0.35,0.933,0.454,1.86,0.177,2.848
		c-0.228,0.805-0.07,1.618,0.557,2.2c0.324,0.301,0.587,0.633,0.844,0.974c0.352,0.466,0.479,1.033,0.334,1.586
		c-0.135,0.513-0.361,1.017-0.63,1.476c-0.269,0.46-0.589,0.915-0.98,1.268c-0.312,0.281-0.751,0.447-1.158,0.592
		c-0.564,0.2-0.936,0.571-1.18,1.095c-0.306,0.656-0.649,1.29-1.262,1.71c-0.456,0.312-0.935,0.594-1.418,0.862
		c-0.275,0.152-0.574,0.269-0.875,0.362c-0.423,0.13-0.858,0.123-1.277-0.021c-0.264-0.09-0.518-0.211-0.768-0.334
		c-0.56-0.277-1.069-0.137-1.478,0.262c-0.578,0.562-1.318,0.501-2.014,0.608c-0.122,0.019-0.31-0.105-0.401-0.217
		c-0.263-0.32-0.506-0.658-0.73-1.006C71.4,40.423,71.28,40.378,70.714,40.61z M55.227,42.031c-0.215,0.418-0.439,0.695-0.855,0.75
		c-0.737,0.097-1.405,0.394-2.059,0.73c-0.16,0.083-0.312,0.179-0.476,0.252c-0.373,0.168-0.712,0.058-0.915-0.292
		c-0.04-0.068-0.067-0.145-0.094-0.219c-0.155-0.445-0.457-0.702-0.912-0.857c-0.478-0.164-0.946-0.061-1.416-0.099
		c-0.479-0.038-0.784,0.184-1.074,0.489c-0.096,0.1-0.181,0.211-0.258,0.327c-0.198,0.298-0.483,0.457-0.815,0.569
		c-0.812,0.275-1.56,0.01-2.299-0.272c-0.586-0.225-0.831-0.141-1.059,0.442c-0.072,0.186-0.128,0.378-0.207,0.56
		c-0.437,1.007-1.956,1.536-2.967,1.127c-1.199-0.484-2.418-0.73-3.466,0.373c-0.109,0.115-0.238,0.217-0.326,0.346
		c-0.084,0.127-0.181,0.284-0.174,0.424c0.02,0.383-0.172,0.648-0.427,0.876c-0.38,0.34-0.823,0.547-1.348,0.504
		c-0.295-0.024-0.55,0.042-0.769,0.247c-0.376,0.351-0.729,0.73-1.137,1.041c-0.795,0.605-0.96,1.494-1.02,2.373
		c-0.053,0.761-0.354,1.316-0.895,1.796c-0.269,0.238-0.566,0.452-0.788,0.729c-0.191,0.238-0.375,0.537-0.416,0.829
		c-0.061,0.457-0.197,0.941,0.107,1.396c0.071,0.107,0.038,0.314-0.001,0.461c-0.078,0.296,0.021,0.529,0.139,0.796
		c0.141,0.314,0.241,0.669,0.259,1.011c0.018,0.394-0.097,0.79-0.109,1.188c-0.006,0.227,0.012,0.5,0.132,0.677
		c0.24,0.358,0.551,0.671,0.846,0.991c0.399,0.436,0.614,0.938,0.467,1.521c-0.1,0.397-0.003,0.695,0.25,0.988
		c0.113,0.132,0.231,0.288,0.27,0.45c0.085,0.357-0.032,0.653-0.347,0.883c-0.367,0.269-0.734,0.542-1.053,0.864
		c-0.395,0.399-0.804,0.45-1.244,0.063c-0.194-0.17-0.377-0.354-0.564-0.533c-0.342-0.33-0.71-0.541-1.226-0.492
		c-0.485,0.046-0.727-0.185-0.661-0.686c0.075-0.591-0.051-1.056-0.507-1.436c-0.073-0.062-0.112-0.164-0.17-0.244
		c-0.758-1.018-1.997-1.313-3.124-0.744c-0.054,0.027-0.098,0.071-0.151,0.096c-0.408,0.182-0.738,0.073-0.927-0.334
		c-0.268-0.58-0.708-1.005-1.201-1.385c-0.093-0.069-0.208-0.129-0.32-0.149c-1.011-0.175-1.958-0.078-2.856,0.509
		c-0.616,0.403-1.104,0.924-1.545,1.472c-0.431,0.533-0.616,1.235-0.49,1.911c0.153,0.827,0.108,1.06-0.571,1.558
		c-0.348,0.255-0.681,0.548-0.958,0.878c-0.478,0.57-0.725,1.318-0.644,1.998c0.101,0.845,0.326,1.708,0.777,2.481
		c0.208,0.354,0.434,0.642,0.775,0.878c0.321,0.222,0.642,0.498,0.843,0.823c0.427,0.691,0.767,1.437,1.16,2.15
		c0.462,0.843,0.98,1.649,1.785,2.21c0.215,0.152,0.502,0.247,0.767,0.277c0.893,0.102,1.781,0.19,2.454,0.887
		c0.137,0.142,0.277,0.284,0.407,0.436c0.425,0.493,0.826,0.977,1.476,1.247c0.731,0.304,1.386,0.291,2.028-0.122
		c0.563-0.363,1.144-0.592,1.825-0.649c0.703-0.06,1.268,0.271,1.884,0.471c0.565,0.186,1.13,0.383,1.708,0.521
		c0.589,0.142,1.098-0.123,1.527-0.496c0.375-0.324,0.716-0.692,1.042-1.065c0.447-0.511,1.015-0.661,1.659-0.643
		c0.417,0.013,0.839,0.059,1.251,0.011c0.45-0.052,0.893-0.177,1.331-0.298c0.165-0.045,0.23-0.177,0.293-0.376
		c0.105-0.333,0.315-0.71,0.596-0.893c0.489-0.317,1.06-0.522,1.608-0.737c0.405-0.157,0.841-0.233,1.249-0.385
		c0.739-0.272,1.387-0.695,1.883-1.314c0.545-0.679,0.894-1.43,0.553-2.321c-0.283-0.742-0.085-1.349,0.682-1.896
		c0.742-0.53,0.886-1.383,0.31-2.118c-0.147-0.188-0.307-0.368-0.43-0.571c-0.21-0.345-0.175-0.632,0.088-0.924
		c0.227-0.252,0.458-0.499,0.695-0.737c0.472-0.474,0.458-0.906-0.014-1.377c-0.146-0.144-0.279-0.35-0.314-0.546
		c-0.122-0.659-0.067-1.28,0.612-1.655c0.257-0.142,0.355-0.362,0.332-0.649c-0.012-0.14-0.022-0.278-0.021-0.417
		c0.013-0.64,0.441-1.085,1.074-1.127c0.232-0.015,0.464-0.041,0.644-0.056c0.167-0.376,0.264-0.707,0.451-0.978
		c0.122-0.174,0.363-0.33,0.57-0.358c0.265-0.036,0.594-0.016,0.814,0.116c0.332,0.198,0.679,0.2,1.026,0.258
		c0.215,0.035,0.433,0.067,0.646,0.121c0.669,0.165,1.246,0.056,1.731-0.478c0.197-0.216,0.463-0.368,0.686-0.564
		c0.224-0.193,0.478-0.214,0.73-0.129c0.451,0.148,0.907,0.3,1.335,0.504c0.409,0.196,0.823,0.285,1.268,0.279
		c0.634-0.006,1.103-0.196,1.444-0.815c0.308-0.56,0.859-0.981,1.536-1.025c0.557-0.035,1.141-0.18,1.686,0.115
		c0.047,0.025,0.122,0.026,0.173,0.009c0.729-0.261,1.459-0.501,1.979-1.147c0.359-0.447,0.535-0.968,0.768-1.472
		c0.319-0.689,0.736-1.372,1.493-1.595c0.491-0.145,0.976-0.31,1.462-0.468c0.594-0.192,0.972-0.623,1.005-1.249
		c0.015-0.27-0.097-0.546-0.087-0.816c0.016-0.419-0.086-0.769-0.354-1.104c-0.297-0.372-0.335-0.808-0.046-1.219
		c0.193-0.274,0.4-0.544,0.633-0.785c0.251-0.26,0.359-0.548,0.387-0.905c0.062-0.834-0.379-1.439-0.902-1.984
		c-0.518-0.537-0.643-1.107-0.379-1.782c0.696,0.008,1.219-0.405,1.797-0.646c0.239-0.101,0.332-0.41,0.252-0.731
		c-0.245-0.979-0.155-1.136,0.767-1.526c0.092-0.038,0.173-0.103,0.265-0.135c0.394-0.139,0.761-0.111,1.147,0.077
		c0.491,0.241,0.821,0.603,1.079,1.071c0.227,0.414,0.463,0.49,0.896,0.318c0.293-0.118,0.598-0.235,0.854-0.415
		c0.479-0.337,0.929-0.71,1.566-0.416c0.017,0.007,0.045,0.008,0.059-0.001c0.269-0.172,0.426,0.048,0.633,0.153
		c0.358,0.183,0.662,0.454,1.155,0.356c1.373-0.274,2.39-0.985,2.884-2.296c0.305-0.803,0.854-1.272,1.607-1.55
		c1.075-0.397,1.805-1.137,2.241-2.177c0.104-0.246,0.137-0.523,0.171-0.665c-0.229-0.299-0.449-0.476-0.514-0.697
		c-0.076-0.265-0.206-0.456-0.385-0.65c-0.44-0.477-0.756-1.017-0.784-1.689c-0.026-0.617-0.008-1.22,0.139-1.831
		c0.147-0.62,0.177-1.267-0.138-1.868c-0.153-0.293-0.346-0.568-0.468-0.872c-0.157-0.387-0.433-0.604-0.812-0.727
		c-0.674-0.216-1.371-0.245-2.064-0.178c-0.455,0.044-0.863-0.064-1.156-0.366c-0.484-0.497-0.925-1.042-1.344-1.597
		c-0.486-0.646-1.055-1.192-1.791-1.524c-0.446-0.202-0.915-0.216-1.376,0.047c-0.22,0.125-0.483,0.177-0.731,0.246
		c-0.168,0.047-0.357,0.033-0.512,0.104c-0.494,0.228-0.922,0.125-1.334-0.192c-0.297-0.229-0.594-0.463-0.914-0.656
		c-0.794-0.479-1.432-0.472-2.234,0.215c-0.346,0.297-0.645,0.65-0.997,0.938c-0.69,0.564-1.443,0.881-2.36,0.555
		c-0.313-0.112-0.663-0.125-0.994-0.19c-0.315-0.061-0.579,0.021-0.835,0.219c-0.523,0.405-0.952,0.864-1.288,1.455
		c-0.396,0.7-0.988,1.241-1.833,1.414c-0.506,0.104-1.016,0.201-1.51,0.348c-0.402,0.119-0.771,0.334-0.953,0.745
		c-0.24,0.544-0.469,1.096-0.687,1.65c-0.143,0.363-0.333,0.625-0.716,0.817c-0.705,0.354-1.371,0.792-2.029,1.233
		c-0.447,0.3-0.688,0.77-0.8,1.29c-0.086,0.401,0.218,0.667,0.412,0.958c0.282,0.421,0.416,0.866,0.263,1.359
		c-0.146,0.472-0.32,0.936-0.485,1.401c-0.092,0.258-0.223,0.505-0.278,0.77c-0.054,0.261-0.035,0.538-0.054,0.91
		c0.124,0.127,0.297,0.351,0.514,0.518c0.683,0.528,0.812,1.255,0.665,2.022c-0.071,0.375-0.001,0.659,0.164,0.959
		C54.809,41.266,55.018,41.649,55.227,42.031z"/>
	<path fill-rule="evenodd" clip-rule="evenodd" fill="#FFFFFF" d="M81.581,18.918c0.033,0.146,0.141,0.393,0.132,0.635
		c-0.024,0.7-0.502,1.184-0.915,1.676c-0.224,0.266-0.778,0.244-0.983,0.041c-0.2-0.2-0.174-0.514,0.019-0.866
		c0.217-0.395,0.409-0.805,0.589-1.218C80.649,18.667,81.178,18.485,81.581,18.918z"/>
	<path fill-rule="evenodd" clip-rule="evenodd" fill="#FFFFFF" d="M73.938,15.596c0.026,0.093,0.125,0.266,0.113,0.431
		c-0.04,0.529-0.096,1.061-0.192,1.582c-0.098,0.532-0.356,0.7-0.891,0.613c-0.135-0.022-0.316-0.122-0.365-0.234
		c-0.139-0.315-0.273-0.618-0.031-0.999c0.177-0.278,0.199-0.67,0.235-1.017c0.031-0.293,0.138-0.499,0.416-0.579
		C73.456,15.325,73.698,15.311,73.938,15.596z"/>
	<path fill-rule="evenodd" clip-rule="evenodd" fill="#FFFFFF" d="M87.146,35.065c-0.06-0.08-0.131-0.153-0.177-0.24
		c-0.146-0.282,0.011-0.531,0.329-0.504c0.132,0.012,0.274,0.063,0.384,0.137c0.631,0.419,1.258,0.831,2,1.042
		c0.271,0.078,0.43,0.468,0.35,0.684c-0.092,0.252-0.412,0.421-0.687,0.271c-0.759-0.417-1.493-0.88-2.236-1.326
		C87.122,35.108,87.134,35.086,87.146,35.065z"/>
	<path fill-rule="evenodd" clip-rule="evenodd" fill="#FFFFFF" d="M82.118,42.045c-0.138-0.213-0.307-0.415-0.402-0.646
		c-0.046-0.111-0.003-0.338,0.082-0.403c0.095-0.07,0.295-0.048,0.428-0.004c0.123,0.042,0.223,0.161,0.324,0.255
		c0.376,0.351,0.763,0.69,1.117,1.062c0.276,0.291,0.274,0.667,0.048,0.912c-0.187,0.203-0.666,0.218-0.936,0.013
		c-0.07-0.054-0.128-0.152-0.15-0.24C82.482,42.414,82.486,42.413,82.118,42.045z"/>
	<path fill-rule="evenodd" clip-rule="evenodd" fill="#FFFFFF" d="M89.34,31.297c-0.174,0.02-0.389,0.088-0.588,0.059
		c-0.428-0.063-0.854-0.158-1.268-0.278c-0.293-0.085-0.628-0.143-0.713-0.538c-0.072-0.338,0.047-0.487,0.399-0.438
		c0.331,0.045,0.691,0.206,0.986,0.125c0.396-0.106,0.7,0.018,1.023,0.141c0.304,0.115,0.42,0.451,0.294,0.735
		C89.451,31.154,89.41,31.198,89.34,31.297z"/>
	<path fill-rule="evenodd" clip-rule="evenodd" fill="#FFFFFF" d="M80.29,45.075c-0.308,0.247-0.605,0.225-0.785-0.151
		c-0.272-0.569-0.482-1.17-0.688-1.769c-0.062-0.182-0.032-0.415,0.196-0.506c0.233-0.093,0.427-0.014,0.558,0.206
		c0.295,0.492,0.599,0.979,0.882,1.477C80.602,44.595,80.522,44.889,80.29,45.075z"/>
	<path fill-rule="evenodd" clip-rule="evenodd" fill="#FFFFFF" d="M88.371,27.279c-0.102,0.012-0.271,0.035-0.441,0.049
		c-0.409,0.032-0.82,0.062-1.231,0.085c-0.175,0.011-0.354,0.012-0.529-0.003c-0.261-0.022-0.38-0.195-0.393-0.439
		c-0.013-0.269,0.177-0.403,0.396-0.442c0.6-0.107,1.205-0.188,1.81-0.267c0.233-0.03,0.438,0.047,0.525,0.291
		C88.589,26.781,88.636,27.015,88.371,27.279z"/>
	<path fill-rule="evenodd" clip-rule="evenodd" fill="#FFFFFF" d="M28.039,82.838c0.07-0.125,0.121-0.261,0.21-0.361
		c0.083-0.093,0.224-0.222,0.308-0.201c0.125,0.028,0.242,0.161,0.324,0.278c0.065,0.092,0.075,0.224,0.106,0.338
		c0.132,0.517,0.19,1.054,0.602,1.465c0.163,0.163,0.074,0.543-0.102,0.708c-0.167,0.155-0.377,0.118-0.631-0.089
		c-0.198-0.162-0.268-0.349-0.29-0.611c-0.038-0.41-0.156-0.816-0.271-1.214C28.263,83.033,28.13,82.945,28.039,82.838z"/>
	<path fill-rule="evenodd" clip-rule="evenodd" fill="#FFFFFF" d="M87.212,39.227c-0.011,0.109-0.028,0.207-0.029,0.304
		c-0.004,0.237-0.066,0.478-0.321,0.495c-0.193,0.013-0.438-0.066-0.587-0.192c-0.359-0.305-0.68-0.658-1.008-1
		c-0.079-0.083-0.165-0.194-0.177-0.3c-0.016-0.143-0.013-0.366,0.072-0.423c0.119-0.081,0.344-0.102,0.479-0.042
		c0.231,0.1,0.431,0.276,0.637,0.43C86.577,38.725,86.87,38.959,87.212,39.227z"/>
	<path fill-rule="evenodd" clip-rule="evenodd" fill="#FFFFFF" d="M64.619,59.21c0,0-0.027-0.028-0.052-0.061
		c-0.242-0.315-0.255-0.56-0.041-0.737c0.202-0.167,0.387-0.118,0.674,0.146c0.307,0.281,0.626,0.546,0.941,0.817
		c0.075,0.065,0.162,0.117,0.233,0.187c0.265,0.256,0.327,0.524,0.161,0.67c-0.199,0.175-0.685,0.187-0.867,0.011
		C65.326,59.911,64.988,59.573,64.619,59.21z"/>
	<path fill-rule="evenodd" clip-rule="evenodd" fill="#FFFFFF" d="M70.76,49.541c0.363-0.447,0.757-0.613,1.285-0.442
		c0.28,0.09,0.579,0.126,0.871,0.178c0.311,0.057,0.551,0.308,0.508,0.544c-0.051,0.282-0.369,0.536-0.667,0.459
		c-0.479-0.122-0.945-0.295-1.412-0.46C71.164,49.757,70.996,49.655,70.76,49.541z"/>
	<path fill-rule="evenodd" clip-rule="evenodd" fill="#FFFFFF" d="M60.093,59.691c0.224-0.255,0.473-0.204,0.638-0.015
		c0.44,0.508,0.857,1.036,1.254,1.578c0.147,0.205,0.063,0.425-0.171,0.551c-0.208,0.111-0.435,0.175-0.584-0.06
		c-0.375-0.585-0.73-1.182-1.084-1.779C60.1,59.889,60.107,59.777,60.093,59.691z"/>
	<path fill-rule="evenodd" clip-rule="evenodd" fill="#FFFFFF" d="M58.036,21.592c-0.15-0.14-0.346-0.306-0.522-0.491
		c-0.148-0.155-0.317-0.313-0.396-0.504c-0.053-0.129-0.016-0.354,0.07-0.469c0.118-0.157,0.312-0.123,0.473,0.011
		c0.41,0.34,0.822,0.681,1.241,1.01c0.169,0.133,0.332,0.303,0.216,0.493c-0.111,0.184-0.316,0.342-0.517,0.433
		c-0.222,0.1-0.356-0.094-0.457-0.276C58.115,21.746,58.089,21.693,58.036,21.592z"/>
	<path fill-rule="evenodd" clip-rule="evenodd" fill="#FFFFFF" d="M14.27,80.703c-0.561-0.453-0.569-0.499-0.283-0.931
		c0.275-0.415,0.549-0.83,0.812-1.252c0.123-0.196,0.311-0.305,0.497-0.209c0.12,0.061,0.222,0.279,0.219,0.426
		c-0.003,0.285-0.044,0.559-0.289,0.799C14.879,79.878,14.601,80.291,14.27,80.703z"/>
	<path fill-rule="evenodd" clip-rule="evenodd" fill="#FFFFFF" d="M75.585,43.901c0.213,0.175,0.433,0.344,0.641,0.526
		c0.264,0.23,0.267,0.424,0.026,0.782c-0.177,0.264-0.344,0.297-0.662,0.125c-0.086-0.047-0.195-0.095-0.239-0.173
		c-0.24-0.43-0.478-0.865-0.683-1.312c-0.039-0.085,0.038-0.305,0.12-0.345c0.124-0.06,0.322-0.068,0.445-0.009
		c0.152,0.074,0.259,0.238,0.387,0.364C75.608,43.874,75.597,43.887,75.585,43.901z"/>
	<path fill-rule="evenodd" clip-rule="evenodd" fill="#FFFFFF" d="M57.451,61.194c0.244,0.427,0.52,0.838,0.719,1.284
		c0.148,0.336-0.03,0.623-0.341,0.689c-0.245,0.053-0.463-0.16-0.576-0.466c-0.136-0.365-0.315-0.717-0.491-1.066
		c-0.114-0.224-0.34-0.436-0.099-0.689c0.162-0.171,0.46-0.066,0.716,0.222c0.013,0.015,0.024,0.03,0.036,0.047
		C57.427,61.208,57.438,61.201,57.451,61.194z"/>
	<path fill-rule="evenodd" clip-rule="evenodd" fill="#FFFFFF" d="M84.308,22.918c0.281-0.173,0.599-0.378,0.926-0.566
		c0.346-0.202,0.733-0.024,0.818,0.361c0.078,0.359-0.18,0.705-0.547,0.756c-0.213,0.03-0.422,0.088-0.631,0.139
		c-0.076,0.019-0.148,0.056-0.225,0.08c-0.25,0.077-0.478,0.071-0.612-0.199C83.9,23.219,84.105,23.091,84.308,22.918z"/>
	<path fill-rule="evenodd" clip-rule="evenodd" fill="#FFFFFF" d="M49.408,33.96c-0.109,0.13-0.198,0.326-0.347,0.395
		c-0.222,0.104-0.49,0.215-0.735,0.044c-0.32-0.224-0.669-0.319-1.056-0.334c-0.124-0.005-0.264-0.082-0.361-0.167
		c-0.177-0.155-0.126-0.376,0.086-0.477C47.555,33.156,48.916,33.435,49.408,33.96z"/>
	<path fill-rule="evenodd" clip-rule="evenodd" fill="#FFFFFF" d="M53.735,26.317c-0.104-0.031-0.22-0.034-0.286-0.093
		c-0.414-0.366-0.831-0.731-1.215-1.127c-0.128-0.131-0.223-0.359-0.054-0.544c0.167-0.184,0.353-0.096,0.542-0.001
		c0.457,0.229,0.978,0.369,1.149,0.948C53.954,25.774,54.038,26.038,53.735,26.317z"/>
	<path fill-rule="evenodd" clip-rule="evenodd" fill="#FFFFFF" d="M36.895,81.298c0.171-0.284,0.328-0.545,0.517-0.858
		c0.256,0.119,0.477,0.196,0.668,0.317c0.252,0.156,0.499,0.327,0.709,0.533c0.112,0.111,0.234,0.346,0.187,0.456
		c-0.083,0.198-0.263,0.398-0.454,0.497c-0.19,0.1-0.361-0.049-0.467-0.254c-0.175-0.336-0.438-0.548-0.852-0.523
		C37.124,81.469,37.039,81.379,36.895,81.298z"/>
	<path fill-rule="evenodd" clip-rule="evenodd" fill="#FFFFFF" d="M65.996,19.11c-0.314,0.264-0.721,0.172-0.888-0.139
		c-0.072-0.135-0.103-0.299-0.125-0.454c-0.046-0.313-0.07-0.63-0.108-0.945c-0.039-0.319,0.057-0.53,0.278-0.572
		c0.272-0.053,0.412,0.127,0.486,0.341c0.157,0.447,0.306,0.898,0.419,1.357C66.096,18.847,66.011,19.024,65.996,19.11z"/>
	<path fill-rule="evenodd" clip-rule="evenodd" fill="#FFFFFF" d="M43.979,80.346c-0.267,0.241-0.398,0.253-0.665,0.028
		c-0.333-0.277-0.659-0.562-0.979-0.855c-0.087-0.077-0.156-0.182-0.208-0.285c-0.093-0.181-0.178-0.408,0.024-0.53
		c0.106-0.065,0.342-0.01,0.47,0.071c0.465,0.294,0.918,0.612,1.363,0.94C44.249,79.91,44.237,80.112,43.979,80.346z"/>
	<path fill-rule="evenodd" clip-rule="evenodd" fill="#FFFFFF" d="M12.568,75.341c-0.038,0.584-0.061,0.604-0.578,0.737
		c-0.288,0.074-0.568,0.177-0.854,0.265c-0.096,0.029-0.192,0.063-0.289,0.07c-0.214,0.018-0.543-0.189-0.561-0.351
		c-0.029-0.293,0.17-0.349,0.402-0.414c0.263-0.074,0.555-0.157,0.758-0.328C11.86,74.974,12.205,75.091,12.568,75.341z"/>
	<path fill-rule="evenodd" clip-rule="evenodd" fill="#FFFFFF" d="M27.86,49.864c0.067,0.226,0.067,0.469-0.24,0.648
		c-0.296,0.173-0.534,0.034-0.76-0.11c-0.298-0.191-0.584-0.403-0.854-0.633c-0.106-0.091-0.224-0.277-0.198-0.385
		c0.026-0.107,0.221-0.231,0.353-0.245c0.4-0.046,0.783-0.011,1.093,0.322C27.402,49.622,27.625,49.714,27.86,49.864z"/>
	<path fill-rule="evenodd" clip-rule="evenodd" fill="#FFFFFF" d="M47.109,77.445c-0.528-0.289-1.036-0.554-1.528-0.845
		c-0.215-0.124-0.174-0.473,0.061-0.587c0.102-0.049,0.247-0.093,0.343-0.059c0.503,0.174,1.008,0.354,1.493,0.573
		c0.224,0.099,0.236,0.362,0.062,0.544C47.419,77.199,47.275,77.304,47.109,77.445z"/>
	<path fill-rule="evenodd" clip-rule="evenodd" fill="#FFFFFF" d="M34.441,82.96c0.122,0.32,0.276,0.656,0.366,1.008
		c0.031,0.12-0.06,0.341-0.164,0.406c-0.083,0.05-0.287-0.041-0.407-0.115c-0.517-0.324-0.71-0.894-0.99-1.389
		c-0.162-0.284,0.058-0.556,0.37-0.45C33.897,82.515,34.132,82.749,34.441,82.96z"/>
	<path fill-rule="evenodd" clip-rule="evenodd" fill="#FFFFFF" d="M49.429,72.709c-0.078,0.017-0.249,0.099-0.41,0.082
		c-0.392-0.043-0.778-0.132-1.167-0.204c-0.058-0.011-0.129-0.02-0.167-0.057c-0.113-0.121-0.211-0.257-0.317-0.386
		c0.131-0.099,0.253-0.263,0.396-0.284c0.409-0.063,0.825-0.085,1.238-0.086c0.146,0,0.308,0.08,0.441,0.161
		C49.704,72.093,49.726,72.439,49.429,72.709z"/>
	<path fill-rule="evenodd" clip-rule="evenodd" fill="#FFFFFF" d="M69.555,53.005c0.417,0.026,0.705,0.031,0.988,0.067
		c0.274,0.035,0.545,0.1,0.815,0.156c0.303,0.063,0.562,0.354,0.561,0.616c0.001,0.234-0.219,0.46-0.499,0.508
		c-0.077,0.012-0.178,0.031-0.233-0.005c-0.43-0.278-0.857-0.562-1.271-0.863C69.8,53.4,69.734,53.249,69.555,53.005z"/>
	<path fill-rule="evenodd" clip-rule="evenodd" fill="#FFFFFF" d="M32.587,43.831c-0.15-0.254-0.326-0.498-0.441-0.767
		c-0.051-0.12-0.031-0.375,0.043-0.417c0.127-0.074,0.384-0.101,0.479-0.021c0.386,0.328,0.75,0.688,1.078,1.073
		c0.139,0.162,0.034,0.394-0.145,0.521c-0.206,0.147-0.442,0.21-0.652,0.013c-0.129-0.121-0.223-0.279-0.333-0.419
		C32.607,43.82,32.597,43.826,32.587,43.831z"/>
	<path fill-rule="evenodd" clip-rule="evenodd" fill="#FFFFFF" d="M9.816,71.725c-0.706-0.193-1.407,0.237-2.152-0.113
		c0.101-0.143,0.144-0.273,0.23-0.314c0.466-0.221,0.93-0.457,1.419-0.612c0.402-0.129,0.732,0.246,0.641,0.661
		C9.933,71.441,9.888,71.532,9.816,71.725z"/>
	<path fill-rule="evenodd" clip-rule="evenodd" fill="#FFFFFF" d="M66.945,55.089c0.671-0.025,1.153,0.285,1.613,0.631
		c0.304,0.229,0.342,0.536,0.128,0.769c-0.229,0.246-0.469,0.233-0.77-0.031c-0.237-0.209-0.481-0.413-0.727-0.615
		C66.961,55.651,66.831,55.432,66.945,55.089z"/>
	<path fill-rule="evenodd" clip-rule="evenodd" fill="#FFFFFF" d="M51.54,60.945c0.168-0.382,0.496-0.354,0.729-0.26
		c0.593,0.239,1.227,0.439,1.627,0.993c-0.327,0.6-0.521,0.642-0.983,0.25c-0.212-0.178-0.435-0.344-0.659-0.505
		C52.03,61.264,51.798,61.118,51.54,60.945z"/>
	<path fill-rule="evenodd" clip-rule="evenodd" fill="#FFFFFF" d="M24.841,85.106c-0.582-0.212-0.659-0.328-0.652-0.847
		c0.002-0.331-0.045-0.665-0.031-0.994c0.009-0.209,0.037-0.464,0.355-0.44c0.267,0.021,0.345,0.199,0.374,0.445
		c0.036,0.312,0.093,0.625,0.175,0.929C25.152,84.535,25.09,84.817,24.841,85.106z"/>
	<path fill-rule="evenodd" clip-rule="evenodd" fill="#FFFFFF" d="M73.045,47.248c-0.489-0.374-1.199-0.376-1.517-1.007
		c0.225-0.256,0.484-0.3,0.77-0.255c0.215,0.034,0.426,0.101,0.641,0.116c0.335,0.024,0.594,0.181,0.667,0.49
		C73.691,46.964,73.369,47.088,73.045,47.248z"/>
	<path fill-rule="evenodd" clip-rule="evenodd" fill="#FFFFFF" d="M15.253,58.066c-0.11-0.516-0.233-0.973-0.289-1.439
		c-0.015-0.122,0.149-0.327,0.282-0.386c0.091-0.041,0.341,0.064,0.392,0.169c0.208,0.424,0.479,0.842,0.434,1.342
		c-0.015,0.175-0.108,0.456-0.216,0.483C15.688,58.276,15.477,58.139,15.253,58.066z"/>
	<path fill-rule="evenodd" clip-rule="evenodd" fill="#FFFFFF" d="M22.232,58.204c-0.81,0.133-1.107-0.082-1.094-0.722
		c0.007-0.373,0.065-0.747,0.133-1.115c0.014-0.077,0.166-0.163,0.265-0.18c0.067-0.013,0.203,0.08,0.221,0.149
		C21.922,56.941,22.068,57.55,22.232,58.204z"/>
	<path fill-rule="evenodd" clip-rule="evenodd" fill="#FFFFFF" d="M38.133,39.919c0.108-0.053,0.145-0.086,0.177-0.084
		c0.489,0.003,1.288,0.976,1.197,1.449c-0.078,0.398-0.441,0.539-0.739,0.253c-0.177-0.17-0.319-0.403-0.403-0.635
		C38.25,40.595,38.208,40.26,38.133,39.919z"/>
	<path fill-rule="evenodd" clip-rule="evenodd" fill="#FFFFFF" d="M10.92,61.453c-0.142-0.211-0.269-0.435-0.431-0.629
		c-0.123-0.146-0.266-0.28-0.081-0.448c0.167-0.15,0.394-0.231,0.594-0.069c0.321,0.261,0.628,0.539,0.926,0.825
		c0.167,0.163,0.14,0.359-0.008,0.535c-0.15,0.18-0.461,0.242-0.642,0.106c-0.124-0.094-0.221-0.226-0.33-0.34
		C10.939,61.439,10.93,61.446,10.92,61.453z"/>
	<path fill-rule="evenodd" clip-rule="evenodd" fill="#FFFFFF" d="M6.758,65.408c0.249-0.094,0.357-0.174,0.459-0.166
		c0.474,0.03,0.946,0.074,1.416,0.143c0.121,0.019,0.282,0.119,0.328,0.227c0.072,0.163,0.134,0.394,0.07,0.538
		c-0.093,0.21-0.365,0.294-0.559,0.155c-0.385-0.274-0.805-0.398-1.257-0.486C7.077,65.793,6.968,65.606,6.758,65.408z"/>
	<path fill-rule="evenodd" clip-rule="evenodd" fill="#FFFFFF" d="M48.51,62.87c-0.02-0.423,0.175-0.612,0.495-0.611
		c0.414,0.003,0.835,0.032,1.239,0.117c0.324,0.066,0.463,0.349,0.371,0.574c-0.096,0.236-0.353,0.339-0.654,0.221
		C49.501,62.991,49.052,62.773,48.51,62.87z"/>
	<path fill-rule="evenodd" clip-rule="evenodd" fill="#FFFFFF" d="M47.877,65.26c0.755-0.354,1.395-0.39,2.027-0.054
		c0.159,0.084,0.372,0.186,0.314,0.446c-0.046,0.213-0.381,0.449-0.604,0.363C49.065,65.806,48.531,65.549,47.877,65.26z"/>
	<path fill-rule="evenodd" clip-rule="evenodd" fill="#FFFFFF" d="M49.286,68.321c0.032,0.692-0.109,0.813-0.768,0.653
		c-0.25-0.06-0.51-0.097-0.742-0.197c-0.188-0.081-0.337-0.243-0.51-0.373C47.651,68.001,48.336,67.99,49.286,68.321z"/>
	<path fill-rule="evenodd" clip-rule="evenodd" fill="#FFFFFF" d="M18.556,83.207c-0.347-0.065-0.45-0.327-0.355-0.61
		c0.142-0.426,0.339-0.838,0.56-1.229c0.067-0.12,0.292-0.15,0.453-0.227C19.344,81.663,18.968,82.803,18.556,83.207z"/>
	<path fill-rule="evenodd" clip-rule="evenodd" fill="#FFFFFF" d="M25.412,55.75c-0.37,0.504-0.46,0.517-0.94,0.188
		c-0.127-0.088-0.289-0.128-0.41-0.221c-0.174-0.134-0.324-0.297-0.482-0.449c0.016-0.045,0.033-0.091,0.048-0.136
		c0.402-0.02,0.81-0.087,1.206-0.045C25.186,55.122,25.31,55.454,25.412,55.75z"/>
	<path fill-rule="evenodd" clip-rule="evenodd" fill="#FFFFFF" d="M48.523,38.591c-0.079,0.722-0.399,0.905-1.014,0.566
		c-0.212-0.117-0.398-0.28-0.672-0.478C47.457,38.439,47.945,38.146,48.523,38.591z"/>
	<path fill-rule="evenodd" clip-rule="evenodd" fill="#FFFFFF" d="M43.014,38.363c0.303,0.232,0.575,0.392,0.783,0.613
		c0.235,0.25,0.184,0.536-0.065,0.72c-0.238,0.177-0.535,0.121-0.705-0.171C42.836,39.196,42.724,38.844,43.014,38.363z"/>
	<path fill-rule="evenodd" clip-rule="evenodd" fill="#FFFFFF" d="M42.113,72.905c-0.254,0.523-0.66,0.917-1.089,1.308
		c-0.32,0.294-0.585,0.653-1.043,0.704c-0.542,0.062-1.087,0.094-1.63,0.097c-0.477,0.005-0.779,0.178-0.954,0.643
		c-0.21,0.56-0.493,0.957-1.18,1.091c-0.732,0.146-1.406,0.16-2.069-0.148c-0.371-0.173-1.13,0.115-1.359,0.506
		c-0.273,0.468-0.593,0.884-1.107,1.134c-0.803,0.389-1.587,0.461-2.379-0.016c-0.135-0.082-0.277-0.155-0.414-0.236
		c-0.523-0.312-1.052-0.331-1.585-0.034c-0.314,0.174-0.617,0.366-0.935,0.532c-1.107,0.581-2.213,0.687-3.32-0.009
		c-0.508-0.32-0.961-0.676-1.274-1.218c-0.35-0.609-0.917-0.919-1.641-0.917c-1.269,0.005-2.156-0.642-2.871-1.638
		c-0.635-0.889-1.012-1.885-1.336-2.906c-0.09-0.288-0.232-0.467-0.523-0.485c-0.477-0.034-0.756-0.288-0.926-0.721
		c-0.085-0.217-0.274-0.395-0.35-0.613c-0.203-0.584-0.083-1.16,0.07-1.747c0.261-1.001,1.105-1.312,1.902-1.679
		c0.552-0.254,0.589-0.301,0.423-0.888c-0.06-0.21-0.092-0.434-0.181-0.631c-0.327-0.716-0.058-1.362,0.322-1.915
		c0.365-0.531,0.966-0.817,1.627-0.892c0.891-0.102,1.662,0.124,2.185,0.902c0.177,0.264,0.379,0.302,0.663,0.245
		c0.562-0.114,1.129-0.21,1.694-0.304c0.137-0.023,0.291-0.045,0.416-0.004c0.867,0.286,2.243,1.166,2.185,2.525
		c-0.016,0.378,0.237,0.592,0.657,0.599c0.196,0.004,0.395-0.052,0.593-0.058c0.667-0.02,1.089,0.266,1.323,0.893
		c0.104,0.277,0.191,0.562,0.275,0.848c0.093,0.324,0.273,0.406,0.562,0.223c0.151-0.096,0.305-0.202,0.417-0.336
		c0.577-0.69,1.272-0.988,2.166-0.714c0.15,0.047,0.312,0.059,0.467,0.095c0.781,0.18,1.207-0.032,1.455-0.793
		c0.172-0.531,0.194-1.064-0.287-1.485c-0.354-0.308-0.483-0.689-0.466-1.166c0.023-0.591-0.032-1.184-0.056-1.776
		c-0.012-0.27-0.192-0.423-0.394-0.562c-0.364-0.254-0.632-0.555-0.791-1.004c-0.231-0.648-0.048-1.201,0.206-1.766
		c0.064-0.145,0.169-0.271,0.237-0.413c0.126-0.262,0.113-0.487-0.024-0.779c-0.224-0.478-0.6-0.905-0.581-1.483
		c0.023-0.657,0.172-1.24,0.722-1.685c0.335-0.271,0.609-0.622,0.906-0.942c0.215-0.231,0.206-0.519,0.132-0.792
		c-0.275-1.014,0.287-1.817,1.172-2.198c0.729-0.314,1.442-0.667,2.174-0.975c0.269-0.113,0.414-0.262,0.465-0.553
		c0.047-0.269,0.145-0.53,0.243-0.788c0.03-0.082,0.119-0.155,0.199-0.203c0.599-0.36,1.212-0.688,1.909-0.821
		c0.376-0.072,0.748-0.097,1.097,0.119c0.118,0.072,0.253,0.119,0.385,0.164c0.714,0.246,0.995,0.153,1.508-0.413
		c0.496-0.547,1.1-0.895,1.866-0.926c0.5-0.02,0.961,0.005,1.436,0.253c0.653,0.341,1.163,0.137,1.592-0.451
		c0.249-0.342,0.644-0.543,1.022-0.649c0.587-0.165,1.215-0.238,1.784,0.137c0.049,0.032,0.108,0.05,0.162,0.077
		c0.732,0.389,0.799,0.341,1.435-0.227c0.873-0.779,1.89-1.133,3.069-0.804c0.211,0.06,0.424,0.141,0.639,0.146
		c0.308,0.008,0.683,0.067,0.838-0.299c0.252-0.6,0.31-0.738-0.06-1.206c-0.135-0.17-0.283-0.335-0.386-0.524
		c-0.33-0.611-0.316-1.192,0.114-1.78c0.382-0.521,0.314-1.104-0.035-1.628c-0.487-0.73-0.923-1.494-1.001-2.394
		c-0.053-0.616,0.338-1.025,0.733-1.421c0.026-0.027,0.069-0.039,0.102-0.062c0.639-0.442,0.695-0.617,0.352-1.339
		c-0.194-0.408-0.271-0.822-0.233-1.271c0.037-0.43,0.222-0.778,0.58-0.995c0.504-0.305,1.022-0.589,1.556-0.839
		c0.581-0.273,1.008-0.588,0.925-1.341c-0.052-0.476,0.109-0.972,0.407-1.337c0.208-0.255,0.571-0.432,0.898-0.531
		c0.354-0.106,0.748-0.083,1.124-0.112c0.158-0.012,0.318-0.007,0.477-0.02c0.628-0.049,1.061-0.336,1.31-0.947
		c0.509-1.252,2.303-1.736,3.35-0.895c0.636,0.51,1.327,0.232,1.646-0.257c0.141-0.217,0.277-0.438,0.408-0.661
		c0.364-0.621,0.844-0.881,1.618-0.841c0.759,0.04,1.298,0.452,1.915,0.744c0.093,0.044,0.164,0.158,0.218,0.254
		c0.216,0.387,0.408,0.494,0.813,0.326c0.287-0.119,0.55-0.31,0.802-0.498c1.108-0.825,2.44-0.524,3.134,0.41
		c0.315,0.423,0.541,0.926,0.735,1.421c0.251,0.641,0.658,0.896,1.319,0.734c0.327-0.081,0.657-0.192,0.988-0.206
		c1.253-0.047,1.935,0.501,2.406,1.69c0.292,0.736,0.11,1.45,0.123,2.174c0.005,0.275-0.102,0.552-0.099,0.827
		c0.006,0.387-0.022,0.775,0.378,1.066c0.316,0.229,0.445,0.662,0.332,1.021c-0.185,0.582-0.472,1.132-0.736,1.686
		c-0.154,0.321-0.437,0.504-0.784,0.591c-0.271,0.068-0.54,0.141-0.804,0.23c-0.291,0.098-0.564,0.228-0.583,0.596
		c-0.025,0.524-0.348,0.925-0.713,1.191c-0.554,0.403-1.104,0.892-1.909,0.763c-0.545-0.087-1.116-0.018-1.585-0.41
		c-0.239-0.2-0.447-0.068-0.622,0.123c-0.132,0.144-0.231,0.324-0.384,0.439c-0.905,0.69-1.824,0.516-2.492-0.381
		c-0.438-0.588-0.975-0.981-1.666-1.18c-0.151-0.043-0.313-0.056-0.471-0.059c-0.229-0.003-0.38,0.103-0.396,0.352
		c-0.004,0.06-0.03,0.117-0.033,0.176c-0.018,0.349-0.078,0.655-0.439,0.847c-0.412,0.217-0.817,0.417-1.295,0.324
		c-0.233-0.044-0.473-0.106-0.685-0.208c-0.41-0.199-0.813-0.162-1.216-0.017c-0.132,0.047-0.312,0.156-0.333,0.264
		c-0.023,0.118,0.08,0.301,0.185,0.396c0.262,0.24,0.559,0.441,0.834,0.667c0.602,0.495,0.654,1.349,0.101,1.915
		c-0.221,0.225-0.482,0.41-0.737,0.598c-0.358,0.261-0.388,0.504-0.098,0.84c0.26,0.299,0.504,0.615,0.763,0.916
		c0.461,0.537,0.552,1.176,0.517,1.848c-0.024,0.463-0.22,0.84-0.615,1.105c-0.132,0.088-0.259,0.188-0.374,0.297
		c-0.396,0.375-0.42,0.542-0.187,1.046c0.496,1.068,0.348,2.296-0.63,3.137c-0.146,0.124-0.336,0.212-0.521,0.272
		c-0.302,0.099-0.615,0.167-0.926,0.237c-0.525,0.12-0.896,0.381-1.037,0.942c-0.133,0.522-0.34,1.015-0.795,1.368
		c-0.564,0.438-1.139,0.706-1.871,0.402c-0.307-0.128-0.661-0.138-0.984-0.232c-0.479-0.139-0.749,0.126-0.981,0.47
		c-0.199,0.296-0.376,0.605-0.576,0.9c-0.518,0.76-1.303,0.911-2.111,0.765c-0.509-0.091-0.992-0.387-1.456-0.647
		c-0.379-0.212-0.881-0.255-1.199,0.03c-0.19,0.171-0.371,0.369-0.499,0.585c-0.242,0.411-0.592,0.7-0.98,0.945
		c-0.437,0.276-0.731,0.245-1.134-0.075c-0.077-0.062-0.154-0.156-0.24-0.167c-0.562-0.071-0.959-0.459-1.425-0.718
		c-0.612-0.343-1.248-0.137-1.558,0.511c-0.053,0.106-0.084,0.224-0.125,0.334c-0.31,0.827-1.042,1.219-1.89,1.019
		c-0.193-0.046-0.387-0.104-0.584-0.118c-0.552-0.041-0.912,0.353-0.821,0.896c0.028,0.175,0.092,0.345,0.158,0.512
		c0.271,0.688,0.142,1.124-0.46,1.522c-0.082,0.055-0.175,0.096-0.253,0.158c-0.568,0.45-0.634,0.781-0.284,1.425
		c0.066,0.122,0.126,0.25,0.212,0.358c0.756,0.974,0.736,1.335-0.13,2.244c-0.165,0.172-0.328,0.345-0.476,0.528
		c-0.278,0.348-0.264,0.412-0.009,0.773c0.24,0.343,0.487,0.684,0.675,1.053c0.329,0.639,0.113,1.312-0.493,1.694
		c-0.318,0.202-0.648,0.394-0.936,0.634c-0.13,0.109-0.23,0.326-0.239,0.499c-0.009,0.251,0.055,0.512,0.128,0.756
		c0.067,0.226,0.207,0.429,0.283,0.651C42.04,72.472,42.067,72.69,42.113,72.905z M66.102,40.843
		c-0.317-0.223-0.633-0.448-0.953-0.668c-0.562-0.385-0.84-1.199-0.602-1.799c0.027-0.07,0.084-0.141,0.146-0.182
		c0.836-0.544,1.694-0.981,2.733-0.577c0.203,0.081,0.417,0.137,0.632,0.174c0.258,0.044,0.465-0.015,0.548-0.319
		c0.052-0.19,0.139-0.38,0.253-0.54c0.252-0.349,0.474-0.774,1.009-0.714c1.23,0.135,2.378,0.431,3.1,1.585
		c0.254,0.406,0.645,0.431,1.035,0.112c0.229-0.185,0.453-0.378,0.652-0.593c0.181-0.197,0.384-0.294,0.636-0.235
		c0.386,0.093,0.817,0.13,1.131,0.34c0.304,0.203,0.603,0.211,0.901,0.208c0.729-0.004,1.709-0.371,1.73-1.427
		c0.003-0.17,0.153-0.355,0.275-0.499c0.354-0.421,0.859-0.556,1.37-0.667c0.593-0.13,0.755-0.647,1.013-1.091
		c0.229-0.398-0.013-0.688-0.189-0.988c-0.292-0.498-0.398-1.021-0.317-1.594c0.119-0.842,0.277-1.672,0.065-2.541
		c-0.165-0.679-0.699-1.113-1.38-0.94c-0.173,0.044-0.332,0.136-0.505,0.184c-0.476,0.132-0.95,0.282-1.451,0.099
		c-0.671-0.244-1.179-0.65-1.398-1.354c-0.06-0.19-0.098-0.391-0.183-0.567c-0.129-0.265-0.251-0.551-0.448-0.76
		c-0.427-0.451-0.913-0.475-1.439-0.123c-0.265,0.177-0.513,0.38-0.774,0.561c-0.665,0.458-1.406,0.45-2.036-0.054
		c-0.261-0.208-0.468-0.483-0.703-0.724c-0.697-0.71-1.655-0.554-2.031,0.345c-0.202,0.482-0.543,0.833-0.972,1.096
		c-0.735,0.451-1.59,0.365-2.248-0.205c-0.304-0.263-0.651-0.312-1.006-0.185c-0.414,0.15-0.789,0.358-0.946,0.834
		c-0.134,0.406-0.403,0.734-0.795,0.932c-0.723,0.364-1.494,0.513-2.302,0.486c-0.55-0.019-0.882,0.305-0.916,0.858
		c-0.02,0.333-0.031,0.682-0.144,0.987c-0.12,0.324-0.288,0.7-0.553,0.883c-0.429,0.296-0.887,0.569-1.418,0.72
		c-0.753,0.213-1.146,0.685-0.8,1.41c0.076,0.16,0.104,0.343,0.171,0.509c0.312,0.764,0.174,1.355-0.451,1.915
		c-0.208,0.185-0.438,0.353-0.606,0.568c-0.109,0.139-0.192,0.362-0.165,0.528c0.044,0.268,0.139,0.559,0.303,0.767
		c0.351,0.445,0.599,0.926,0.809,1.451c0.312,0.783,0.312,1.489-0.242,2.162c-0.296,0.36-0.286,0.384,0.002,0.761
		c0.071,0.095,0.155,0.181,0.232,0.273c0.418,0.504,0.571,1.1,0.487,1.729c-0.061,0.449-0.222,0.938-0.64,1.156
		c-0.871,0.455-1.796,0.591-2.737,0.156c-0.085-0.039-0.188-0.04-0.285-0.05c-0.646-0.069-1.06,0.326-1.518,0.697
		c-1.073,0.869-1.821,1.027-2.659,0.277c-0.029-0.026-0.067-0.042-0.102-0.062c-0.343-0.207-0.69-0.317-1.06-0.062
		c-0.24,0.167-0.517,0.295-0.716,0.501c-0.586,0.609-1.212,1.042-2.106,0.713c-0.149-0.054-0.292-0.122-0.433-0.193
		c-0.897-0.45-1.678-0.113-2.189,0.557c-0.096,0.125-0.215,0.235-0.323,0.35c-0.364,0.385-0.812,0.493-1.311,0.373
		c-0.385-0.092-0.765-0.209-1.143-0.326c-0.611-0.188-1.166-0.007-1.73,0.211c-0.468,0.18-0.56,0.569-0.665,0.98
		c-0.115,0.441-0.349,0.802-0.796,0.983c-0.695,0.281-1.4,0.542-2.075,0.861c-0.272,0.129-0.51,0.368-0.709,0.604
		c-0.211,0.249-0.204,0.551-0.005,0.831c0.021,0.027,0.026,0.078,0.015,0.114c-0.213,0.763-0.459,1.472-1.108,2.039
		c-0.925,0.812-0.997,0.788-0.433,1.948c0.167,0.342,0.293,0.676,0.308,1.074c0.019,0.503-0.139,0.925-0.354,1.359
		c-0.314,0.639-0.228,0.952,0.315,1.4c0.093,0.076,0.18,0.159,0.275,0.231c0.44,0.331,0.6,0.782,0.519,1.309
		c-0.069,0.437-0.05,0.864-0.035,1.299c0.018,0.48,0.142,0.878,0.493,1.23c0.168,0.17,0.287,0.443,0.319,0.685
		c0.089,0.66,0.004,1.317-0.279,1.924c-0.238,0.509-0.523,0.914-1.162,1.091c-0.602,0.168-1.093,0.026-1.616-0.144
		c-0.399-0.129-0.741-0.072-1.055,0.194c-0.287,0.245-0.562,0.506-0.858,0.739c-0.494,0.391-0.981,0.527-1.383,0.073
		c-0.038-0.044-0.094-0.077-0.148-0.102c-0.446-0.199-0.657-0.542-0.689-1.029c-0.011-0.19-0.097-0.384-0.186-0.558
		c-0.114-0.221-0.355-0.333-0.554-0.214c-0.417,0.251-0.722,0.004-1.042-0.166c-0.21-0.109-0.39-0.277-0.593-0.403
		c-0.338-0.212-0.488-0.492-0.436-0.905c0.026-0.207,0.004-0.449-0.08-0.638c-0.427-0.934-1.59-1.343-2.52-0.882
		c-0.424,0.211-0.848,0.229-1.272,0.178c-0.2-0.023-0.44-0.208-0.551-0.389c-0.521-0.848-1.206-1.045-2.078-0.55
		c-0.592,0.336-0.799,0.902-0.626,1.554c0.112,0.419,0.17,0.856,0.215,1.29c0.048,0.465-0.163,0.81-0.595,1.002
		c-0.291,0.129-0.586,0.253-0.883,0.365c-0.435,0.164-0.783,0.442-0.898,0.891c-0.093,0.36-0.105,0.751-0.096,1.125
		c0.011,0.413,0.177,0.549,0.591,0.691c0.587,0.199,1.021,0.511,1.19,1.194c0.229,0.912,0.53,1.793,1.115,2.593
		c0.603,0.831,1.313,1.303,2.307,1.334c0.889,0.025,1.541,0.457,2.098,1.087c0.197,0.222,0.345,0.486,0.546,0.704
		c0.505,0.544,1.093,0.903,1.884,0.828c0.594-0.057,1.125-0.282,1.601-0.608c0.89-0.612,1.775-0.794,2.781-0.248
		c0.25,0.136,0.514,0.252,0.757,0.409c0.11,0.069,0.266,0.106,0.396,0.1c0.762-0.038,1.382-0.329,1.757-1.032
		c0.038-0.07,0.073-0.143,0.119-0.206c0.59-0.824,1.331-1.028,2.288-0.713c0.388,0.129,0.817,0.159,1.231,0.171
		c0.363,0.01,0.61-0.183,0.752-0.561c0.105-0.286,0.312-0.543,0.503-0.787c0.602-0.766,1.519-0.503,2.302-0.654
		c0.228-0.044,0.47-0.025,0.664-0.172c0.253-0.19,0.499-0.394,0.725-0.611c0.375-0.361,0.393-0.581,0.182-1.059
		c-0.208-0.471-0.351-0.962-0.354-1.488c-0.002-0.506,0.175-0.879,0.66-1.097c0.291-0.129,0.563-0.3,0.833-0.469
		c0.424-0.264,0.49-0.439,0.247-0.883c-0.199-0.364-0.461-0.694-0.705-1.033c-0.361-0.503-0.382-0.783-0.054-1.312
		c0.104-0.168,0.234-0.321,0.368-0.469c0.212-0.235,0.423-0.476,0.66-0.686c0.264-0.235,0.171-0.428,0.011-0.672
		c-0.262-0.396-0.499-0.808-0.727-1.224c-0.186-0.341-0.159-0.696,0.033-1.028c0.187-0.327,0.393-0.625,0.747-0.827
		c0.562-0.322,0.583-0.451,0.388-1.075c-0.048-0.152-0.114-0.299-0.155-0.451c-0.188-0.697-0.05-0.998,0.562-1.395
		c0.614-0.397,1.263-0.438,1.951-0.289c0.438,0.094,0.621,0.001,0.809-0.397c0.059-0.124,0.081-0.267,0.133-0.395
		c0.443-1.067,1.793-1.92,2.95-0.976c0.337,0.274,0.736,0.473,1.119,0.686c0.571,0.314,0.893,0.205,1.255-0.33
		c0.209-0.309,0.456-0.605,0.736-0.849c0.685-0.592,1.76-0.553,2.458,0.004c0.77,0.612,1.855,0.689,2.394-0.439
		c0.051-0.108,0.101-0.218,0.158-0.322c0.32-0.59,0.789-0.961,1.477-1.048c0.571-0.072,1.106,0.054,1.646,0.212
		c0.617,0.181,0.883,0.09,1.207-0.446c0.173-0.284,0.316-0.596,0.413-0.914c0.161-0.53,0.423-0.94,0.987-1.099
		c0.245-0.069,0.481-0.174,0.729-0.23c0.579-0.133,1.095-0.327,1.358-0.931c0.24-0.551,0.09-0.994-0.262-1.432
		c-0.101-0.126-0.174-0.35-0.137-0.499c0.175-0.698,0.402-1.376,1.008-1.848c0.446-0.349,0.561-0.617,0.334-1.128
		c-0.17-0.388-0.476-0.72-0.733-1.067c-0.141-0.189-0.368-0.333-0.458-0.542c-0.41-0.961-0.434-1.665,0.536-2.182
		C65.736,41.413,66.013,41.24,66.102,40.843z"/>
</g>
</svg>
