<?xml version="1.0" encoding="utf-8"?>
<!-- Generator: Adobe Illustrator 16.0.0, SVG Export Plug-In . SVG Version: 6.00 Build 0)  -->
<!DOCTYPE svg PUBLIC "-//W3C//DTD SVG 1.0//EN" "http://www.w3.org/TR/2001/REC-SVG-20010904/DTD/svg10.dtd">
<svg version="1.0" id="Layer_1" xmlns="http://www.w3.org/2000/svg" xmlns:xlink="http://www.w3.org/1999/xlink" x="0px" y="0px"
	 width="100px" height="100px" viewBox="0 0 100 100" enable-background="new 0 0 100 100" xml:space="preserve">
<g>
	<path fill-rule="evenodd" clip-rule="evenodd" fill="#FFFFFF" d="M62.739,12.461c0.333-0.032,0.696,0.009,0.997-0.109
		c0.821-0.328,1.388,0.089,1.905,0.598c0.588,0.577,0.573,1.445,0.03,2.08c-0.408,0.477-0.396,0.839,0.056,1.252
		c0.235,0.216,0.487,0.414,0.725,0.629c0.137,0.126,0.28,0.255,0.382,0.409c0.372,0.56,0.341,0.975-0.114,1.592
		c-0.195,0.265-0.416,0.51-0.593,0.725c0.353,0.531,0.688,1.034,0.989,1.49c-0.241,0.666-0.708,0.919-1.268,1.05
		c0.311,0.532,0.305,0.519,0.802,0.301c0.431-0.188,0.865-0.384,1.317-0.501c0.811-0.208,1.408-0.056,1.661,0.932
		c0.047,0.183,0.082,0.369,0.145,0.547c0.124,0.351,0.459,0.501,0.75,0.332c1.26-0.737,2.549-0.088,3.095,0.974
		c0.068,0.134,0.106,0.282,0.162,0.422c0.128,0.32,0.156,0.612-0.152,0.867c-0.122,0.102-0.188,0.269-0.277,0.401
		c0.336,0.288,0.668,0.532,0.951,0.824c0.271,0.28,0.467,0.655,0.286,1.03c-0.154,0.321-0.357,0.643-0.706,0.839
		c-0.389,0.217-0.841,0.348-1.118,0.729c0.206,0.379,0.24,0.395,0.524,0.221c0.4-0.245,0.801-0.491,1.197-0.742
		c0.589-0.374,1.181-0.323,1.763-0.006c0.121,0.064,0.204,0.212,0.282,0.336c0.12,0.19,0.217,0.395,0.333,0.588
		c0.23,0.383,0.505,0.48,0.89,0.287c0.285-0.143,0.56-0.312,0.821-0.494c0.688-0.477,1.366-0.422,2.07-0.026
		c0.643,0.361,0.842,0.925,0.818,1.613c-0.002,0.075-0.021,0.15-0.018,0.226c0.017,0.369,0.189,0.492,0.557,0.396
		c0.382-0.1,0.765-0.195,1.14-0.314c0.246-0.079,0.44-0.003,0.635,0.126c0.204,0.136,0.409,0.267,0.612,0.405
		c0.553,0.377,0.739,1.277,0.381,1.858c-0.129,0.207-0.278,0.4-0.423,0.604c0.164,0.356,0.427,0.48,0.793,0.548
		c0.379,0.07,0.771,0.213,1.093,0.422c0.636,0.411,0.628,1.269,0.028,1.726c-0.147,0.113-0.302,0.217-0.473,0.339
		c0.232,0.414,0.424,0.818,0.676,1.179c0.175,0.25,0.208,0.528,0.105,0.747c-0.214,0.461-0.386,0.991-0.99,1.128
		c-0.201,0.046-0.314,0.174-0.311,0.409c0.001,0.166-0.076,0.331-0.087,0.499c-0.009,0.119,0.002,0.259,0.058,0.359
		c0.255,0.457,0.189,0.802-0.201,1.118c-0.519,0.421-1.105,0.433-1.717,0.329c-0.129-0.021-0.253-0.083-0.383-0.091
		c-0.42-0.027-0.674,0.244-0.633,0.66c0.065,0.669-0.145,1.021-0.768,1.235c-0.337,0.115-0.681,0.233-1.031,0.282
		c-0.251,0.035-0.526-0.011-0.772-0.083c-0.283-0.083-0.545-0.236-0.872-0.384c-0.141,0.175-0.318,0.346-0.435,0.55
		c-0.666,1.175-2.471,1.129-3.184,0.036c-0.062-0.095-0.129-0.188-0.192-0.281c-0.296-0.438-0.576-0.496-1.033-0.225
		c-0.226,0.134-0.466,0.245-0.679,0.396c-0.36,0.256-0.735,0.257-1.127,0.116c-0.668-0.242-1.21-0.6-1.367-1.366
		c-0.042-0.203-0.195-0.383-0.358-0.687c-0.097,0.23-0.158,0.333-0.182,0.443c-0.033,0.164-0.01,0.345-0.062,0.5
		c-0.238,0.688-0.674,1.054-1.541,0.678c-0.46-0.199-0.561-0.196-0.682,0.279c-0.137,0.536-0.432,0.839-0.96,0.986
		c-0.477,0.132-0.933,0.303-1.414,0.036c-0.097-0.052-0.213-0.077-0.323-0.096c-0.362-0.071-0.43-0.026-0.521,0.314
		c-0.256,0.96-0.816,1.425-1.789,1.366c-0.354-0.021-0.697-0.242-1.04-0.385c-0.102-0.042-0.183-0.134-0.276-0.196
		c-0.495-0.331-0.857-0.191-1.088,0.372c-0.213,0.522-0.238,1.043-0.146,1.59c0.049,0.293-0.048,0.547-0.33,0.712
		c-0.296,0.172-0.77,0.198-1.013,0.013c-0.229-0.175-0.33-0.401-0.233-0.696c0.08-0.246,0.147-0.496,0.238-0.807
		c-0.121-0.035-0.251-0.09-0.386-0.106c-0.483-0.061-0.917-0.211-1.239-0.603c-0.035-0.044-0.084-0.075-0.127-0.113
		c-0.682-0.593-0.784-0.562-1.545-0.041c-0.835,0.572-1.82,0.591-2.641-0.419c-0.024-0.03-0.043-0.064-0.065-0.093
		c-0.163-0.225-0.27-0.506-0.582-0.577c-0.311-0.07-0.522,0.123-0.775,0.252c-0.318,0.162-0.684,0.216-1.033,0.025
		c-0.516-0.282-1.009-0.537-0.992-1.283c0.011-0.453-0.182-0.911-0.281-1.354c-0.646-0.037-0.829,0.081-1.006,0.604
		c-0.054,0.158-0.115,0.315-0.191,0.465c-0.518,1.033-1.358,1.296-2.359,0.746c-0.083-0.046-0.167-0.088-0.252-0.129
		c-0.484-0.235-0.617-0.168-0.714,0.369c-0.046,0.257-0.083,0.514-0.126,0.771c-0.104,0.619-1.043,1.281-1.658,1.155
		c-0.292-0.059-0.576-0.152-0.807-0.215c-0.221,0.31-0.402,0.586-0.607,0.844c-0.292,0.368-0.472,0.372-0.83,0.051
		c-0.042-0.038-0.085-0.074-0.154-0.131c-0.616,0.747-1.336,0.334-2.017,0.136c-0.327-0.095-0.629-0.306-0.854-0.598
		c-0.082-0.108-0.226-0.167-0.367-0.266c-0.154,0.211-0.271,0.377-0.394,0.539c-0.536,0.707-1.286,0.938-2.152,0.747
		c-0.623-0.138-0.976-0.504-1.18-1.074c-0.099-0.278-0.221-0.549-0.352-0.871c-0.3,0.19-0.565,0.358-0.832,0.524
		c-0.671,0.417-1.398,0.265-1.863-0.378c-0.163-0.226-0.451-0.413-0.504-0.655c-0.151-0.708-0.212-1.434-0.315-2.204
		c-0.036,0-0.161-0.038-0.23,0.008c-0.296,0.194-0.612,0.38-0.854,0.631c-0.551,0.573-1.117,0.668-1.74,0.179
		c-0.334-0.261-0.616-0.589-0.968-0.931c-0.296,0.194-0.659,0.392-0.975,0.648c-0.777,0.631-1.479,0.378-1.924-0.363
		c-0.201-0.335-0.355-0.698-0.554-1.096c-0.121,0.08-0.229,0.137-0.32,0.214c-0.481,0.409-0.99,0.748-1.666,0.647
		c-0.159-0.024-0.326-0.057-0.466-0.131c-0.38-0.201-0.77-0.397-1.11-0.654c-0.212-0.161-0.342-0.428-0.388-0.67
		c0.03-0.351,0.059-0.7,0.092-1.103c-0.209,0-0.336,0.005-0.461,0c-1.395-0.068-2.022-0.585-2.33-1.853
		c-0.155-0.64,0.31-1.039,0.682-1.457c0.06-0.067,0.163-0.095,0.231-0.157c0.301-0.274,0.293-0.7-0.075-0.826
		c-0.404-0.139-0.584-0.466-0.82-0.741c-0.145-0.169-0.211-0.432-0.246-0.664c-0.076-0.497,0.437-1.299,0.901-1.502
		c0.275-0.12,0.542-0.262,0.797-0.417c0.36-0.218,0.406-0.334,0.326-0.742c-0.033-0.167-0.083-0.33-0.138-0.489
		c-0.371-1.062,1.077-2.417,2.113-1.899c0.279,0.139,0.584,0.229,0.942,0.365c0.015-0.236,0.021-0.416,0.039-0.594
		c0.068-0.686,0.245-1.323,0.979-1.574c0.761-0.26,1.529-0.438,2.244,0.166c0.221,0.188,0.496,0.311,0.711,0.443
		c0.376-0.32,0.7-0.573,0.996-0.854c0.282-0.268,0.639-0.372,0.975-0.532c0.468-0.225,0.871-0.158,1.276,0.107
		c0.157,0.103,0.312,0.211,0.468,0.315c0.206,0.137,0.355,0.277,0.417,0.559c0.124,0.562,0.403,0.719,0.94,0.62
		c-0.006-0.083,0.022-0.21-0.024-0.251c-0.313-0.274-0.278-0.676-0.389-1.02c-0.133-0.413,0.169-0.676,0.403-0.935
		c0.438-0.485,0.45-0.475,0.035-1c-0.093-0.119-0.182-0.241-0.281-0.355c-0.749-0.866-0.245-1.976,0.677-2.325
		c0.861-0.326,0.856-0.34,0.468-1.148c-0.298-0.62-0.258-1.086,0.145-1.517c0.088-0.093,0.197-0.203,0.312-0.229
		c0.509-0.111,1.024-0.197,1.539-0.287c0.129-0.024,0.27-0.007,0.391-0.05c0.231-0.084,0.314-0.331,0.206-0.548
		c-0.43-0.863-0.343-1.315,0.372-1.912c0.069-0.059,0.153-0.128,0.236-0.138c0.588-0.066,1.185-0.199,1.711,0.233
		c0.144,0.118,0.318,0.205,0.491,0.278c0.408,0.173,0.773-0.042,0.785-0.493c0.015-0.568,0.194-1.006,0.715-1.294
		c0.477-0.263,0.931-0.397,1.499-0.257c0.503,0.125,0.912,0.288,1.212,0.731c0.322,0.478,0.742,0.448,1.081-0.04
		c0.457-0.656,0.457-0.656,1.015-1.006c0.277,0.062,0.549,0.136,0.826,0.183c0.683,0.115,1.166,0.501,1.615,1.018
		c0.39,0.448,0.882,0.813,1.356,1.178c0.123,0.094,0.351,0.049,0.562,0.072c0.138-0.472,0.281-0.896,0.383-1.33
		c0.237-1.01,1.146-1.648,2.162-1.512c0.221,0.03,0.45,0.026,0.673,0.012c0.493-0.031,0.804-0.441,0.787-0.944
		c-0.025-0.727,0.312-1.304,0.841-1.774c0.572-0.51,1.184-0.666,1.908-0.268c0.467,0.256,1.15,0.001,1.421-0.551
		c0.287-0.586,0.717-1.052,1.246-1.435c0.431-0.31,0.854-0.377,1.3-0.045c0.091,0.067,0.182,0.136,0.279,0.19
		c0.582,0.315,0.894,0.25,1.324-0.271c0.602-0.728,1.573-0.986,2.38-0.631c0.068,0.03,0.146,0.053,0.199,0.103
		c0.313,0.294,0.626,0.589,0.926,0.897C62.647,12.195,62.672,12.316,62.739,12.461z M57.188,42.165
		c-0.508-0.592-0.983-1.159-1.652-1.547c-0.424-0.246-0.833-0.49-1.314-0.605c-0.329-0.078-0.647-0.201-0.971-0.3
		c-0.303-0.092-0.604-0.225-0.914-0.26c-0.708-0.078-1.423-0.096-2.133-0.158c-0.793-0.068-1.571-0.002-2.348,0.166
		c-0.757,0.164-1.465,0.434-2.17,0.758c-0.983,0.452-1.849,1.055-2.668,1.744c-0.147,0.123-0.319,0.217-0.499,0.339
		c0.097,0.183,0.182,0.402,0.451,0.269c0.352-0.173,0.763-0.311,1.012-0.585c0.522-0.578,1.231-0.835,1.858-1.23
		c0.216-0.135,0.487-0.181,0.736-0.262c0.321-0.105,0.65-0.189,0.965-0.309c0.648-0.248,1.316-0.396,2.007-0.453
		c0.127-0.011,0.261,0,0.386,0.024c0.682,0.132,1.361,0.271,2.041,0.412c0.124,0.026,0.251,0.058,0.365,0.111
		c0.508,0.237,0.991,0.544,1.52,0.712c0.924,0.291,1.766,0.722,2.567,1.251c0.138,0.09,0.282,0.173,0.444,0.271
		C56.991,42.381,57.087,42.275,57.188,42.165z M56.517,30.679c-0.171,0.095-0.353,0.175-0.511,0.288
		c-0.168,0.119-0.313,0.269-0.469,0.405c-0.292,0.256-0.311,0.563-0.055,0.949c0.24,0.363,0.481,0.434,0.853,0.242
		c0.321-0.165,0.596-0.38,0.801-0.689c0.159-0.239,0.243-0.479,0.094-0.732C57.083,30.897,56.896,30.672,56.517,30.679z
		 M43.196,31.384c-0.01,0.546,0.072,0.641,0.591,0.715c0.075,0.01,0.149,0.02,0.225,0.021c0.508,0.005,0.963-0.345,1.022-0.786
		c0.056-0.41-0.37-1.004-0.802-1.104c-0.085-0.02-0.212-0.023-0.27,0.025C43.597,30.563,43.143,30.824,43.196,31.384z
		 M52.023,36.291c-0.004-0.413-0.223-0.735-0.506-0.749c-0.316-0.015-0.643,0.337-0.645,0.696c-0.002,0.398,0.246,0.688,0.572,0.669
		C51.785,36.888,52.028,36.628,52.023,36.291z M49.254,36.509c-0.09-0.338-0.147-0.645-0.256-0.93
		c-0.093-0.242-0.313-0.237-0.526-0.155c-0.307,0.117-0.437,0.31-0.373,0.538C48.248,36.49,48.479,36.619,49.254,36.509z"/>
	<path fill-rule="evenodd" clip-rule="evenodd" fill="#FFFFFF" d="M64.547,70.164c0.474,0.625,0.476,1.218,0.295,1.815
		c-0.31,1.03-0.444,2.083-0.494,3.156c-0.019,0.371-0.106,0.743-0.194,1.108c-0.072,0.303-0.279,0.432-0.531,0.385
		c-0.281-0.053-0.503-0.266-0.473-0.539c0.065-0.579,0.151-1.157,0.265-1.729c0.144-0.717,0.332-1.424,0.483-2.14
		c0.05-0.239,0.021-0.491,0.069-0.73c0.068-0.348,0.154-0.694,0.271-1.026C64.277,70.349,64.429,70.273,64.547,70.164z"/>
	<path fill-rule="evenodd" clip-rule="evenodd" fill="#FFFFFF" d="M51.889,84.502c-0.009,0.135,0.021,0.3-0.034,0.426
		c-0.444,1.03-0.637,2.122-0.841,3.213c-0.015,0.074-0.061,0.155-0.042,0.222c0.155,0.54-0.236,0.876-0.472,1.264
		c-0.116,0.191-0.303,0.293-0.531,0.216c-0.234-0.078-0.299-0.279-0.285-0.499c0.007-0.13,0.062-0.256,0.091-0.383
		c0.161-0.693,0.318-1.389,0.482-2.082c0.142-0.603,0.303-1.202,0.432-1.81c0.07-0.334,0.332-0.491,0.562-0.674
		C51.472,84.219,51.674,84.344,51.889,84.502z"/>
	<path fill-rule="evenodd" clip-rule="evenodd" fill="#FFFFFF" d="M66.78,64.622c-0.405-0.01-0.603-0.23-0.548-0.617
		c0.026-0.184,0.11-0.357,0.148-0.539c0.121-0.584,0.226-1.174,0.351-1.759c0.157-0.731,0.315-1.462,0.5-2.188
		c0.065-0.259,0.433-0.399,0.686-0.31c0.208,0.072,0.341,0.354,0.234,0.612c-0.457,1.107-0.447,2.3-0.658,3.45
		c-0.062,0.351-0.169,0.691-0.27,1.034C67.157,64.527,66.999,64.646,66.78,64.622z"/>
	<path fill-rule="evenodd" clip-rule="evenodd" fill="#FFFFFF" d="M58.72,55.278c-0.039,0.146-0.098,0.324-0.132,0.51
		c-0.178,0.978-0.352,1.956-0.521,2.934c-0.025,0.149-0.039,0.304-0.024,0.451c0.04,0.386-0.136,0.627-0.444,0.838
		c-0.225,0.152-0.426,0.159-0.622,0.024c-0.188-0.127-0.323-0.289-0.213-0.569c0.121-0.308,0.151-0.652,0.271-0.96
		c0.38-0.971,0.453-2.008,0.669-3.013c0.061-0.282,0.165-0.493,0.424-0.616C58.416,54.738,58.714,54.922,58.72,55.278z"/>
	<path fill-rule="evenodd" clip-rule="evenodd" fill="#FFFFFF" d="M40.149,54.98c-0.061,0.406-0.075,0.727-0.16,1.028
		c-0.278,0.99-0.577,1.977-0.878,2.961c-0.082,0.269-0.211,0.523-0.301,0.789c-0.083,0.25-0.22,0.395-0.5,0.316
		c-0.279-0.081-0.436-0.328-0.356-0.611c0.115-0.416,0.263-0.82,0.386-1.233c0.081-0.27,0.139-0.545,0.217-0.815
		c0.249-0.864,0.501-1.729,0.755-2.594c0.056-0.188,0.193-0.276,0.385-0.262C39.889,54.572,40.144,54.869,40.149,54.98z"/>
	<path fill-rule="evenodd" clip-rule="evenodd" fill="#FFFFFF" d="M48.061,60.412c-0.033,0.116-0.056,0.188-0.076,0.259
		c-0.329,1.132-0.657,2.263-0.982,3.395c-0.047,0.162-0.11,0.337-0.093,0.496c0.044,0.406-0.268,0.646-0.415,0.958
		c-0.087,0.188-0.34,0.229-0.491,0.106c-0.141-0.116-0.248-0.322-0.279-0.504c-0.026-0.149,0.08-0.321,0.128-0.483
		c0.281-0.934,0.559-1.868,0.842-2.8c0.144-0.469,0.292-0.934,0.451-1.397c0.039-0.116,0.099-0.26,0.193-0.314
		c0.134-0.075,0.339-0.146,0.459-0.092C47.924,60.09,47.983,60.293,48.061,60.412z"/>
	<path fill-rule="evenodd" clip-rule="evenodd" fill="#FFFFFF" d="M54.622,70.429c0.037-0.178,0.058-0.291,0.083-0.401
		c0.317-1.351,0.635-2.701,0.957-4.051c0.033-0.143,0.082-0.29,0.162-0.409c0.123-0.187,0.294-0.271,0.535-0.172
		c0.232,0.095,0.293,0.271,0.301,0.491c0.002,0.054-0.016,0.109-0.035,0.162c-0.483,1.312-0.55,2.708-0.828,4.062
		c-0.056,0.269-0.262,0.527-0.456,0.737c-0.073,0.08-0.351,0.065-0.464-0.01C54.743,70.748,54.688,70.542,54.622,70.429z"/>
	<path fill-rule="evenodd" clip-rule="evenodd" fill="#FFFFFF" d="M60.855,85.948c0.047-0.308,0.071-0.611,0.143-0.902
		c0.165-0.672,0.368-1.335,0.528-2.008c0.081-0.344,0.149-0.704,0.135-1.053c-0.014-0.334,0.093-0.539,0.366-0.689
		c0.115-0.064,0.218-0.15,0.334-0.211c0.276-0.145,0.538,0.032,0.504,0.347c-0.018,0.167-0.074,0.329-0.119,0.493
		c-0.237,0.871-0.495,1.735-0.709,2.613c-0.119,0.484-0.17,0.986-0.247,1.48c-0.06,0.372-0.245,0.576-0.508,0.55
		C61.032,86.544,60.841,86.259,60.855,85.948z"/>
	<path fill-rule="evenodd" clip-rule="evenodd" fill="#FFFFFF" d="M23.106,72.199c-0.013,0.056-0.021,0.092-0.032,0.128
		c-0.234,0.75-0.491,1.493-0.694,2.253c-0.15,0.559-0.234,1.137-0.341,1.706c-0.081,0.436-0.246,0.597-0.565,0.527
		c-0.315-0.066-0.442-0.366-0.402-0.74c0.127-1.186,0.54-2.299,0.812-3.446c0.052-0.218,0.136-0.431,0.22-0.639
		c0.082-0.203,0.261-0.299,0.458-0.232c0.185,0.062,0.348,0.189,0.512,0.303C23.107,72.081,23.099,72.161,23.106,72.199z"/>
	<path fill-rule="evenodd" clip-rule="evenodd" fill="#FFFFFF" d="M70.639,48.607c0.273,0.339,0.276,0.714,0.161,1.115
		c-0.278,0.969-0.546,1.942-0.817,2.913c-0.015,0.055-0.028,0.11-0.044,0.164c-0.106,0.36-0.376,0.565-0.638,0.488
		c-0.332-0.099-0.549-0.516-0.437-0.844c0.2-0.582,0.418-1.159,0.596-1.749c0.135-0.445,0.251-0.902,0.316-1.364
		C69.879,48.602,69.909,48.556,70.639,48.607z"/>
	<path fill-rule="evenodd" clip-rule="evenodd" fill="#FFFFFF" d="M29.636,49.539c0.797,0.267,0.519,0.852,0.428,1.304
		c-0.169,0.839-0.436,1.662-0.661,2.491c-0.021,0.072-0.028,0.149-0.058,0.216c-0.15,0.341-0.451,0.506-0.761,0.426
		c-0.225-0.057-0.396-0.339-0.377-0.668c0.01-0.162,0.066-0.324,0.11-0.482c0.156-0.559,0.313-1.117,0.475-1.672
		c0.104-0.359,0.181-0.731,0.342-1.063C29.242,49.868,29.474,49.709,29.636,49.539z"/>
	<path fill-rule="evenodd" clip-rule="evenodd" fill="#FFFFFF" d="M43.678,74.012c-0.625-0.325-0.688-0.409-0.554-0.929
		c0.195-0.763,0.439-1.511,0.638-2.272c0.131-0.504,0.258-1.017,0.318-1.533c0.056-0.482,0.347-0.746,0.725-1.048
		c0.209,0.452,0.407,0.819,0.146,1.297c-0.137,0.249-0.115,0.583-0.191,0.871c-0.087,0.324-0.219,0.636-0.303,0.96
		c-0.157,0.6-0.279,1.205-0.442,1.803C43.937,73.438,43.803,73.702,43.678,74.012z"/>
	<path fill-rule="evenodd" clip-rule="evenodd" fill="#FFFFFF" d="M23.404,68.602c0.021-0.172,0.02-0.288,0.052-0.395
		c0.344-1.132,0.691-2.26,1.045-3.389c0.038-0.121,0.116-0.23,0.178-0.345c0.139-0.258,0.352-0.264,0.572-0.14
		c0.219,0.124,0.332,0.348,0.231,0.573c-0.522,1.174-0.728,2.437-1.035,3.668c-0.019,0.074-0.032,0.149-0.062,0.218
		c-0.119,0.273-0.346,0.429-0.555,0.39C23.573,69.131,23.39,68.854,23.404,68.602z"/>
	<path fill-rule="evenodd" clip-rule="evenodd" fill="#FFFFFF" d="M53.69,76.29c-0.123,0.559-0.258,1.123-0.37,1.693
		c-0.145,0.733-0.275,1.47-0.404,2.209c-0.057,0.327-0.285,0.545-0.554,0.501c-0.276-0.044-0.476-0.316-0.419-0.636
		c0.078-0.44,0.187-0.874,0.286-1.31c0.188-0.82,0.366-1.645,0.574-2.46c0.069-0.267,0.206-0.521,0.341-0.763
		c0.043-0.074,0.188-0.123,0.282-0.12c0.056,0.002,0.136,0.125,0.155,0.203C53.631,75.826,53.654,76.051,53.69,76.29z"/>
	<path fill-rule="evenodd" clip-rule="evenodd" fill="#FFFFFF" d="M35.008,71.248c-0.209,0.827-0.424,1.617-0.609,2.415
		c-0.184,0.798-0.337,1.602-0.5,2.385c-0.678,0.081-0.879-0.074-0.812-0.67c0.049-0.426,0.181-0.844,0.286-1.261
		c0.229-0.911,0.353-1.851,0.792-2.701C34.401,70.96,34.507,70.927,35.008,71.248z"/>
	<path fill-rule="evenodd" clip-rule="evenodd" fill="#FFFFFF" d="M33.007,79.806c-0.157,0.75-0.147,1.413-0.437,2.045
		c-0.228,0.5-0.28,1.084-0.386,1.635c-0.073,0.375-0.394,0.66-0.728,0.595c-0.37-0.071-0.564-0.355-0.407-0.699
		c0.434-0.948,0.621-1.967,0.903-2.958c0.076-0.266,0.228-0.509,0.35-0.762c0.085-0.173,0.247-0.274,0.415-0.18
		C32.855,79.559,32.94,79.727,33.007,79.806z"/>
	<path fill-rule="evenodd" clip-rule="evenodd" fill="#FFFFFF" d="M42.852,77.921c-0.094,0.681-0.188,1.437-0.305,2.189
		c-0.028,0.18-0.139,0.344-0.197,0.521c-0.109,0.336-0.234,0.67-0.301,1.014c-0.076,0.394-0.304,0.642-0.606,0.573
		c-0.215-0.048-0.4-0.47-0.322-0.762c0.113-0.414,0.258-0.82,0.353-1.239c0.169-0.745,0.311-1.497,0.466-2.245
		c0.022-0.111,0.049-0.221,0.085-0.327c0.086-0.258,0.284-0.348,0.532-0.3C42.829,77.396,42.921,77.583,42.852,77.921z"/>
	<path fill-rule="evenodd" clip-rule="evenodd" fill="#FFFFFF" d="M39.069,90.681c-0.111-0.585-0.036-1.146,0.152-1.711
		c0.123-0.369,0.129-0.778,0.238-1.155c0.081-0.279,0.213-0.56,0.377-0.801c0.142-0.209,0.376-0.185,0.507,0.035
		c0.203,0.339,0.345,0.68,0.229,1.116c-0.152,0.577-0.213,1.176-0.312,1.766c-0.019,0.111-0.027,0.225-0.053,0.334
		C40.043,90.959,39.707,91.082,39.069,90.681z"/>
	<path fill-rule="evenodd" clip-rule="evenodd" fill="#FFFFFF" d="M25.835,60.678c0.159-0.532,0.313-1.068,0.477-1.601
		c0.165-0.537,0.334-1.072,0.51-1.607c0.045-0.136,0.084-0.312,0.187-0.389c0.137-0.104,0.421-0.23,0.485-0.172
		c0.166,0.149,0.253,0.39,0.354,0.604c0.026,0.058-0.003,0.149-0.025,0.22c-0.183,0.586-0.372,1.169-0.555,1.755
		c-0.1,0.319-0.189,0.641-0.287,0.96c-0.05,0.162-0.105,0.322-0.166,0.481c-0.099,0.257-0.301,0.329-0.548,0.255
		C26.03,61.114,25.875,60.961,25.835,60.678z"/>
	<path fill-rule="evenodd" clip-rule="evenodd" fill="#FFFFFF" d="M36.922,62.563c0.436,0.481,0.239,0.967,0.197,1.408
		c-0.035,0.386-0.179,0.759-0.273,1.136c-0.15,0.598-0.287,1.198-0.454,1.791c-0.061,0.213-0.155,0.438-0.303,0.593
		c-0.103,0.108-0.337,0.164-0.487,0.13c-0.171-0.041-0.317-0.203-0.263-0.437c0.059-0.252,0.1-0.511,0.175-0.758
		c0.249-0.823,0.504-1.644,0.767-2.463c0.114-0.354,0.246-0.704,0.386-1.048C36.713,62.803,36.812,62.711,36.922,62.563z"/>
	<path fill-rule="evenodd" clip-rule="evenodd" fill="#FFFFFF" d="M20.194,80.096c0.305,0.584,0.257,1.058,0.145,1.539
		c-0.208,0.888-0.416,1.776-0.61,2.668c-0.069,0.315-0.314,0.591-0.566,0.583c-0.293-0.011-0.528-0.31-0.515-0.684
		c0.005-0.147,0.023-0.303,0.083-0.436c0.322-0.719,0.492-1.477,0.654-2.243c0.069-0.326,0.179-0.65,0.324-0.95
		C19.789,80.41,19.98,80.3,20.194,80.096z"/>
	<path fill-rule="evenodd" clip-rule="evenodd" fill="#FFFFFF" d="M50.412,50.631c-0.141,0.697-0.278,1.454-0.451,2.203
		c-0.104,0.45-0.248,0.892-0.404,1.327c-0.049,0.138-0.191,0.331-0.303,0.34c-0.153,0.01-0.352-0.096-0.472-0.212
		c-0.222-0.214-0.227-0.498-0.134-0.786c0.263-0.821,0.523-1.644,0.775-2.468c0.061-0.196,0.088-0.402,0.131-0.604
		c0.064-0.303,0.212-0.439,0.437-0.403C50.282,50.076,50.442,50.282,50.412,50.631z"/>
</g>
</svg>
